<svg id="Social_Media" data-name="Social Media" xmlns="http://www.w3.org/2000/svg" width="28" height="28" viewBox="0 0 28 28">
  <circle id="Ellipse_71" data-name="Ellipse 71" cx="14" cy="14" r="14" fill="#fff"/>
  <g id="Group_1775" data-name="Group 1775" transform="translate(8.335 6.231)">
    <g id="Group_1697" data-name="Group 1697">
      <g id="Group_1696" data-name="Group 1696">
        <path id="Path_857" data-name="Path 857" d="M4795.009,1274.483a3.267,3.267,0,0,1,1.558-2.743,3.348,3.348,0,0,0-2.637-1.426c-1.111-.116-2.187.664-2.751.664s-1.446-.652-2.384-.633a3.51,3.51,0,0,0-2.955,1.8c-1.278,2.212-.326,5.463.9,7.251.613.876,1.329,1.854,2.265,1.819.916-.038,1.258-.584,2.365-.584s1.417.584,2.372.562c.983-.016,1.6-.879,2.194-1.763a7.218,7.218,0,0,0,1-2.043A3.159,3.159,0,0,1,4795.009,1274.483Z" transform="translate(-4785.233 -1266.832)" fill="#13131a"/>
        <path id="Path_858" data-name="Path 858" d="M4808.821,1259.82a3.217,3.217,0,0,0,.737-2.306,3.271,3.271,0,0,0-2.119,1.1,3.062,3.062,0,0,0-.756,2.221A2.707,2.707,0,0,0,4808.821,1259.82Z" transform="translate(-4800.851 -1257.514)" fill="#13131a"/>
      </g>
    </g>
  </g>
</svg>
