<svg id="Social_Media" data-name="Social Media" xmlns="http://www.w3.org/2000/svg" width="28" height="28" viewBox="0 0 28 28">
  <circle id="Ellipse_71" data-name="Ellipse 71" cx="14" cy="14" r="14" fill="#fff"/>
  <g id="Group_1776" data-name="Group 1776" transform="translate(7.201 6.869)">
    <path id="Path_880" data-name="Path 880" d="M4814.258,1740.743a6.056,6.056,0,0,0-.151-1.458h-6.694v2.646h3.93a3.49,3.49,0,0,1-1.458,2.313l-.015.089,2.118,1.64.146.015a6.971,6.971,0,0,0,2.123-5.244" transform="translate(-4800.283 -1733.454)" fill="#3283fc"/>
    <path id="Path_881" data-name="Path 881" d="M4789.193,1755.465a6.8,6.8,0,0,0,4.722-1.727l-2.25-1.743a4.223,4.223,0,0,1-2.472.713,4.292,4.292,0,0,1-4.056-2.963l-.083.007-2.2,1.7-.028.08a7.124,7.124,0,0,0,6.369,3.929" transform="translate(-4782.063 -1741.205)" fill="#00ac47"/>
    <path id="Path_882" data-name="Path 882" d="M4782.961,1736.456a4.381,4.381,0,0,1-.238-1.41,4.6,4.6,0,0,1,.23-1.41l0-.095-2.229-1.73-.073.035a7.113,7.113,0,0,0,0,6.4l2.313-1.79" transform="translate(-4779.887 -1727.916)" fill="#fb0"/>
    <path id="Path_883" data-name="Path 883" d="M4789.193,1719.532a3.954,3.954,0,0,1,2.757,1.062l2.012-1.964a6.851,6.851,0,0,0-4.77-1.854,7.124,7.124,0,0,0-6.369,3.93l2.305,1.79a4.31,4.31,0,0,1,4.064-2.963" transform="translate(-4782.063 -1716.775)" fill="#fe2c25"/>
  </g>
</svg>
