<svg xmlns="http://www.w3.org/2000/svg" xmlns:xlink="http://www.w3.org/1999/xlink" width="286" height="44" viewBox="0 0 286 44">
  <defs>
    <clipPath id="clip-path">
      <path id="_01" data-name="01" d="M8,0H278a8,8,0,0,1,8,8V44a0,0,0,0,1,0,0H0a0,0,0,0,1,0,0V8A8,8,0,0,1,8,0Z" fill="#01544f"/>
    </clipPath>
    <clipPath id="clip-path-2">
      <circle id="Ellipse_71" data-name="Ellipse 71" cx="12" cy="12" r="12" fill="#a609ff"/>
    </clipPath>
  </defs>
  <g id="Mask_Group_21" data-name="Mask Group 21" clip-path="url(#clip-path)">
    <g id="Social_Media" data-name="Social Media" transform="translate(19 15)">
      <g id="Mask_Group_20" data-name="Mask Group 20" clip-path="url(#clip-path-2)">
        <rect id="Mask_Group_20-2" data-name="Mask Group 20" width="35" height="32" transform="translate(-5 -4)" fill="#fff"/>
      </g>
      <g id="Group_1779" data-name="Group 1779" transform="translate(6.482 6.858)">
        <path id="Path_855" data-name="Path 855" d="M4787.293,1563.812c1.474,0,1.648.005,2.23.032a3.069,3.069,0,0,1,1.025.19,1.832,1.832,0,0,1,1.047,1.047,3.062,3.062,0,0,1,.189,1.025c.027.582.032.756.032,2.23s-.005,1.648-.032,2.23a3.061,3.061,0,0,1-.189,1.024,1.833,1.833,0,0,1-1.047,1.047,3.052,3.052,0,0,1-1.025.19c-.582.027-.756.032-2.23.032s-1.648-.006-2.23-.032a3.049,3.049,0,0,1-1.024-.19,1.825,1.825,0,0,1-1.047-1.047,3.054,3.054,0,0,1-.19-1.024c-.026-.582-.032-.756-.032-2.23s.006-1.648.032-2.23a3.055,3.055,0,0,1,.19-1.025,1.824,1.824,0,0,1,1.047-1.047,3.066,3.066,0,0,1,1.024-.19c.582-.026.757-.032,2.23-.032m0-.994c-1.5,0-1.686.006-2.275.033a4.059,4.059,0,0,0-1.34.256,2.824,2.824,0,0,0-1.613,1.614,4.032,4.032,0,0,0-.257,1.339c-.027.589-.033.777-.033,2.275s.006,1.687.033,2.275a4.029,4.029,0,0,0,.257,1.34,2.82,2.82,0,0,0,1.613,1.614,4.046,4.046,0,0,0,1.34.257c.589.027.776.033,2.275.033s1.687-.006,2.275-.033a4.043,4.043,0,0,0,1.339-.257,2.817,2.817,0,0,0,1.613-1.614,4.027,4.027,0,0,0,.257-1.34c.027-.588.033-.776.033-2.275s-.006-1.687-.033-2.275a4.03,4.03,0,0,0-.257-1.339,2.82,2.82,0,0,0-1.613-1.614,4.056,4.056,0,0,0-1.339-.256c-.588-.027-.777-.033-2.275-.033Z" transform="translate(-4781.775 -1562.818)" fill="#e221ad"/>
        <path id="Path_856" data-name="Path 856" d="M4798.944,1577.154a2.834,2.834,0,1,0,2.834,2.834A2.833,2.833,0,0,0,4798.944,1577.154Zm0,4.673a1.839,1.839,0,1,1,1.839-1.839A1.839,1.839,0,0,1,4798.944,1581.827Z" transform="translate(-4793.426 -1574.469)" fill="#e221ad"/>
        <circle id="Ellipse_36" data-name="Ellipse 36" cx="0.662" cy="0.662" r="0.662" transform="translate(7.802 1.91)" fill="#e221ad"/>
      </g>
    </g>
  </g>
</svg>
