<svg id="Social_Media" data-name="Social Media" xmlns="http://www.w3.org/2000/svg" width="28" height="28" viewBox="0 0 28 28">
  <circle id="Ellipse_71" data-name="Ellipse 71" cx="14" cy="14" r="14" fill="#0a66c2"/>
  <g id="Group_1777" data-name="Group 1777" transform="matrix(1, 0.017, -0.017, 1, 8.908, 7.714)">
    <path id="Path_875" data-name="Path 875" d="M4787.393,1112.512l2.215-.036.116,7.121-2.214.036Zm1.051-3.558a1.284,1.284,0,1,1-1.264,1.3,1.284,1.284,0,0,1,1.264-1.3" transform="translate(-4787.181 -1108.954)" fill="#fff"/>
    <path id="Path_876" data-name="Path 876" d="M4806.15,1125.372l2.121-.035.017.974h.03a2.326,2.326,0,0,1,2.076-1.184c2.24-.036,2.679,1.431,2.709,3.349l.063,3.906-2.213.036-.057-3.463c-.013-.826-.045-1.888-1.181-1.87-1.151.019-1.312.922-1.3,1.851l.057,3.523-2.21.036Z" transform="translate(-4802.333 -1121.872)" fill="#fff"/>
  </g>
</svg>
