<svg id="Social_Media" data-name="Social Media" xmlns="http://www.w3.org/2000/svg" width="28" height="28" viewBox="0 0 28 28">
  <path id="Path_925" data-name="Path 925" d="M13.922,0A13.922,13.922,0,1,1,0,13.922,13.922,13.922,0,0,1,13.922,0Z" transform="translate(0.078 0.078)" fill="#fff"/>
  <path id="Path_924" data-name="Path 924" d="M4768.312,2443.082a13.99,13.99,0,0,0-5.108,27.021,13.425,13.425,0,0,1,.046-4.018c.254-1.094,1.638-6.954,1.638-6.954a5.082,5.082,0,0,1-.416-2.072c0-1.946,1.13-3.4,2.537-3.4a1.759,1.759,0,0,1,1.776,1.969c0,1.2-.761,2.994-1.165,4.663a2.036,2.036,0,0,0,2.076,2.533c2.491,0,4.4-2.625,4.4-6.4a5.524,5.524,0,0,0-5.858-5.687,6.059,6.059,0,0,0-6.331,6.067,5.455,5.455,0,0,0,1.038,3.189.414.414,0,0,1,.092.4c-.1.438-.346,1.394-.392,1.589-.057.253-.208.311-.473.184-1.753-.817-2.848-3.362-2.848-5.423,0-4.409,3.206-8.462,9.26-8.462,4.855,0,8.637,3.454,8.637,8.083,0,4.824-3.044,8.7-7.265,8.7a3.724,3.724,0,0,1-3.206-1.611l-.877,3.327a15.21,15.21,0,0,1-1.742,3.673,14,14,0,1,0,4.175-27.378Z" transform="translate(-4754.301 -2443.082)" fill="#e60023"/>
</svg>
