<svg id="Social_Media" data-name="Social Media" xmlns="http://www.w3.org/2000/svg" width="28" height="28" viewBox="0 0 28 28">
  <circle id="Ellipse_71" data-name="Ellipse 71" cx="14" cy="14" r="14" fill="#25a2e0"/>
  <path id="Path_923" data-name="Path 923" d="M4781.638,1879.742l7.739-3.189c.765-.332,3.355-1.4,3.355-1.4s1.2-.465,1.1.665c-.033.465-.3,2.093-.564,3.853l-.83,5.215s-.067.764-.631.9a2.731,2.731,0,0,1-1.661-.6c-.133-.1-2.492-1.595-3.355-2.325a.63.63,0,0,1,.034-1.063c1.2-1.1,2.624-2.458,3.488-3.321.4-.4.8-1.329-.864-.2l-4.684,3.155a1.952,1.952,0,0,1-1.528.033c-1-.3-2.159-.7-2.159-.7s-.8-.5.565-1.03Z" transform="translate(-4773.759 -1866.436)" fill="#fff"/>
</svg>
