<svg id="Social_Media" data-name="Social Media" xmlns="http://www.w3.org/2000/svg" width="28" height="28" viewBox="0 0 28 28">
  <circle id="Ellipse_71" data-name="Ellipse 71" cx="14" cy="14" r="14" fill="#e2e2ea"/>
  <g id="Group_2635" data-name="Group 2635" transform="translate(6.383 7.142)">
    <path id="Path_1332" data-name="Path 1332" d="M.5,17.2v7.411a.569.569,0,0,0,.6.522H14.13a.569.569,0,0,0,.6-.522V17.2Z" transform="translate(0 -12.258)" fill="#292932"/>
    <path id="Path_1333" data-name="Path 1333" d="M14.7,4.338V1.1a.606.606,0,0,0-.6-.6H1.1a.606.606,0,0,0-.6.6V4.368H14.7ZM6.333,2.767a.6.6,0,1,1,.6.6.606.606,0,0,1-.6-.6Zm-3.355,0a.6.6,0,1,1,.6.6.606.606,0,0,1-.6-.6Z" fill="#292932"/>
  </g>
</svg>
