<svg id="Social_Media" data-name="Social Media" xmlns="http://www.w3.org/2000/svg" width="28" height="28" viewBox="0 0 28 28">
  <g id="Group_1765" data-name="Group 1765" transform="translate(1.854 2.358)">
    <circle id="Ellipse_42" data-name="Ellipse 42" cx="14" cy="14" r="14" transform="translate(-1.854 -2.358)" fill="#1da1f2"/>
    <path id="Path_874" data-name="Path 874" d="M4790.739,2627.925a6.731,6.731,0,0,1-1.849.5,3.153,3.153,0,0,0,1.411-1.75,6.46,6.46,0,0,1-2.034.767,3.234,3.234,0,0,0-2.344-1,3.188,3.188,0,0,0-3.207,3.169,3.255,3.255,0,0,0,.074.722,9.116,9.116,0,0,1-6.613-3.313,3.142,3.142,0,0,0,.986,4.234,3.192,3.192,0,0,1-1.449-.39v.035a3.192,3.192,0,0,0,2.57,3.113,3.222,3.222,0,0,1-.841.1,2.864,2.864,0,0,1-.606-.054,3.232,3.232,0,0,0,3,2.207,6.5,6.5,0,0,1-3.979,1.352,6.13,6.13,0,0,1-.768-.044,9.119,9.119,0,0,0,4.922,1.422,9.009,9.009,0,0,0,9.132-9.015c0-.14,0-.275-.011-.41A6.343,6.343,0,0,0,4790.739,2627.925Z" transform="translate(-4770.15 -2620.576)" fill="#fff"/>
  </g>
</svg>
