<svg id="Social_Media" data-name="Social Media" xmlns="http://www.w3.org/2000/svg" width="24" height="24" viewBox="0 0 24 24">
  <g id="Group_1765" data-name="Group 1765">
    <circle id="Ellipse_42" data-name="Ellipse 42" cx="12" cy="12" r="12" transform="translate(0 0)" fill="#fff"/>
    <path id="Path_874" data-name="Path 874" d="M4788.1,2627.674a5.593,5.593,0,0,1-1.537.416,2.625,2.625,0,0,0,1.173-1.455,5.38,5.38,0,0,1-1.691.637,2.69,2.69,0,0,0-1.949-.834,2.65,2.65,0,0,0-2.666,2.635,2.7,2.7,0,0,0,.062.6,7.579,7.579,0,0,1-5.5-2.755,2.613,2.613,0,0,0,.819,3.521,2.659,2.659,0,0,1-1.2-.324v.029a2.654,2.654,0,0,0,2.136,2.588,2.685,2.685,0,0,1-.7.086,2.374,2.374,0,0,1-.5-.045,2.687,2.687,0,0,0,2.492,1.835,5.4,5.4,0,0,1-3.308,1.124,5.1,5.1,0,0,1-.639-.036,7.582,7.582,0,0,0,4.093,1.182,7.49,7.49,0,0,0,7.592-7.495c0-.117,0-.229-.009-.341A5.268,5.268,0,0,0,4788.1,2627.674Z" transform="translate(-4768.578 -2618.66)" fill="#1da1f2"/>
  </g>
</svg>
