<svg id="Social_Media" data-name="Social Media" xmlns="http://www.w3.org/2000/svg" width="28" height="28" viewBox="0 0 28 28">
  <g id="Group_1766" data-name="Group 1766" transform="translate(-1.163 -1002.844)">
    <g id="Group_1721" data-name="Group 1721" transform="translate(3.163 1004.844)">
      <g id="Group_1720" data-name="Group 1720">
        <g id="Group_1719" data-name="Group 1719">
          <circle id="Ellipse_49" data-name="Ellipse 49" cx="14" cy="14" r="14" transform="translate(-2 -2)" fill="#25d366"/>
        </g>
      </g>
    </g>
    <g id="logo" transform="translate(7.609 1008.828)">
      <g id="Group_1724" data-name="Group 1724">
        <g id="Group_1723" data-name="Group 1723">
          <g id="Group_1722" data-name="Group 1722">
            <path id="Path_887" data-name="Path 887" d="M4794.184,3070.388a7.795,7.795,0,0,0-12.267,9.4l-1.105,4.038,4.131-1.083a7.792,7.792,0,0,0,3.724.948h0a7.794,7.794,0,0,0,5.513-13.3Zm-5.513,11.988h0a6.472,6.472,0,0,1-3.3-.9l-.237-.14-2.452.643.655-2.39-.155-.245a6.479,6.479,0,1,1,5.488,3.035Zm3.553-4.85c-.194-.1-1.153-.568-1.331-.633s-.309-.1-.438.1-.5.634-.616.764-.228.146-.422.049a5.32,5.32,0,0,1-1.566-.966,5.887,5.887,0,0,1-1.083-1.349c-.113-.2-.012-.3.086-.4s.194-.228.292-.341a1.337,1.337,0,0,0,.194-.325.358.358,0,0,0-.016-.341c-.048-.1-.438-1.055-.6-1.445s-.319-.328-.439-.334-.243-.007-.373-.007a.716.716,0,0,0-.519.243,2.185,2.185,0,0,0-.681,1.624,3.784,3.784,0,0,0,.795,2.014,8.683,8.683,0,0,0,3.327,2.939,11.279,11.279,0,0,0,1.11.411,2.672,2.672,0,0,0,1.226.077,2.008,2.008,0,0,0,1.315-.926,1.618,1.618,0,0,0,.113-.925C4792.548,3077.672,4792.418,3077.623,4792.224,3077.525Z" transform="translate(-4780.811 -3068.103)" fill="#fff"/>
          </g>
        </g>
      </g>
    </g>
  </g>
</svg>
