<svg id="Social_Media" data-name="Social Media" xmlns="http://www.w3.org/2000/svg" width="24" height="24" viewBox="0 0 24 24">
  <g id="Group_1766" data-name="Group 1766">
    <g id="Group_1721" data-name="Group 1721">
      <g id="Group_1720" data-name="Group 1720">
        <g id="Group_1719" data-name="Group 1719">
          <circle id="Ellipse_49" data-name="Ellipse 49" cx="12" cy="12" r="12" fill="#fff"/>
        </g>
      </g>
    </g>
    <g id="logo" transform="translate(5.525 5.13)">
      <g id="Group_1724" data-name="Group 1724">
        <g id="Group_1723" data-name="Group 1723">
          <g id="Group_1722" data-name="Group 1722">
            <path id="Path_887" data-name="Path 887" d="M4792.273,3070.062a6.681,6.681,0,0,0-10.515,8.058l-.948,3.461,3.542-.929a6.677,6.677,0,0,0,3.192.813h0a6.681,6.681,0,0,0,4.726-11.4Zm-4.726,10.275h0a5.549,5.549,0,0,1-2.827-.774l-.2-.12-2.1.551.561-2.048-.132-.21a5.553,5.553,0,1,1,4.7,2.6Zm3.045-4.157c-.167-.083-.988-.487-1.14-.542s-.265-.083-.376.083-.431.543-.528.655-.2.125-.362.042a4.561,4.561,0,0,1-1.342-.828,5.047,5.047,0,0,1-.929-1.156c-.1-.167-.01-.257.074-.34s.167-.195.25-.292a1.154,1.154,0,0,0,.167-.279.307.307,0,0,0-.014-.292c-.042-.083-.375-.9-.514-1.239s-.273-.281-.376-.286-.208-.006-.32-.006a.613.613,0,0,0-.445.208,1.872,1.872,0,0,0-.583,1.392,3.245,3.245,0,0,0,.681,1.727,7.444,7.444,0,0,0,2.852,2.52,9.76,9.76,0,0,0,.951.352,2.293,2.293,0,0,0,1.051.066,1.721,1.721,0,0,0,1.127-.794,1.382,1.382,0,0,0,.1-.793C4790.872,3076.3,4790.76,3076.263,4790.593,3076.179Z" transform="translate(-4780.811 -3068.103)" fill="#25d366"/>
          </g>
        </g>
      </g>
    </g>
  </g>
</svg>
