<svg id="Social_Media" data-name="Social Media" xmlns="http://www.w3.org/2000/svg" width="28" height="28" viewBox="0 0 28 28">
  <g id="Group_1764" data-name="Group 1764" transform="translate(2.427 2.358)">
    <circle id="Ellipse_40" data-name="Ellipse 40" cx="14" cy="14" r="14" transform="translate(-2.427 -2.358)" fill="red"/>
    <g id="Group_1704" data-name="Group 1704" transform="translate(3.037 5.629)">
      <path id="Path_871" data-name="Path 871" d="M4796.267,2027.807a2.146,2.146,0,0,0-1.509-1.519,62.122,62.122,0,0,0-13.34,0,2.144,2.144,0,0,0-1.509,1.519,24.141,24.141,0,0,0,0,8.272,2.145,2.145,0,0,0,1.509,1.519,62.122,62.122,0,0,0,13.34,0,2.146,2.146,0,0,0,1.509-1.519,24.141,24.141,0,0,0,0-8.272Z" transform="translate(-4779.551 -2025.929)" fill="#fff"/>
      <path id="Path_872" data-name="Path 872" d="M4804.849,2043.375l3.952-2.248-3.952-2.249Z" transform="translate(-4797.784 -2035.112)" fill="red"/>
    </g>
  </g>
</svg>
