<svg id="access" xmlns="http://www.w3.org/2000/svg" width="28" height="28" viewBox="0 0 28 28">
  <circle id="Ellipse_110" data-name="Ellipse 110" cx="14" cy="14" r="14" fill="#44444f"/>
  <path id="Path_1473" data-name="Path 1473" d="M15.422,7.419a.459.459,0,0,0-.414-.124l-3.116.745a.435.435,0,0,0-.207.731l.717.717-2.344,2.344a2.035,2.035,0,0,0-.4-.165V6.8h1.02a.44.44,0,0,0,.386-.221.423.423,0,0,0-.014-.441L9.37,3.407a.438.438,0,0,0-.745,0L6.943,6.123a.457.457,0,0,0-.014.441.44.44,0,0,0,.386.221h1.02v4.881a2.035,2.035,0,0,0-.4.165L5.592,9.487l.717-.717a.443.443,0,0,0,.11-.427.418.418,0,0,0-.317-.3L2.986,7.309a.425.425,0,0,0-.414.124.459.459,0,0,0-.124.414l.731,3.116a.441.441,0,0,0,.3.317.382.382,0,0,0,.124.014.46.46,0,0,0,.317-.124l.717-.717L6.984,12.8a2.275,2.275,0,1,0,4.026,0l2.344-2.344.717.717a.437.437,0,0,0,.317.124.382.382,0,0,0,.124-.014.418.418,0,0,0,.3-.317l.731-3.116A.516.516,0,0,0,15.422,7.419Z" transform="translate(24.2 5.193) rotate(90)" fill="#fafafb"/>
</svg>
