<svg xmlns="http://www.w3.org/2000/svg" width="48" height="48" viewBox="0 0 48 48">
  <g id="Group_2710" data-name="Group 2710" transform="translate(-4 -4)">
    <rect id="Rectangle_369" data-name="Rectangle 369" width="48" height="48" rx="24" transform="translate(4 4)" fill="#fafafb"/>
    <path id="Union_7" data-name="Union 7" d="M4.859,11.664c.585-3.493,2.413-5.529,5.508-5.529s4.921,2.061,5.508,5.529c.219,1.333-2.463,1.867-5.508,1.867S4.64,13,4.859,11.664ZM.01,10.331c.438-2.621,1.8-4.148,4.117-4.148a3.769,3.769,0,0,1,2.242.655l-.219.218a8.105,8.105,0,0,0-2,4.486.477.477,0,0,0-.024.194C1.862,11.736-.161,11.348.01,10.331Zm16.617,1.381c0-.047-.024-.12-.024-.194a8.271,8.271,0,0,0-2-4.462,2.188,2.188,0,0,1-.245-.218A3.722,3.722,0,0,1,16.6,6.183c2.34,0,3.7,1.553,4.118,4.148.165.988-1.712,1.382-3.9,1.382ZM7.589,2.764a2.778,2.778,0,1,1,2.778,2.765A2.77,2.77,0,0,1,7.589,2.764Zm6.944.63A2.072,2.072,0,1,1,16.6,5.455,2.066,2.066,0,0,1,14.532,3.394Zm-12.475,0A2.071,2.071,0,1,1,4.128,5.455,2.066,2.066,0,0,1,2.057,3.394Z" transform="translate(17.633 21.734)" fill="#17be7b"/>
  </g>
</svg>
