<svg xmlns="http://www.w3.org/2000/svg" width="73.345" height="75.267" viewBox="0 0 73.345 75.267">
  <g id="noun_analysis_853968" transform="translate(-2.4 -1.2)">
    <path id="Path_3097" data-name="Path 3097" d="M39.9,35.5H34.438a.594.594,0,0,0-.538.615V54.029a.548.548,0,0,0,.538.615H39.9a.594.594,0,0,0,.538-.615V36.192A.621.621,0,0,0,39.9,35.5Z" transform="translate(-7.282 -7.929)" fill="#292932"/>
    <path id="Path_3098" data-name="Path 3098" d="M34.537,1.2A32.137,32.137,0,1,0,50.989,60.86l1.461-.923L67.6,75.084A4.767,4.767,0,0,0,75.745,71.7a4.971,4.971,0,0,0-1.384-3.383L59.677,53.48l1.461-2.23A32.046,32.046,0,0,0,34.537,1.2Zm0,56.2A24.141,24.141,0,1,1,58.678,33.26,24.182,24.182,0,0,1,34.537,57.4Z" transform="translate(0 0)" fill="#292932"/>
    <path id="Path_3099" data-name="Path 3099" d="M51.7,42.9H46.238a.594.594,0,0,0-.538.615V55.739a.548.548,0,0,0,.538.615H51.7a.594.594,0,0,0,.538-.615V43.515A.66.66,0,0,0,51.7,42.9Z" transform="translate(-10.01 -9.64)" fill="#292932"/>
    <path id="Path_3100" data-name="Path 3100" d="M28.5,47H23.038a.514.514,0,0,0-.538.461v9.38c0,.307.231.461.538.461H28.5a.514.514,0,0,0,.538-.461v-9.3A.525.525,0,0,0,28.5,47Z" transform="translate(-4.647 -10.588)" fill="#292932"/>
    <path id="Path_3101" data-name="Path 3101" d="M63.4,27H57.938a.594.594,0,0,0-.538.615V52.064a.548.548,0,0,0,.538.615H63.4a.594.594,0,0,0,.538-.615V27.692A.621.621,0,0,0,63.4,27Z" transform="translate(-12.715 -5.964)" fill="#292932"/>
  </g>
</svg>
