<svg xmlns="http://www.w3.org/2000/svg" width="32" height="32" viewBox="0 0 32 32">
  <g id="Group_13443" data-name="Group 13443" transform="translate(-1171 -1543)">
    <g id="Input" transform="translate(1171 1543)" fill="rgba(0,180,154,0)" stroke="#292932" stroke-width="1" opacity="0">
      <rect width="32" height="32" rx="8" stroke="none"/>
      <rect x="0.5" y="0.5" width="31" height="31" rx="7.5" fill="none"/>
    </g>
    <g id="noun_Brush_3821463" transform="translate(1174.433 1546.677)">
      <path id="Path_1504" data-name="Path 1504" d="M4.536,19.99a3.59,3.59,0,0,0,1.437-2.251A4.329,4.329,0,0,1,7.327,15.12a2.777,2.777,0,0,1,1.819-.641h.2c.807-1.141,1.674-2.231,2.586-3.28q.953-1.088,1.979-2.116.508-.508,1.049-1.016c.355-.328.721-.652,1.092-.968l.159-.134.135-.034a2.41,2.41,0,0,1,.86-.047,1.44,1.44,0,0,1,.379.1l.044.019.042.02.02.012.022.01.041.024.02.012L17.8,7.1l.039.025h.01l.019.015.037.027.036.032.019.015h0l.032.034.017.015.015.019.032.034.015.019.014.019.03.037.027.039a1.547,1.547,0,0,1,.169.35,2.39,2.39,0,0,1,.127.846,1.526,1.526,0,0,1-.015.261c-.037.059-.074.118-.113.178-.262.41-.533.814-.812,1.21s-.565.789-.858,1.175Q15.757,12.6,14.8,13.693q-1.026,1.171-2.139,2.27c-.041-.058-.085-.115-.129-.169a3.981,3.981,0,0,0-1.214-1.016c-.085-.046-.169-.086-.256-.125a.169.169,0,0,0-.169.274c.068.056.134.113.2.169a3.432,3.432,0,0,1,.767,1.09h0a3.226,3.226,0,0,1,.178.455,3.17,3.17,0,0,1,.118.657v.186a3.047,3.047,0,0,1-3.047,3.021h-4.4a.291.291,0,0,1-.173-.516ZM20.266,4.181c-.677.4-1.623.951-1.875,1.129q-.538.372-1.054.77A2.062,2.062,0,0,1,17.9,6.2l.076.029.073.032.037.017.036.019.071.039.036.02.034.022.069.044.017.01.015.014.032.024.066.049.061.052.03.027.015.014.014.015.058.058.029.029.027.03.052.063a.225.225,0,0,1,.024.032l.025.032.047.064c.014.024.029.046.042.068a2.067,2.067,0,0,1,.247.579c.015.056.027.113.039.169.222-.386.438-.779.645-1.185.14-.274.565-1.295.868-2.031a.291.291,0,0,0-.42-.355Z" transform="translate(0 0)" fill="#fafafb"/>
    </g>
  </g>
</svg>
