<svg xmlns="http://www.w3.org/2000/svg" width="32" height="32" viewBox="0 0 32 32">
  <g id="Avatar" transform="translate(0 -13.996)">
    <circle id="Ellipse_110" data-name="Ellipse 110" cx="16" cy="16" r="16" transform="translate(0 13.996)" fill="#44444f"/>
    <g id="Group" transform="translate(-0.152 17.85)">
      <path id="Compound_Path" data-name="Compound Path" d="M19.527,12.894l.271-.217a.541.541,0,0,0,.217-.433V10.711a1.444,1.444,0,0,0,.325-.487,1.083,1.083,0,0,0,.848-1.065v-.6a1.083,1.083,0,0,0-.794-1.047,1.263,1.263,0,0,0-.451-.65A3.753,3.753,0,0,0,16.261,3.8h-.217a3.753,3.753,0,0,0-3.7,3.068,1.263,1.263,0,0,0-.451.65A1.083,1.083,0,0,0,11.1,8.564v.6a1.083,1.083,0,0,0,.848,1.065,1.444,1.444,0,0,0,.325.487v1.534a.541.541,0,0,0,.235.433l.289.217a4.15,4.15,0,0,0-4.1,4.15v1.1a2.346,2.346,0,0,0,2.346,2.346H21.259A2.346,2.346,0,0,0,23.6,18.146v-1.1a4.15,4.15,0,0,0-4.079-4.15ZM16.044,4.883h.235a2.689,2.689,0,0,1,2.508,1.732H13.554A2.689,2.689,0,0,1,16.044,4.883Zm-3.1,3a.18.18,0,0,1,.18-.18h6.063a.18.18,0,0,1,.18.18v1.8a.361.361,0,0,1-.361.361H17.145L16.6,9.231a.541.541,0,0,0-.9,0l-.541.812H13.3a.361.361,0,0,1-.361-.361Zm6.009,3.248v.848L17,13.4H15.3l-1.949-1.426v-.848h2.093a.541.541,0,0,0,.451-.235l.253-.379.253.379a.541.541,0,0,0,.451.235Zm3.573,7a1.263,1.263,0,0,1-1.263,1.263H11.046a1.263,1.263,0,0,1-1.263-1.263V17.045a3.068,3.068,0,0,1,3.068-3.068h1.426l.541.4a.541.541,0,0,0,.325.108h2.021a.541.541,0,0,0,.325-.108l.541-.4h1.426a3.068,3.068,0,0,1,3.068,3.068Z" transform="translate(0 0)" fill="#fff"/>
    </g>
  </g>
</svg>
