<svg xmlns="http://www.w3.org/2000/svg" width="24" height="24" viewBox="0 0 24 24">
  <g id="Group_13384" data-name="Group 13384" transform="translate(-700 -807)">
    <rect id="Rectangle_216" data-name="Rectangle 216" width="24" height="24" transform="translate(700 807)" fill="#b5b5be" opacity="0"/>
    <g id="Group" transform="translate(694.222 804.916)">
      <path id="Compound_Path" data-name="Compound Path" d="M21.889,14.878l.33-.264a.659.659,0,0,0,.264-.528V12.219a1.759,1.759,0,0,0,.4-.593,1.319,1.319,0,0,0,1.033-1.3V9.6a1.319,1.319,0,0,0-.967-1.275,1.539,1.539,0,0,0-.55-.791A4.572,4.572,0,0,0,17.91,3.8h-.264A4.572,4.572,0,0,0,13.14,7.537a1.539,1.539,0,0,0-.55.791A1.319,1.319,0,0,0,11.623,9.6v.725a1.319,1.319,0,0,0,1.033,1.3,1.759,1.759,0,0,0,.4.593v1.868a.659.659,0,0,0,.286.528l.352.264A5.056,5.056,0,0,0,8.7,19.934v1.341a2.858,2.858,0,0,0,2.858,2.858H24a2.858,2.858,0,0,0,2.858-2.858V19.934a5.056,5.056,0,0,0-4.969-5.056Zm-4.242-9.76h.286a3.275,3.275,0,0,1,3.055,2.11H14.613A3.275,3.275,0,0,1,17.646,5.119ZM13.866,8.768a.22.22,0,0,1,.22-.22h7.386a.22.22,0,0,1,.22.22v2.2a.44.44,0,0,1-.44.44H18.987l-.659-.989a.659.659,0,0,0-1.1,0l-.659.989H14.305a.44.44,0,0,1-.44-.44Zm7.32,3.957v1.033l-2.374,1.737H16.745l-2.374-1.737V12.724h2.55a.659.659,0,0,0,.55-.286l.308-.462.308.462a.659.659,0,0,0,.55.286Zm4.352,8.529A1.539,1.539,0,0,1,24,22.792H11.558a1.539,1.539,0,0,1-1.539-1.539V19.934A3.737,3.737,0,0,1,13.756,16.2h1.737l.659.484a.659.659,0,0,0,.4.132h2.462a.659.659,0,0,0,.4-.132l.659-.484H21.8a3.737,3.737,0,0,1,3.737,3.737Z" transform="translate(0 0)" fill="#d5d5dc"/>
    </g>
  </g>
</svg>
