<svg xmlns="http://www.w3.org/2000/svg" xmlns:xlink="http://www.w3.org/1999/xlink" width="56" height="56" viewBox="0 0 56 56">
  <defs>
    <filter id="Union_5" x="9.792" y="11.004" width="37.754" height="41.555" filterUnits="userSpaceOnUse">
      <feOffset dy="3" input="SourceAlpha"/>
      <feGaussianBlur stdDeviation="3" result="blur"/>
      <feFlood flood-opacity="0.2"/>
      <feComposite operator="in" in2="blur"/>
      <feComposite in="SourceGraphic"/>
    </filter>
  </defs>
  <g id="Group_1783" data-name="Group 1783" transform="translate(-455 -371)">
    <circle id="ZeonDownloader_-_1065697716" data-name="ZeonDownloader - 1065697716" cx="28" cy="28" r="28" transform="translate(455 371)" fill="#292932"/>
    <g id="Group_4109" data-name="Group 4109" transform="translate(-635.685 363.314)">
      <g id="Group_1333" data-name="Group 1333" transform="translate(1106.653 23.653)">
        <g id="Rectangle_108" data-name="Rectangle 108" transform="translate(0.032 0.034)" fill="#f5bd40" stroke="#707070" stroke-width="1" opacity="0">
          <rect width="25" height="25" stroke="none"/>
          <rect x="0.5" y="0.5" width="24" height="24" fill="none"/>
        </g>
        <g transform="matrix(1, 0, 0, 1, -15.97, -15.97)" filter="url(#Union_5)">
          <path id="Union_5-2" data-name="Union 5" d="M6.707,20.329h6.339a3.17,3.17,0,1,1-6.339,0ZM.733,18.548A.729.729,0,0,1,0,17.8V16.761a1.751,1.751,0,0,1,.733-1.439l.728-.52a5.906,5.906,0,0,0,2.489-4.316l.243-2.828A5.761,5.761,0,0,1,8.559,2.55V1.339a1.318,1.318,0,1,1,2.636,0V2.55A5.756,5.756,0,0,1,15.56,7.658l.243,2.828A5.988,5.988,0,0,0,18.291,14.8l.734.52a1.76,1.76,0,0,1,.728,1.439V17.8a.725.725,0,0,1-.728.748Z" transform="translate(18.79 17)" fill="#f5bd40"/>
        </g>
      </g>
    </g>
  </g>
</svg>
