<svg id="bookmark" xmlns="http://www.w3.org/2000/svg" width="28" height="28" viewBox="0 0 28 28">
  <circle id="Ellipse_110" data-name="Ellipse 110" cx="14" cy="14" r="14" fill="#44444f"/>
  <g id="noun_bookmark_1533173" transform="translate(-11.32 -1.618)">
    <g id="Group" transform="translate(21.5 10.3)">
      <path id="Path" d="M28.733,10.3H21.9a.415.415,0,0,0-.4.4v9.832a.415.415,0,0,0,.2.348.429.429,0,0,0,.4,0l3.215-1.889,3.215,1.889a.5.5,0,0,0,.2.054.563.563,0,0,0,.2-.054.415.415,0,0,0,.2-.348V10.7A.415.415,0,0,0,28.733,10.3Z" transform="translate(-21.5 -10.3)" fill="#fafafb"/>
    </g>
  </g>
</svg>
