<svg xmlns="http://www.w3.org/2000/svg" width="32" height="32" viewBox="0 0 32 32">
  <g id="Button" transform="translate(-4 -4)">
    <rect id="Button-2" data-name="Button" width="32" height="32" rx="4" transform="translate(4 4)" fill="#44444f"/>
    <g id="noun_bookmark_1533173" transform="translate(-5.765 3.76)">
      <g id="Group" transform="translate(21.5 10.3)">
        <path id="Path" d="M29.58,10.3H21.949a.464.464,0,0,0-.449.449V21.732a.464.464,0,0,0,.224.389.479.479,0,0,0,.449,0l3.591-2.11,3.591,2.11a.554.554,0,0,0,.224.06.628.628,0,0,0,.224-.06.464.464,0,0,0,.224-.389V10.749A.464.464,0,0,0,29.58,10.3Z" transform="translate(-21.5 -10.3)" fill="#fafafb"/>
      </g>
    </g>
  </g>
</svg>
