<svg width="28" height="28" viewBox="0 0 28 28" fill="none" xmlns="http://www.w3.org/2000/svg">
<rect width="28" height="28" rx="3" fill="#44444F"/>
<path d="M17.4129 8.68201H10.5799C10.475 8.68573 10.3754 8.72907 10.3012 8.8033C10.227 8.87752 10.1837 8.97711 10.1799 9.08201V18.914C10.1811 18.9842 10.2001 19.0529 10.2351 19.1138C10.27 19.1747 10.3199 19.2256 10.3799 19.262C10.4416 19.2945 10.5102 19.3115 10.5799 19.3115C10.6496 19.3115 10.7183 19.2945 10.7799 19.262L13.9949 17.373L17.2099 19.262C17.2721 19.2938 17.3402 19.3122 17.4099 19.316C17.4794 19.3105 17.5472 19.2922 17.6099 19.262C17.67 19.2256 17.7198 19.1747 17.7548 19.1138C17.7898 19.0529 17.8087 18.9842 17.8099 18.914V9.08201C17.8063 8.9776 17.7633 8.87843 17.6897 8.80428C17.6162 8.73014 17.5173 8.68647 17.4129 8.68201V8.68201Z" fill="#FAFAFB"/>
</svg>
