<svg id="Group_13348" data-name="Group 13348" xmlns="http://www.w3.org/2000/svg" width="24" height="24" viewBox="0 0 24 24">
  <rect id="Input" width="24" height="24" rx="2" fill="#292932"/>
  <g id="Group_13299" data-name="Group 13299" transform="translate(8.113 6.828)">
    <g id="Group_4027" data-name="Group 4027">
      <path id="Path" d="M28.534,10.3H21.891a.4.4,0,0,0-.391.391v9.56a.4.4,0,0,0,.2.339.417.417,0,0,0,.391,0l3.126-1.837,3.126,1.837a.482.482,0,0,0,.2.052.547.547,0,0,0,.2-.052.4.4,0,0,0,.2-.339v-9.56A.4.4,0,0,0,28.534,10.3Z" transform="translate(-21.5 -10.3)" fill="#e2e2ea"/>
    </g>
  </g>
</svg>
