<svg xmlns="http://www.w3.org/2000/svg" width="11.159" height="15.869" viewBox="0 0 11.159 15.869">
  <g id="Group_4835" data-name="Group 4835" transform="translate(0.004 0)">
    <g id="Group_4835-2" data-name="Group 4835" transform="translate(-0.004)">
      <path id="Path_3138" data-name="Path 3138" d="M78.339,1142.067l-.533,9.357a.524.524,0,0,1-.557.444H73.9a.524.524,0,0,1-.557-.444l-.533-9.357H70.555c-.471,0-.73-.457-.432-.762l5.021-5.134a.63.63,0,0,1,.864,0l5.021,5.134c.3.3.039.762-.432.762Zm2.256,9.365a.533.533,0,0,1-.593.436.5.5,0,0,1-.521-.5l.558-7.234a.533.533,0,0,1,.593-.436.5.5,0,0,1,.521.5Zm-8.926-.06a.5.5,0,0,1-.521.5.533.533,0,0,1-.593-.436L70,1144.2a.5.5,0,0,1,.521-.5.533.533,0,0,1,.593.436Z" transform="translate(-69.996 -1136)" fill="#fafafb"/>
    </g>
  </g>
</svg>
