<svg xmlns="http://www.w3.org/2000/svg" width="32" height="32" viewBox="0 0 32 32">
  <g id="Case" transform="translate(0 -13.996)">
    <circle id="Ellipse_110" data-name="Ellipse 110" cx="16" cy="16" r="16" transform="translate(0 13.996)" fill="#44444f"/>
    <g id="Group_5107" data-name="Group 5107" transform="translate(-18.6 2.196)">
      <path id="Path_1437" data-name="Path 1437" d="M16.806,8.982H14.118V8.274A1.864,1.864,0,0,0,12.244,6.4H9.556A1.875,1.875,0,0,0,7.681,8.274v.707H4.993A2.491,2.491,0,0,0,2.5,11.475v7.852A2.491,2.491,0,0,0,4.993,21.82h11.8a2.491,2.491,0,0,0,2.493-2.493V11.475A2.464,2.464,0,0,0,16.806,8.982ZM9.025,8.257a.532.532,0,0,1,.531-.531h2.706a.532.532,0,0,1,.531.531v.707H9.025ZM4.993,10.326h11.8a1.147,1.147,0,0,1,1.149,1.149v1.592a24.271,24.271,0,0,1-4.969.831v-.124a1.147,1.147,0,0,0-1.149-1.149H9.963a1.147,1.147,0,0,0-1.149,1.149V13.9a24.479,24.479,0,0,1-4.969-.831V11.493A1.162,1.162,0,0,1,4.993,10.326Zm6.649,3.643v1.273H10.175V13.969Zm5.164,6.508H4.993a1.147,1.147,0,0,1-1.149-1.149V14.464a24.983,24.983,0,0,0,4.969.778v.195a1.147,1.147,0,0,0,1.149,1.149h1.857a1.147,1.147,0,0,0,1.149-1.149v-.195a26.338,26.338,0,0,0,4.969-.778v4.863A1.132,1.132,0,0,1,16.806,20.476Z" transform="translate(23.709 13.689)" fill="#fff"/>
    </g>
  </g>
</svg>
