<svg xmlns="http://www.w3.org/2000/svg" width="40" height="40" viewBox="0 0 40 40">
  <g id="case" transform="translate(-2096 18431)">
    <circle id="Ellipse_11" data-name="Ellipse 11" cx="20" cy="20" r="20" transform="translate(2096 -18431)" fill="#7735d5"/>
    <path id="Path_1490" data-name="Path 1490" d="M6.29.9h5.392V2.7h.9V.9a.849.849,0,0,0-.9-.9H6.29a.849.849,0,0,0-.9.9V2.7h.9Zm10.784,2.7H.9a.849.849,0,0,0-.9.9V8.088a.849.849,0,0,0,.9.9H17.074a.849.849,0,0,0,.9-.9V4.493A.849.849,0,0,0,17.074,3.595Zm-5.392,7.189a.849.849,0,0,1-.9.9H7.189a.849.849,0,0,1-.9-.9v-.9H.9v7.189a.849.849,0,0,0,.9.9H16.175a.849.849,0,0,0,.9-.9V9.885H11.682Z" transform="translate(2107.014 -18420.572)" fill="#fafafb"/>
  </g>
</svg>
