<svg width="8" height="8" viewBox="0 0 8 8" fill="none" xmlns="http://www.w3.org/2000/svg">
<path d="M6.682 7.398L4.003 4.715L1.318 7.398C1.2714 7.44776 1.21527 7.48763 1.15293 7.51524C1.0906 7.54285 1.02335 7.55763 0.955184 7.5587C0.88702 7.55977 0.819337 7.54711 0.756168 7.52147C0.693 7.49583 0.635637 7.45774 0.587499 7.40947C0.53936 7.3612 0.50143 7.30373 0.475969 7.24049C0.450507 7.17725 0.438036 7.10953 0.439296 7.04137C0.440556 6.97321 0.455522 6.906 0.483304 6.84374C0.511086 6.78148 0.551114 6.72546 0.601004 6.679L3.286 3.997L0.602004 1.31C0.512104 1.21373 0.463113 1.0863 0.465366 0.954596C0.46762 0.822894 0.520941 0.697217 0.614082 0.604076C0.707223 0.510935 0.8329 0.457614 0.964602 0.455361C1.0963 0.453107 1.22373 0.502098 1.32 0.591998L4.004 3.279L6.682 0.603998C6.7286 0.554237 6.78474 0.514366 6.84707 0.486758C6.90941 0.45915 6.97666 0.44437 7.04482 0.4433C7.11299 0.44223 7.18067 0.45489 7.24384 0.480528C7.30701 0.506165 7.36437 0.544255 7.41251 0.592528C7.46065 0.6408 7.49858 0.698269 7.52404 0.761509C7.5495 0.824749 7.56197 0.892466 7.56071 0.960628C7.55945 1.02879 7.54449 1.096 7.5167 1.15826C7.48892 1.22051 7.44889 1.27654 7.399 1.323L4.722 3.998L7.4 6.68C7.44983 6.72653 7.48978 6.78261 7.51748 6.8449C7.54518 6.9072 7.56005 6.97443 7.56122 7.0426C7.56238 7.11076 7.54982 7.17846 7.52427 7.24167C7.49872 7.30487 7.46071 7.36229 7.4125 7.4105C7.3643 7.4587 7.30688 7.49671 7.24367 7.52226C7.18047 7.54781 7.11277 7.56038 7.0446 7.55921C6.97644 7.55805 6.9092 7.54317 6.84691 7.51547C6.78462 7.48778 6.72853 7.44783 6.682 7.398V7.398Z" fill="white"/>
</svg>
