<svg xmlns="http://www.w3.org/2000/svg" width="24" height="24" viewBox="0 0 24 24">
  <g id="Group_13399" data-name="Group 13399" transform="translate(-481.553 -1020.129)">
    <rect id="Rectangle_749" data-name="Rectangle 749" width="24" height="24" transform="translate(481.553 1020.129)" fill="#92929d" opacity="0"/>
    <path id="Path_1498" data-name="Path 1498" d="M14.593,29.94A1.7,1.7,0,0,1,13.155,28.2V17.857h-.3a1.409,1.409,0,0,0-1.421,1.4V30.27a1.408,1.408,0,0,0,1.421,1.4h8.664a1.409,1.409,0,0,0,1.421-1.4v-.33Z" transform="translate(475.069 1008.891)" fill="#fafafb"/>
    <path id="Path_1499" data-name="Path 1499" d="M31.717,9.192V5h-6.01a1.409,1.409,0,0,0-1.421,1.4V17.413a1.409,1.409,0,0,0,1.421,1.4h8.664a1.409,1.409,0,0,0,1.421-1.4V9.189Zm.719-3.7V8.452l2.877,0Z" transform="translate(464.514 1019.445)" fill="#fafafb"/>
  </g>
</svg>
