<svg xmlns="http://www.w3.org/2000/svg" width="56" height="56" viewBox="0 0 56 56">
  <g id="Group_2710" data-name="Group 2710" transform="translate(-93 -31)">
    <rect id="Rectangle_369" data-name="Rectangle 369" width="56" height="56" rx="28" transform="translate(93 31)" fill="#1c1c24"/>
    <g id="Group_2711" data-name="Group 2711" transform="translate(71.102 -125.39)">
      <g id="Group_1904" data-name="Group 1904" transform="translate(40.5 172.155)">
        <path id="Path_984" data-name="Path 984" d="M57.565,183.883a1.675,1.675,0,0,0,1.673-1.673v-5.665a1.67,1.67,0,0,0-.745-1.392l-1.71-1.14a1,1,0,0,0-1.114,1.67l1.561,1.041v5.151H55.892v-.466a2.677,2.677,0,0,0-2.677-2.677H46.523a2.677,2.677,0,0,0-2.677,2.677v.466H42.508v-5.151l1.561-1.041a1,1,0,0,0-1.114-1.67l-1.71,1.14a1.67,1.67,0,0,0-.745,1.392v5.665a1.675,1.675,0,0,0,1.673,1.673h1.673v2.008H42.173a1.675,1.675,0,0,0-1.673,1.673v6.314a1.68,1.68,0,0,0,.812,1.434l3.022,1.813a.994.994,0,0,0,.515.143,1,1,0,0,0,.518-1.864l-2.859-1.715V187.9h1.338v2.936a2.677,2.677,0,0,0,1.338,2.318l2.844,1.642a.669.669,0,0,0,1-.58V183.883a.837.837,0,0,1,1.673,0v10.332a.669.669,0,0,0,1,.58l2.844-1.642a2.677,2.677,0,0,0,1.338-2.318V187.9h1.338v5.79L54.372,195.4a1,1,0,0,0,.518,1.864.994.994,0,0,0,.515-.143l3.021-1.813a1.679,1.679,0,0,0,.812-1.434v-6.314a1.675,1.675,0,0,0-1.673-1.673H55.892v-2.008Z" transform="translate(-40.5 -172.713)" fill="#fafafb"/>
        <path id="Path_985" data-name="Path 985" d="M55.63,173.615l-2.218-1.281a1.336,1.336,0,0,0-1.338,0l-2.218,1.281a1.337,1.337,0,0,0-.669,1.159V176.3a.335.335,0,0,0,.335.335h6.445a.334.334,0,0,0,.335-.335v-1.523A1.337,1.337,0,0,0,55.63,173.615Z" transform="translate(-43.373 -172.154)" fill="#fafafb"/>
      </g>
    </g>
  </g>
</svg>
