<svg id="_123" data-name="123" xmlns="http://www.w3.org/2000/svg" width="24" height="32" viewBox="0 0 24 32">
  <path id="Shape" d="M25,30.157A1.846,1.846,0,0,1,23.153,32H2.845A1.846,1.846,0,0,1,1,30.157V1.85A1.847,1.847,0,0,1,2.845,0H17l8,8.044v22.11Z" transform="translate(-0.999 -0.003)" fill="#292932"/>
  <path id="Shape-2" data-name="Shape" d="M27.1,8.146H20.61A1.612,1.612,0,0,1,19,6.534V0l8.1,8.141Z" transform="translate(-3.138 -0.003)" fill="#dbecff"/>
  <path id="Path_3261" data-name="Path 3261" d="M6.222-2.1A2.7,2.7,0,0,1,5.364-.31a2.812,2.812,0,0,1-1.92.632A2.582,2.582,0,0,1,1.364-.61,3.746,3.746,0,0,1,.581-3.1v-.7A4.175,4.175,0,0,1,.946-5.6,2.725,2.725,0,0,1,1.98-6.792a2.879,2.879,0,0,1,1.55-.415A2.648,2.648,0,0,1,5.4-6.555a2.728,2.728,0,0,1,.82,1.8H5.251a2.1,2.1,0,0,0-.546-1.268A1.655,1.655,0,0,0,3.53-6.412a1.729,1.729,0,0,0-1.452.684A3.14,3.14,0,0,0,1.552-3.78v.71a3.228,3.228,0,0,0,.5,1.9,1.61,1.61,0,0,0,1.394.7A1.859,1.859,0,0,0,4.68-.834,2.025,2.025,0,0,0,5.251-2.1ZM9.7-3.045a4.543,4.543,0,0,1-1.809-.878,1.678,1.678,0,0,1-.566-1.286,1.772,1.772,0,0,1,.692-1.432,2.75,2.75,0,0,1,1.8-.566,3,3,0,0,1,1.346.292,2.213,2.213,0,0,1,.916.805A2.059,2.059,0,0,1,12.4-4.988h-.971a1.333,1.333,0,0,0-.423-1.044,1.723,1.723,0,0,0-1.193-.38A1.762,1.762,0,0,0,8.7-6.1a1.048,1.048,0,0,0-.4.873.943.943,0,0,0,.38.757A3.73,3.73,0,0,0,9.974-3.9a5.989,5.989,0,0,1,1.429.566,2.169,2.169,0,0,1,.765.722,1.843,1.843,0,0,1,.249.971,1.712,1.712,0,0,1-.694,1.427A2.961,2.961,0,0,1,9.866.321,3.444,3.444,0,0,1,8.457.032,2.371,2.371,0,0,1,7.448-.761,1.934,1.934,0,0,1,7.093-1.9h.971A1.262,1.262,0,0,0,8.555-.854a2.066,2.066,0,0,0,1.311.385,1.9,1.9,0,0,0,1.173-.312,1.013,1.013,0,0,0,.408-.85,1,1,0,0,0-.377-.833A4.351,4.351,0,0,0,9.7-3.045Zm6.381,1.983,2.093-6.044h1.057L16.513.221h-.855L12.946-7.106H14Z" transform="translate(2.165 25.994)" fill="#fff"/>
</svg>
