<svg xmlns="http://www.w3.org/2000/svg" width="56" height="56" viewBox="0 0 56 56">
  <g id="Group_2710" data-name="Group 2710" transform="translate(-93 -31)">
    <rect id="Rectangle_369" data-name="Rectangle 369" width="56" height="56" rx="28" transform="translate(93 31)" fill="#1c1c24"/>
    <g id="Group_2712" data-name="Group 2712" transform="translate(-130.498 -55.579)">
      <g id="Group_1914" data-name="Group 1914" transform="translate(241.097 102.812)">
        <g id="Group_1913" data-name="Group 1913">
          <path id="Path_990" data-name="Path 990" d="M247.845,133.261l-2.574-2.574h-1.25a.6.6,0,0,0-.6.6v2.391a.631.631,0,0,0,.018.089,2.986,2.986,0,0,0-2.345,2.914v.583a.3.3,0,0,0,.3.3h9.251v-3.511h-.9A2.672,2.672,0,0,1,247.845,133.261Zm11.7.5a.518.518,0,0,0,.017-.085v-2.391a.6.6,0,0,0-.6-.6h-1.237l-2.574,2.574a2.672,2.672,0,0,1-1.9.788h-.809v3.511H261.6a.3.3,0,0,0,.3-.3v-.583A2.987,2.987,0,0,0,259.543,133.761Z" transform="translate(-241.097 -114.027)" fill="#fafafb"/>
          <path id="Path_991" data-name="Path 991" d="M260.827,110.507H242.9a.9.9,0,1,0,0,1.793h1.036a1.122,1.122,0,0,0-.14.534v1.322a1.132,1.132,0,0,0,1.132,1.132h.661v1.032a2.389,2.389,0,0,0,.7,1.691l2.979,2.979a1.194,1.194,0,0,0,.845.35h3.5a1.194,1.194,0,0,0,.845-.35l2.979-2.979a2.389,2.389,0,0,0,.7-1.691v-1.032h.661a1.132,1.132,0,0,0,1.132-1.132v-1.322a1.122,1.122,0,0,0-.14-.534h1.036a.9.9,0,1,0,0-1.793Zm-12.252,5.379a1.793,1.793,0,1,1,1.793-1.793A1.793,1.793,0,0,1,248.574,115.886Zm6.574,0a1.793,1.793,0,1,1,1.793-1.793A1.793,1.793,0,0,1,255.149,115.886Zm1.825-11.217a2.347,2.347,0,0,0-3.22-1.666,4.823,4.823,0,0,1-3.785,0,2.347,2.347,0,0,0-3.217,1.653l-.968,4.059h12.133Z" transform="translate(-241.46 -102.812)" fill="#fafafb"/>
        </g>
      </g>
    </g>
  </g>
</svg>
