<svg xmlns="http://www.w3.org/2000/svg" width="32" height="32" viewBox="0 0 32 32">
  <g id="Cyber_mission" data-name="Cyber mission" transform="translate(0 -13.996)">
    <circle id="Ellipse_110" data-name="Ellipse 110" cx="16" cy="16" r="16" transform="translate(0 13.996)" fill="#44444f"/>
    <path id="social_engineering_" data-name="social engineering " d="M5.23,6.392A2.615,2.615,0,1,0,2.615,9.007,2.615,2.615,0,0,0,5.23,6.392ZM9.036,1.619a2.131,2.131,0,0,1,.581-1.3,3.786,3.786,0,0,0-4.1,2.292A4.013,4.013,0,0,1,9.036,1.619ZM4.243,9.8a3.726,3.726,0,0,1-2.453.28c1.266,2.618,4.306,3.915,6.345,3.387A5.407,5.407,0,0,1,4.243,9.8Zm8.54-1.079a3.2,3.2,0,1,0,3.2,3.2A3.2,3.2,0,0,0,12.784,8.716Zm0-1.162a4.379,4.379,0,0,1,.852.085c.012-.124.019-.249.019-.375a4.044,4.044,0,0,0-.618-2.148,3.179,3.179,0,0,1-3.8-1.9A4.063,4.063,0,0,0,6.155,5.087a3.752,3.752,0,0,1-.431,3.445,4.074,4.074,0,0,0,2.767,2.646A4.355,4.355,0,0,1,12.784,7.554Zm2.443-3.24s1.348,2.291.264,4.224a3.079,3.079,0,0,1,1.321,1.946A4.827,4.827,0,0,0,15.227,4.314ZM12.2,4.068a2.034,2.034,0,1,0-2.034-2.034A2.033,2.033,0,0,0,12.2,4.068Z" transform="translate(7.335 22.442)" fill="#fafafb"/>
  </g>
</svg>
