<svg width="28" height="28" viewBox="0 0 28 28" fill="none" xmlns="http://www.w3.org/2000/svg">
<rect width="28" height="28" fill="#5B282D"/>
<path d="M18.6934 19.9465L14.0052 15.2512L9.30645 19.9465C9.2249 20.0336 9.12666 20.1034 9.01757 20.1517C8.90849 20.2 8.7908 20.2258 8.67151 20.2277C8.55222 20.2296 8.43378 20.2074 8.32323 20.1626C8.21269 20.1177 8.1123 20.051 8.02806 19.9666C7.94382 19.8821 7.87744 19.7815 7.83288 19.6709C7.78833 19.5602 7.7665 19.4417 7.76871 19.3224C7.77091 19.2031 7.7971 19.0855 7.84572 18.9765C7.89434 18.8676 7.96439 18.7696 8.0517 18.6882L12.7504 13.9947L8.05345 9.2925C7.89612 9.12402 7.81039 8.90102 7.81433 8.67054C7.81827 8.44006 7.91159 8.22013 8.07458 8.05713C8.23758 7.89414 8.45751 7.80082 8.68799 7.79688C8.91847 7.79294 9.14147 7.87867 9.30995 8.036L14.0069 12.7382L18.6934 8.057C18.775 7.96992 18.8732 7.90014 18.9823 7.85183C19.0914 7.80351 19.2091 7.77765 19.3284 7.77577C19.4477 7.7739 19.5661 7.79606 19.6767 7.84092C19.7872 7.88579 19.8876 7.95245 19.9718 8.03692C20.0561 8.1214 20.1224 8.22197 20.167 8.33264C20.2116 8.44331 20.2334 8.56182 20.2312 8.6811C20.229 8.80038 20.2028 8.918 20.1542 9.02695C20.1056 9.13589 20.0355 9.23394 19.9482 9.31525L15.2634 13.9965L19.9499 18.69C20.0371 18.7714 20.1071 18.8696 20.1555 18.9786C20.204 19.0876 20.23 19.2053 20.2321 19.3245C20.2341 19.4438 20.2121 19.5623 20.1674 19.6729C20.1227 19.7835 20.0562 19.884 19.9718 19.9684C19.8875 20.0527 19.787 20.1192 19.6764 20.164C19.5658 20.2087 19.4473 20.2307 19.328 20.2286C19.2087 20.2266 19.091 20.2005 18.982 20.1521C18.873 20.1036 18.7749 20.0337 18.6934 19.9465V19.9465Z" fill="#EB4343"/>
</svg>
