<svg id="delete" xmlns="http://www.w3.org/2000/svg" width="28" height="28" viewBox="0 0 28 28">
  <circle id="Ellipse_110" data-name="Ellipse 110" cx="14" cy="14" r="14" fill="#eb4343"/>
  <path id="Path_1370" data-name="Path 1370" d="M9.671,2.157V9.5a1.525,1.525,0,0,1-1.53,1.5h-5.2a1.5,1.5,0,0,1-1.53-1.5V2.157H.6a.348.348,0,0,1,0-.7H3.088V1.078A1.1,1.1,0,0,1,4.191,0H6.9A1.1,1.1,0,0,1,8,1.078v.383H10.49a.348.348,0,0,1,0,.7ZM3.8,1.461H7.287V1.078A.391.391,0,0,0,6.9.7h-2.7a.391.391,0,0,0-.391.383Z" transform="translate(8.457 8.504)" fill="#fafafb"/>
</svg>
