<svg id="documents" xmlns="http://www.w3.org/2000/svg" width="28" height="28" viewBox="0 0 28 28">
  <circle id="Ellipse_110" data-name="Ellipse 110" cx="14" cy="14" r="14" fill="#44444f"/>
  <g id="noun_note_3846717" transform="translate(4.152 4.537)">
    <g id="Layer_52" data-name="Layer 52" transform="translate(4.64 3.41)">
      <path id="Path_1467" data-name="Path 1467" d="M13.439,3.41H7.16A2.52,2.52,0,0,0,4.64,5.93v8.05A2.52,2.52,0,0,0,7.16,16.5h4.515a.292.292,0,0,0,.137-.029h.007a.3.3,0,0,0,.108-.079.169.169,0,0,0,.05-.05L15.8,12.518l.05-.05c.014-.007.022-.022.036-.036a.633.633,0,0,0,.043-.072v-.007a.312.312,0,0,0,.029-.137V5.93a2.52,2.52,0,0,0-2.52-2.52ZM7.729,6.873H12.87a.36.36,0,0,1,0,.72H7.729a.36.36,0,0,1,0-.72Zm0,2.722H12.87a.36.36,0,0,1,0,.72H7.729a.36.36,0,0,1,0-.72Zm2.736,3.442H7.729a.36.36,0,0,1,0-.72h2.736a.36.36,0,0,1,0,.72Zm1.57,2.232v-.893a1.8,1.8,0,0,1,1.8-1.8h.893Z" transform="translate(-4.64 -3.41)" fill="#fafafb"/>
    </g>
  </g>
</svg>
