<svg xmlns="http://www.w3.org/2000/svg" width="24" height="24" viewBox="0 0 24 24">
  <g id="Group_13382" data-name="Group 13382" transform="translate(-418 -807)">
    <rect id="Rectangle_747" data-name="Rectangle 747" width="24" height="24" transform="translate(418 807)" fill="#b5b5be" opacity="0"/>
    <g id="Group_2653" data-name="Group 2653" transform="translate(281 570)">
      <g id="Path_139" data-name="Path 139" transform="translate(141 239)" fill="none" stroke-linejoin="round">
        <path d="M3,0h8.124c.1-.023,4.931,4.953,4.876,4.961V17a3,3,0,0,1-3,3H3a3,3,0,0,1-3-3V3A3,3,0,0,1,3,0Z" stroke="none"/>
        <path d="M 3 1.200000762939453 C 2.007479667663574 1.200000762939453 1.199999809265137 2.007480621337891 1.199999809265137 3.000001907348633 L 1.199999809265137 17.00000190734863 C 1.199999809265137 17.99252128601074 2.007479667663574 18.80000114440918 3 18.80000114440918 L 13 18.80000114440918 C 13.99251937866211 18.80000114440918 14.79999923706055 17.99252128601074 14.79999923706055 17.00000190734863 L 14.79999923706055 5.420163154602051 C 13.96202564239502 4.530551910400391 11.51808547973633 2.026567459106445 10.66634941101074 1.200000762939453 L 3 1.200000762939453 M 11.12429046630859 -8.20159912109375e-05 C 11.24140357971191 -0.0003814697265625 16.05407333374023 4.953139305114746 16 4.960941314697266 L 16 17.00000190734863 C 16 18.65685081481934 14.65684986114502 20.00000190734863 13 20.00000190734863 L 3 20.00000190734863 C 1.343149185180664 20.00000190734863 0 18.65685081481934 0 17.00000190734863 L 0 3.000001907348633 C 0 1.343141555786133 1.343149185180664 1.9073486328125e-06 3 1.9073486328125e-06 L 11.12353897094727 1.9073486328125e-06 C 11.12376117706299 -5.340576171875e-05 11.12401866912842 -8.0108642578125e-05 11.12429046630859 -8.20159912109375e-05 Z" stroke="none" fill="#e2e2ea"/>
      </g>
      <path id="Path_140" data-name="Path 140" d="M2606.689-19724.809s-3.255,1.221-4.449,0-.33-4.885-.33-4.885" transform="translate(-2450 19969)" fill="none" stroke="#e2e2ea" stroke-width="1.2"/>
      <path id="Path_142" data-name="Path 142" d="M2570.215-19721.437h6.948" transform="translate(-2424.689 19970.828)" fill="none" stroke="#e2e2ea" stroke-linecap="round" stroke-width="1.2"/>
      <path id="Path_143" data-name="Path 143" d="M2570.215-19721.437h6.948" transform="translate(-2424.689 19974.656)" fill="none" stroke="#e2e2ea" stroke-linecap="round" stroke-width="1.2"/>
    </g>
  </g>
</svg>
