<svg xmlns="http://www.w3.org/2000/svg" width="40" height="40" viewBox="0 0 40 40">
  <g id="Documents" transform="translate(-2096 18431)">
    <g id="Ellipse_11" data-name="Ellipse 11" transform="translate(2096 -18431)" fill="rgba(119,53,213,0)" stroke="#696974" stroke-width="1" opacity="0.4">
      <circle cx="20" cy="20" r="20" stroke="none"/>
      <circle cx="20" cy="20" r="19.5" fill="none"/>
    </g>
    <g id="Group_4102" data-name="Group 4102" transform="translate(2106.855 -18420.973)">
      <path id="Path_1475" data-name="Path 1475" d="M26.68,30.8H15.857A1.653,1.653,0,0,0,14.2,32.457v12.48a1.653,1.653,0,0,0,1.657,1.657H26.68a1.653,1.653,0,0,0,1.657-1.657V32.477A1.67,1.67,0,0,0,26.68,30.8ZM16.7,34.554a.388.388,0,0,1,.419-.419H20.45a.4.4,0,0,1,.419.419v.839a.4.4,0,0,1-.419.419H17.115a.4.4,0,0,1-.419-.419v-.839Zm7.488,7.488a.4.4,0,0,1-.419.419H17.115a.4.4,0,0,1-.419-.419V41.2a.388.388,0,0,1,.419-.419h6.649a.4.4,0,0,1,.419.419Zm1.657-3.335a.4.4,0,0,1-.419.419H17.115a.4.4,0,0,1-.419-.419v-.839a.388.388,0,0,1,.419-.419h8.326a.4.4,0,0,1,.419.419v.839Z" transform="translate(-14.2 -26.647)" fill="#fafafb"/>
      <path id="Path_1476" data-name="Path 1476" d="M47.48,10H36.657A1.653,1.653,0,0,0,35,11.657V12.5h9.984a1.653,1.653,0,0,1,1.657,1.657V25.794h.839a1.653,1.653,0,0,0,1.657-1.657V11.657A1.653,1.653,0,0,0,47.48,10Z" transform="translate(-30.847 -10)" fill="#fafafb"/>
    </g>
  </g>
</svg>
