<svg xmlns="http://www.w3.org/2000/svg" width="32" height="32" viewBox="0 0 32 32">
  <g id="Download_extension_" data-name="Download extension " transform="translate(-15 -13.002)">
    <circle id="Ellipse_110" data-name="Ellipse 110" cx="16" cy="16" r="16" transform="translate(15 13.002)" fill="#44444f"/>
    <g id="Group_4034" data-name="Group 4034" transform="translate(13.695 17.863)">
      <path id="Path_1440" data-name="Path 1440" d="M29.732,49.943v2.813h1.26V49.943a5.362,5.362,0,0,1-.626.04A5.5,5.5,0,0,1,29.732,49.943Z" transform="translate(-13.009 -33.104)" fill="#fafafb"/>
      <path id="Path_1441" data-name="Path 1441" d="M21.834,7.568h-1.45V4.628a.63.63,0,1,0-1.26,0v2.94H15.582V4.628a.629.629,0,0,0-.626-.634.636.636,0,0,0-.634.634v2.94h-1.45a1.2,1.2,0,1,0,0,2.393h8.962a1.2,1.2,0,1,0,0-2.393Z" transform="translate(0 0)" fill="#fafafb"/>
      <path id="Path_1442" data-name="Path 1442" d="M16.863,28.921a4.228,4.228,0,1,0,8.455,0V27.352H16.863Zm3.455,1.228.618-1.585a.281.281,0,1,1,.523.206l-.468,1.2h.61v.008a.217.217,0,0,1,.1.016.281.281,0,0,1,.158.365l-.618,1.577a.275.275,0,0,1-.356.158.263.263,0,0,1-.158-.356l.467-1.2H20.58a.468.468,0,0,1-.1-.016A.287.287,0,0,1,20.318,30.149Z" transform="translate(-3.738 -16.828)" fill="#fafafb"/>
    </g>
  </g>
</svg>
