<svg xmlns="http://www.w3.org/2000/svg" width="32" height="32" viewBox="0 0 32 32">
  <g id="Download" transform="translate(-13 -12.002)">
    <circle id="Ellipse_110" data-name="Ellipse 110" cx="16" cy="16" r="16" transform="translate(13 12.002)" fill="#44444f"/>
    <g id="Group_4048" data-name="Group 4048" transform="translate(3.376 2.384)">
      <path id="Path_1450" data-name="Path 1450" d="M35.592,18v7.7l-1.9-1.9L32.34,25.142l3.53,3.53a.952.952,0,0,0,1.347,0l3.53-3.53L39.4,23.794l-1.9,1.9V18Z" transform="translate(-10.917 0)" fill="#fafafb"/>
      <path id="Path_1451" data-name="Path 1451" d="M21.818,59.8h7.618a3.809,3.809,0,0,0,2.171-6.932l-1.39,1.39a1.9,1.9,0,0,1-.781,3.638H21.818a1.9,1.9,0,0,1-.783-3.64l-1.39-1.39A3.809,3.809,0,0,0,21.818,59.8Z" transform="translate(0 -26.569)" fill="#fafafb"/>
    </g>
  </g>
</svg>
