<svg id="edit" xmlns="http://www.w3.org/2000/svg" width="28" height="28" viewBox="0 0 28 28">
  <circle id="Ellipse_110" data-name="Ellipse 110" cx="14" cy="14" r="14" fill="#44444f"/>
  <g id="noun_edit_1015682" transform="translate(6.198 4.482)">
    <path id="Path_1458" data-name="Path 1458" d="M2,13.789V6.21A1.684,1.684,0,0,1,3.684,4.526H8.832L7.176,6.21H3.684v7.578h7.578V10.3l1.684-1.656v5.148a1.684,1.684,0,0,1-1.684,1.684H3.684A1.684,1.684,0,0,1,2,13.789ZM14.21,2a1.263,1.263,0,0,0-.893.37L7.333,8.456a1.723,1.723,0,0,0-.407.664L6.32,10.944a.173.173,0,0,0,.218.218l1.824-.606a1.723,1.723,0,0,0,.655-.415L15.1,4.156A1.263,1.263,0,0,0,14.21,2Z" transform="translate(0 0)" fill="#fafafb"/>
  </g>
</svg>
