<svg width="28" height="28" viewBox="0 0 28 28" fill="none" xmlns="http://www.w3.org/2000/svg">
<rect width="28" height="28" rx="3" fill="#44444F"/>
<path d="M8 17.789V10.21C8 9.76338 8.17742 9.33504 8.49323 9.01923C8.80905 8.70342 9.23738 8.526 9.684 8.526H14.832L13.176 10.21H9.684V17.788H17.262V14.3L18.946 12.644V17.792C18.946 18.2386 18.7686 18.667 18.4528 18.9828C18.137 19.2986 17.7086 19.476 17.262 19.476H9.684C9.4626 19.476 9.24338 19.4323 9.03887 19.3475C8.83436 19.2627 8.64859 19.1384 8.49217 18.9817C8.33576 18.825 8.21178 18.639 8.12733 18.4344C8.04288 18.2297 7.99961 18.0104 8 17.789V17.789ZM20.21 6C19.875 6.00004 19.5538 6.13313 19.317 6.37L13.333 12.456C13.1484 12.6434 13.0092 12.8705 12.926 13.12L12.32 14.944C12.3101 14.9743 12.3089 15.0068 12.3163 15.0379C12.3238 15.0689 12.3396 15.0972 12.3622 15.1198C12.3848 15.1424 12.4131 15.1582 12.4442 15.1657C12.4752 15.1731 12.5077 15.1719 12.538 15.162L14.362 14.556C14.609 14.4692 14.833 14.3273 15.017 14.141L21.1 8.156C21.2764 7.97955 21.3966 7.75479 21.4454 7.51009C21.4943 7.26539 21.4695 7.01172 21.3743 6.78107C21.2791 6.55043 21.1177 6.35316 20.9105 6.21415C20.7033 6.07514 20.4595 6.00062 20.21 6V6Z" fill="#FAFAFB"/>
</svg>
