<svg xmlns="http://www.w3.org/2000/svg" width="32" height="32" viewBox="0 0 32 32">
  <g id="Entity" transform="translate(0 -13.996)">
    <circle id="Ellipse_110" data-name="Ellipse 110" cx="16" cy="16" r="16" transform="translate(0 13.996)" fill="#44444f"/>
    <g id="Group_5106" data-name="Group 5106" transform="translate(8.266 24.019)">
      <path id="Path_928" data-name="Path 928" d="M2.369,0H15.005a2.369,2.369,0,0,1,2.369,2.369v8.687a2.369,2.369,0,0,1-2.369,2.369H2.369A2.369,2.369,0,0,1,0,11.057V2.369A2.369,2.369,0,0,1,2.369,0Z" transform="translate(-0.954 -0.737)" fill="rgba(255,255,255,0)"/>
      <path id="Path_928_-_Outline" data-name="Path 928 - Outline" d="M2.369,1.319a1.051,1.051,0,0,0-1.05,1.05v8.687a1.051,1.051,0,0,0,1.05,1.05H15.005a1.051,1.051,0,0,0,1.05-1.05V2.369a1.051,1.051,0,0,0-1.05-1.05H2.369M2.369,0H15.005a2.369,2.369,0,0,1,2.369,2.369v8.687a2.369,2.369,0,0,1-2.369,2.369H2.369A2.369,2.369,0,0,1,0,11.057V2.369A2.369,2.369,0,0,1,2.369,0Z" transform="translate(-0.954 -0.737)" fill="#fff"/>
      <path id="Path_931" data-name="Path 931" d="M2577.215-19720.869h-7.09a.66.66,0,0,1-.66-.66.659.659,0,0,1,.66-.658h7.09a.659.659,0,0,1,.66.658A.66.66,0,0,1,2577.215-19720.869Z" transform="translate(-2565.937 19726.131)" fill="#fff"/>
      <path id="Path_932" data-name="Path 932" d="M2577.215-19720.869h-7.09a.66.66,0,0,1-.66-.66.659.659,0,0,1,.66-.658h7.09a.659.659,0,0,1,.66.658A.66.66,0,0,1,2577.215-19720.869Z" transform="translate(-2565.937 19728.877)" fill="#fff"/>
    </g>
  </g>
</svg>
