<svg xmlns="http://www.w3.org/2000/svg" width="24" height="24" viewBox="0 0 24 24">
  <g id="Group_13383" data-name="Group 13383" transform="translate(-555 -807)">
    <rect id="Rectangle_745" data-name="Rectangle 745" width="24" height="24" transform="translate(555 807)" fill="#b5b5be" opacity="0"/>
    <g id="noun_Card_1010235" transform="translate(555.031 808.447)">
      <g id="Group_1820" data-name="Group 1820" transform="translate(0.469 1.553)">
        <g id="Path_928" data-name="Path 928" fill="rgba(255,255,255,0)">
          <path d="M 19.86405563354492 17.02310371398926 L 3.136435031890869 17.02310371398926 C 1.820555090904236 17.02310371398926 0.7500050663948059 15.95255279541016 0.7500050663948059 14.63667297363281 L 0.7500050663948059 3.136432886123657 C 0.7500050663948059 1.820552825927734 1.820555090904236 0.7500028014183044 3.136435031890869 0.7500028014183044 L 19.86405563354492 0.7500028014183044 C 21.17994499206543 0.7500028014183044 22.25049591064453 1.820552825927734 22.25049591064453 3.136432886123657 L 22.25049591064453 14.63667297363281 C 22.25049591064453 15.95255279541016 21.17994499206543 17.02310371398926 19.86405563354492 17.02310371398926 Z" stroke="none"/>
          <path d="M 3.136434555053711 1.500001907348633 C 2.234094619750977 1.500001907348633 1.499994277954102 2.234103202819824 1.499994277954102 3.136432647705078 L 1.499994277954102 14.63667297363281 C 1.499994277954102 15.53900337219238 2.234094619750977 16.27310180664062 3.136434555053711 16.27310180664062 L 19.86405563354492 16.27310180664062 C 20.76638412475586 16.27310180664062 21.50048446655273 15.53900337219238 21.50048446655273 14.63667297363281 L 21.50048446655273 3.136432647705078 C 21.50048446655273 2.234103202819824 20.76638412475586 1.500001907348633 19.86405563354492 1.500001907348633 L 3.136434555053711 1.500001907348633 M 3.136434555053711 1.9073486328125e-06 L 19.86405563354492 1.9073486328125e-06 C 21.59626579284668 1.9073486328125e-06 23.00048446655273 1.404232025146484 23.00048446655273 3.136432647705078 L 23.00048446655273 14.63667297363281 C 23.00048446655273 16.36887359619141 21.59626579284668 17.77310371398926 19.86405563354492 17.77310371398926 L 3.136434555053711 17.77310371398926 C 1.404224395751953 17.77310371398926 -5.7220458984375e-06 16.36887359619141 -5.7220458984375e-06 14.63667297363281 L -5.7220458984375e-06 3.136432647705078 C -5.7220458984375e-06 1.404232025146484 1.404224395751953 1.9073486328125e-06 3.136434555053711 1.9073486328125e-06 Z" stroke="none" fill="#e2e2ea"/>
        </g>
        <path id="Path_931" data-name="Path 931" d="M2570.215-19721.437h9.884" transform="translate(-2563.657 19728.41)" fill="none" stroke="#e2e2ea" stroke-linecap="round" stroke-width="1.5"/>
        <path id="Path_932" data-name="Path 932" d="M2570.215-19721.437h9.884" transform="translate(-2563.657 19732.238)" fill="none" stroke="#e2e2ea" stroke-linecap="round" stroke-width="1.5"/>
      </g>
    </g>
  </g>
</svg>
