<svg xmlns="http://www.w3.org/2000/svg" width="32" height="32" viewBox="0 0 32 32">
  <g id="Group_4212" data-name="Group 4212" transform="translate(-230 -299)">
    <g id="Input" transform="translate(230 299)" fill="rgba(0,180,154,0)" stroke="#292932" stroke-width="1">
      <rect width="32" height="32" rx="8" stroke="none"/>
      <rect x="0.5" y="0.5" width="31" height="31" rx="7.5" fill="none"/>
    </g>
    <g id="noun_eraser_764793" transform="translate(238.899 305.492)">
      <g id="Group_4214" data-name="Group 4214" transform="translate(0.335 2.1)">
        <path id="Path_1505" data-name="Path 1505" d="M129.274,13.186a.3.3,0,0,0,.426,0l5.079-5.038a.3.3,0,0,0,0-.423L129.19,2.188a.3.3,0,0,0-.426,0l-5.076,5.035a.3.3,0,0,0,0,.423Z" transform="translate(-120.053 -2.1)" fill="#fafafb"/>
        <path id="Path_1506" data-name="Path 1506" d="M16.079,232.218H9.258a.31.31,0,0,0,.213-.087l.688-.683a.3.3,0,0,0,0-.423l-5.59-5.537a.3.3,0,0,0-.426,0l-2.057,2.039a.3.3,0,0,0,0,.423l4.224,4.183a.3.3,0,0,0,.213.088H2.744a.741.741,0,1,0,0,1.482H16.079a.742.742,0,0,0,0-1.485Z" transform="translate(-2 -218.886)" fill="#fafafb"/>
      </g>
    </g>
  </g>
</svg>
