<svg xmlns="http://www.w3.org/2000/svg" width="16.435" height="14.327" viewBox="0 0 16.435 14.327">
  <g id="Group_4646" data-name="Group 4646" transform="translate(-9 -16)">
    <path id="Path_3121" data-name="Path 3121" d="M36.812,26.183l3.177,3.177H33v1.661h6.989L36.812,34.2,38,35.382l5.191-5.191L38,25Z" transform="translate(-17.752 -7.131)" fill="#fafafb"/>
    <path id="Path_3122" data-name="Path 3122" d="M17.72,20.776V18.886A2.88,2.88,0,0,0,14.834,16H11.886A2.88,2.88,0,0,0,9,18.886V27.44a2.88,2.88,0,0,0,2.886,2.886h2.948A2.88,2.88,0,0,0,17.72,27.44v-2.1H16.059v2.1a1.227,1.227,0,0,1-1.225,1.225H11.886a1.227,1.227,0,0,1-1.225-1.225V18.886a1.227,1.227,0,0,1,1.225-1.225h2.948a1.227,1.227,0,0,1,1.225,1.225v1.889Z" fill="#fafafb"/>
  </g>
</svg>
