<svg xmlns="http://www.w3.org/2000/svg" width="32" height="32" viewBox="0 0 32 32">
  <g id="Group_4442" data-name="Group 4442" transform="translate(-230 -299)">
    <g id="Input" transform="translate(230 299)" fill="rgba(0,180,154,0)" stroke="#292932" stroke-width="1">
      <rect width="32" height="32" rx="8" stroke="none"/>
      <rect x="0.5" y="0.5" width="31" height="31" rx="7.5" fill="none"/>
    </g>
    <g id="Group_4441" data-name="Group 4441" transform="translate(236.382 305.382)">
      <path id="Path_1591" data-name="Path 1591" d="M17.236,6.26V15.6A1.634,1.634,0,0,1,15.6,17.236H14.516V11.795a1.632,1.632,0,0,0-1.632-1.632H6.353a1.632,1.632,0,0,0-1.632,1.632v5.442H3.632A1.634,1.634,0,0,1,2,15.6V3.632A1.634,1.634,0,0,1,3.632,2H6.353V4.721A1.632,1.632,0,0,0,7.986,6.353h3.265a1.632,1.632,0,0,0,1.632-1.632V2h.093a1.622,1.622,0,0,1,1.154.478l2.627,2.627A1.622,1.622,0,0,1,17.236,6.26ZM7.442,2V4.721a.544.544,0,0,0,.544.544h3.265a.544.544,0,0,0,.544-.544V2Zm5.986,9.795v5.442H5.809V11.795a.544.544,0,0,1,.544-.544h6.53A.544.544,0,0,1,13.427,11.795Zm-1.088,2.721H6.9a.544.544,0,0,0,0,1.088h5.442a.544.544,0,1,0,0-1.088Zm0-1.632H6.9a.544.544,0,0,0,0,1.088h5.442a.544.544,0,1,0,0-1.088Z" transform="translate(0 0)" fill="#fafafb"/>
    </g>
  </g>
</svg>
