<svg xmlns="http://www.w3.org/2000/svg" width="32" height="32" viewBox="0 0 32 32">
  <g id="Group_13452" data-name="Group 13452" transform="translate(-230 -299)">
    <rect id="Input" width="32" height="32" rx="8" transform="translate(230 299)" fill="#44444f"/>
    <path id="Path_1535" data-name="Path 1535" d="M112.079,84.164a.988.988,0,0,0-.888-.564H100.174a1.013,1.013,0,0,0-.8,1.609l1,1.344v.033h.046l3.4,4.509v5.811a1.006,1.006,0,0,0,.622.921,1.046,1.046,0,0,0,.386.075,1,1,0,0,0,.705-.29l1.713-1.7a1.007,1.007,0,0,0,.3-.705V91.091l3.4-4.5h0v-.033l1.025-1.34A1,1,0,0,0,112.079,84.164Zm-1.713,1.261H101l-.494-.664h10.353Z" transform="translate(140.469 224.386)" fill="#fafafb"/>
  </g>
</svg>
