<svg xmlns="http://www.w3.org/2000/svg" width="32" height="32" viewBox="0 0 32 32">
  <g id="Group_13421" data-name="Group 13421" transform="translate(-1111 -325)">
    <g id="Input" transform="translate(1111 325)" fill="#44444f" stroke="rgba(68,68,79,0)" stroke-width="1">
      <rect width="32" height="32" rx="16" stroke="none"/>
      <rect x="0.5" y="0.5" width="31" height="31" rx="15.5" fill="none"/>
    </g>
    <path id="Path_1375" data-name="Path 1375" d="M13.426,5a8.426,8.426,0,1,0,8.426,8.426A8.435,8.435,0,0,0,13.426,5ZM5.79,13.426A7.592,7.592,0,0,1,7.129,9.112l.441.436a.261.261,0,0,1,.077.165l.078.978a.262.262,0,0,0,.064.151L9.78,13.117a.261.261,0,0,0,.077.06l1.755.9.013.006.515.23a.261.261,0,0,1,.128.124l.158.324a.257.257,0,0,0,.1.112l-.18.674a.313.313,0,0,0,.022.219l.424.863a.314.314,0,0,0,.119.13l.353.214a.313.313,0,0,1,.148.313l-.462,3.206a.314.314,0,0,0,.031.187l.194.38A7.644,7.644,0,0,1,5.79,13.426Zm8.073,7.623-.116-.159a.313.313,0,0,1-.02-.338l.519-.923a.315.315,0,0,1,.125-.123l.386-.207a.316.316,0,0,0,.086-.068l.969-1.089a.313.313,0,0,1,.15-.094l.471-.13a.313.313,0,0,0,.206-.182l.68-1.645a.313.313,0,0,0-.186-.415l-1.457-.51a.314.314,0,0,1-.172-.146l-.122-.224a.312.312,0,0,0-.116-.12L14.2,14.046A.314.314,0,0,0,14.04,14h-.93a.313.313,0,0,0-.272.159l-.069.122a.257.257,0,0,0-.053-.011.261.261,0,0,1-.179-.1l-.778-.982a.261.261,0,0,0-.264-.092l-.211.049a.261.261,0,0,1-.2-.035l-.325-.21a.261.261,0,0,1-.113-.277l.08-.355a.261.261,0,0,1,.255-.2h1.2a.261.261,0,0,0,.221-.122l.8-1.261a.262.262,0,0,1,.127-.1l.711-.272a.262.262,0,0,0,.12-.093L14.8,9.3a.261.261,0,0,0-.016-.323l-.7-.806a.261.261,0,0,0-.112-.075l-.951-.326a.261.261,0,0,0-.339.187l-.173.733a.261.261,0,0,1-.365.177l-.818-.383a.261.261,0,0,1-.111-.1l-.169-.273a.261.261,0,0,1,.058-.341l1.053-.851a.262.262,0,0,0,.1-.235L12.211,6.4l.3-.044a.247.247,0,0,1,.185.048l.272.207a.248.248,0,0,1,.1.2v.122a.247.247,0,0,0,.116.209l.526.33a.247.247,0,0,0,.373-.156l.069-.311a.247.247,0,0,0-.057-.217l-.883-1q.107,0,.215,0a7.666,7.666,0,0,1,.93.057l.564.345a.292.292,0,0,1,.125.156c.063.188.192.577.206.633s.4.659.517.847a.287.287,0,0,0,.093.091.292.292,0,0,0,.415-.122l.281-.58a.293.293,0,0,1,.132-.134l.546-.274a7.687,7.687,0,0,1,3.094,3.354l-.306.16a.2.2,0,0,0-.1.173v.817a.194.194,0,0,1-.025.095l-.835,1.5a.2.2,0,0,0-.025.095v.837a.194.194,0,0,0,.073.152l.881.7a.2.2,0,0,0,.155.04l.832-.144A7.649,7.649,0,0,1,13.863,21.049Z" transform="translate(1113.574 327.574)" fill="#fafafb"/>
  </g>
</svg>
