<svg xmlns="http://www.w3.org/2000/svg" width="24.001" height="24" viewBox="0 0 24.001 24">
  <g id="Group_13388" data-name="Group 13388" transform="translate(-1019.999 -544)">
    <rect id="Rectangle" width="24" height="24" rx="4" transform="translate(1020 544)" fill="rgba(235,67,67,0)"/>
    <path id="Union_11" data-name="Union 11" d="M-6428.542,10314.384c.639-3.509,2.607-6.126,6-6.126s5.359,2.644,6,6.126c.241,1.338-2.662,1.75-6,1.75S-6428.783,10315.722-6428.542,10314.384Zm13-.067a6.686,6.686,0,0,0-.544-2.924,7.617,7.617,0,0,0-2.022-2.34,4.756,4.756,0,0,1,2.566-.795c2.565,0,3.547,1.769,4,4.375.186,1.006-1.459,1.684-3.877,1.684Zm-19-1.684a5.038,5.038,0,0,1,5-4.375,3.157,3.157,0,0,1,2,.875,8.873,8.873,0,0,0-1.8,2.314,6.622,6.622,0,0,0-.56,2.607C-6432.393,10314.055-6434.73,10313.656-6434.544,10312.633Zm6.978-3.479Zm.016-.014.007-.007Zm.007-.007C-6427.525,10309.114-6427.5,10309.1-6427.543,10309.133Zm9.968-3.249a2,2,0,0,1,2-2,2,2,0,0,1,2,2,2,2,0,0,1-2,2A2,2,0,0,1-6417.576,10305.884Zm-13.968,0a2,2,0,0,1,2-2,2,2,0,0,1,2,2,2,2,0,0,1-2,2A2,2,0,0,1-6431.543,10305.884Zm6-1.688a3.031,3.031,0,0,1,3-3.062,3.033,3.033,0,0,1,3,3.063,3.034,3.034,0,0,1-3,3.063A3.032,3.032,0,0,1-6425.542,10304.2Z" transform="translate(7454.553 -9752.133)" fill="#fafafb"/>
  </g>
</svg>
