<svg xmlns="http://www.w3.org/2000/svg" width="32" height="32" viewBox="0 0 32 32">
  <g id="Group_13441" data-name="Group 13441" transform="translate(-1065 -1543)">
    <g id="Input" transform="translate(1065 1543)" fill="rgba(0,180,154,0)" stroke="#292932" stroke-width="1" opacity="0">
      <rect width="32" height="32" rx="8" stroke="none"/>
      <rect x="0.5" y="0.5" width="31" height="31" rx="7.5" fill="none"/>
    </g>
    <g id="Group_4249" data-name="Group 4249" transform="translate(1435.061 985.302)">
      <path id="Path_1516" data-name="Path 1516" d="M-359.648,580.876a5.59,5.59,0,0,1,1.908-4.2,3.942,3.942,0,0,0-1.567-.954,2.4,2.4,0,0,0,1.317-2.135,2.385,2.385,0,0,0-2.385-2.385,2.385,2.385,0,0,0-2.385,2.385,2.359,2.359,0,0,0,1.317,2.135,3.734,3.734,0,0,0-2.657,3.566c0,1.885,1.408,1.976,3.225,1.976h1.295A.734.734,0,0,1-359.648,580.876Z" transform="translate(-2 -2.533)" fill="#fafafb"/>
      <path id="Path_1517" data-name="Path 1517" d="M-300.1,575.82a2.4,2.4,0,0,0,1.317-2.135,2.385,2.385,0,0,0-2.385-2.385,2.385,2.385,0,0,0-2.385,2.385,2.359,2.359,0,0,0,1.317,2.135,3.845,3.845,0,0,0-1.567.954,5.554,5.554,0,0,1,1.908,4.2,2.468,2.468,0,0,1-.023.409h1.272c1.817,0,3.225-.091,3.225-1.976A3.79,3.79,0,0,0-300.1,575.82Z" transform="translate(-44.604 -2.656)" fill="#fafafb"/>
      <path id="Path_1518" data-name="Path 1518" d="M-336.341,583.751h1.72c2.981,0,5.3-.143,5.3-3.267a6.165,6.165,0,0,0-4.385-5.9,3.926,3.926,0,0,0,2.149-3.525,3.945,3.945,0,0,0-3.955-3.955,3.945,3.945,0,0,0-3.955,3.955,3.946,3.946,0,0,0,2.15,3.525,6.2,6.2,0,0,0-4.385,5.9C-341.643,583.608-339.321,583.751-336.341,583.751Z" transform="translate(-18.597 -1.728)" fill="#fafafb"/>
    </g>
  </g>
</svg>
