<svg id="Group_3996" data-name="Group 3996" xmlns="http://www.w3.org/2000/svg" width="28.751" height="16.874" viewBox="0 0 28.751 16.874">
  <circle id="Ellipse_105" data-name="Ellipse 105" cx="4.069" cy="4.069" r="4.069" transform="translate(10.292)" fill="#7735d5"/>
  <circle id="Ellipse_106" data-name="Ellipse 106" cx="4.069" cy="4.069" r="4.069" transform="translate(10.292)" fill="#7735d5"/>
  <circle id="Ellipse_107" data-name="Ellipse 107" cx="2.932" cy="2.932" r="2.932" transform="translate(19.955 1.915)" fill="#7735d5"/>
  <path id="Path_1433" data-name="Path 1433" d="M79.959,48.8a4.491,4.491,0,0,1-3.111,1.257A5.828,5.828,0,0,1,76.1,50a6.466,6.466,0,0,1,1.885,4.4v.329c3.411,0,4.7-.03,4.7-2.274C82.652,50.954,81.455,49.638,79.959,48.8Z" transform="translate(-53.931 -40.722)" fill="#7735d5"/>
  <circle id="Ellipse_108" data-name="Ellipse 108" cx="2.932" cy="2.932" r="2.932" transform="translate(2.902 1.915)" fill="#7735d5"/>
  <path id="Path_1434" data-name="Path 1434" d="M8.582,50a3.157,3.157,0,0,1-.748.06A4.491,4.491,0,0,1,4.723,48.8C3.2,49.638,2,50.954,2,52.48c0,2.274,1.137,2.3,4.7,2.274v-.329A6.4,6.4,0,0,1,8.582,50Z" transform="translate(-2 -40.722)" fill="#7735d5"/>
  <path id="Path_1435" data-name="Path 1435" d="M35.455,50.59l-.18-.09a6.314,6.314,0,0,1-4.338,1.765A6.129,6.129,0,0,1,26.6,50.5l-.18.09c-2,1.167-3.62,2.962-3.62,5.026v.329c.12,2.633,1.556,2.842,5.625,2.842h4.936c3.949,0,5.595-.209,5.714-2.842v-.329C39.075,53.552,37.46,51.757,35.455,50.59Z" transform="translate(-16.577 -41.914)" fill="#7735d5"/>
</svg>
