<svg xmlns="http://www.w3.org/2000/svg" width="24" height="24" viewBox="0 0 24 24">
  <g id="Group_13386" data-name="Group 13386" transform="translate(-914.165 -807)">
    <rect id="Rectangle_746" data-name="Rectangle 746" width="24" height="24" transform="translate(914.165 807)" fill="#b5b5be" opacity="0"/>
    <g id="Group_3999" data-name="Group 3999" transform="translate(905.18 787.576)">
      <g id="Ellipse_106" data-name="Ellipse 106" transform="translate(13.534 21.8)" fill="rgba(213,213,220,0)" stroke="#d5d5dc" stroke-width="1.3">
        <circle cx="4.213" cy="4.213" r="4.213" stroke="none"/>
        <circle cx="4.213" cy="4.213" r="3.563" fill="none"/>
      </g>
      <circle id="Ellipse_107" data-name="Ellipse 107" cx="3.036" cy="3.036" r="3.036" transform="translate(23.54 23.783)" fill="#d5d5dc"/>
      <path id="Path_1433" data-name="Path 1433" d="M80.1,48.8a4.651,4.651,0,0,1-3.222,1.3,6.036,6.036,0,0,1-.774-.062,6.777,6.777,0,0,1,2.157,4.469v.341c3.532,0,4.659.054,4.659-2.269C82.885,51.031,81.645,49.667,80.1,48.8Z" transform="translate(-50.267 -18.635)" fill="#d5d5dc"/>
      <g id="Path_1435" data-name="Path 1435" transform="translate(-13.479 -19.809)" fill="rgba(213,213,220,0)">
        <path d="M 33.73592376708984 58.43144226074219 L 31.22654342651367 58.43144226074219 L 28.62423324584961 58.43144226074219 C 26.50230407714844 58.43144226074219 25.20644378662109 58.36835098266602 24.43648338317871 58.03557205200195 C 23.87212753295898 57.79166030883789 23.51000022888184 57.38607788085938 23.45000267028809 56.12324523925781 L 23.45000267028809 55.79757308959961 C 23.45000267028809 54.93341064453125 23.77351379394531 54.07375335693359 24.41154289245605 53.24249267578125 C 24.95810890197754 52.53038787841797 25.72442054748535 51.86151123046875 26.63853645324707 51.29683685302734 C 27.8872013092041 52.37025451660156 29.5323657989502 52.97781372070312 31.22654342651367 52.97781372070312 C 32.89012145996094 52.97781372070312 34.49904632568359 52.38226699829102 35.80614852905273 51.29165267944336 C 36.72394943237305 51.85740661621094 37.49331283569336 52.52821731567383 38.04154205322266 53.24249267578125 C 38.67957305908203 54.07376098632812 39.00308227539062 54.93341064453125 39.00308227539062 55.79757308959961 L 39.00308227539062 56.12319183349609 C 38.94372940063477 57.36295318603516 38.53210830688477 57.78321075439453 37.93258285522461 58.03180313110352 C 37.12234497070312 58.36775207519531 35.83256530761719 58.43144226074219 33.73592376708984 58.43144226074219 Z" stroke="none"/>
        <path d="M 35.84243011474609 52.08943176269531 C 34.49186325073242 53.08734512329102 32.88495635986328 53.62781143188477 31.22654342651367 53.62781143188477 C 29.54606246948242 53.62781143188477 27.908447265625 53.07899856567383 26.59855270385742 52.09770584106445 C 25.02189254760742 53.17704772949219 24.10000228881836 54.52745819091797 24.10000228881836 55.79757308959961 L 24.10000228881836 56.10746765136719 C 24.15463256835938 57.20560836791992 24.44124221801758 57.32952117919922 24.69436264038086 57.43892288208008 C 25.42625427246094 57.75524139404297 26.97090530395508 57.78144073486328 28.62423324584961 57.78144073486328 L 33.73592376708984 57.78144073486328 C 35.37135314941406 57.78144073486328 36.90390396118164 57.75467300415039 37.68362426757812 57.43137359619141 C 37.97224426269531 57.31169509887695 38.29903411865234 57.17626190185547 38.35308074951172 56.10722732543945 L 38.35308074951172 55.79757308959961 C 38.35308074951172 54.52423858642578 37.42640686035156 53.17013168334961 35.84243011474609 52.08943176269531 M 26.73445510864258 50.5 C 27.88070297241211 51.64626312255859 29.49167251586914 52.32781219482422 31.22654342651367 52.32781219482422 C 32.96142578125 52.32781219482422 34.5413932800293 51.61528015136719 35.71864318847656 50.5 C 35.78059387207031 50.53097152709961 35.84255218505859 50.56196212768555 35.90451431274414 50.59293365478516 C 37.98017120361328 51.80115127563477 39.65308380126953 53.65996170043945 39.65308380126953 55.79757308959961 C 39.65308380126953 55.92148208618164 39.65308380126953 56.01443099975586 39.65308380126953 56.13833999633789 C 39.5291748046875 58.86458206176758 37.82527160644531 59.08144378662109 33.73592376708984 59.08144378662109 C 32.96142578125 59.08144378662109 32.15594482421875 59.08144378662109 31.22654342651367 59.08144378662109 C 30.26616287231445 59.08144378662109 29.39872360229492 59.08144378662109 28.62423324584961 59.08144378662109 C 24.41095352172852 59.08144378662109 22.92392349243164 58.86458206176758 22.80000305175781 56.13833999633789 C 22.80000305175781 56.04541015625 22.80000305175781 55.92148208618164 22.80000305175781 55.79757308959961 C 22.80000305175781 53.65995025634766 24.4729118347168 51.80115127563477 26.5485725402832 50.59293365478516 C 26.61053466796875 50.56196212768555 26.67249298095703 50.53097152709961 26.73445510864258 50.5 Z" stroke="none" fill="#d5d5dc"/>
      </g>
    </g>
  </g>
</svg>
