<svg xmlns="http://www.w3.org/2000/svg" width="40" height="40" viewBox="0 0 40 40">
  <g id="Home" transform="translate(-2096 18431)">
    <circle id="Ellipse_11" data-name="Ellipse 11" cx="20" cy="20" r="20" transform="translate(2096 -18431)" fill="#7735d5"/>
    <path id="Path_1492" data-name="Path 1492" d="M19.7,11.354a.788.788,0,0,1-.755.529H17.555v6.6A1.353,1.353,0,0,1,16.2,19.83H6.189a1.353,1.353,0,0,1-1.353-1.345v-6.6H3.448a.8.8,0,0,1-.512-1.414l7.982-6.663a.443.443,0,0,1,.555,0l7.982,6.663a.781.781,0,0,1,.243.885Z" transform="translate(2104.803 -18423.27)" fill="#fafafb"/>
  </g>
</svg>
