<svg xmlns="http://www.w3.org/2000/svg" width="32" height="32" viewBox="0 0 32 32">
  <g id="Image" transform="translate(-14 -12.002)">
    <circle id="Ellipse_110" data-name="Ellipse 110" cx="16" cy="16" r="16" transform="translate(14 12.002)" fill="#44444f"/>
    <g id="Layer_139" data-name="Layer 139" transform="translate(18.431 16.433)">
      <path id="Path_1453" data-name="Path 1453" d="M15.993,4.03H7.145A3.115,3.115,0,0,0,4.03,7.145v8.847a3.115,3.115,0,0,0,3.115,3.115h8.847a3.115,3.115,0,0,0,3.115-3.115V7.145A3.115,3.115,0,0,0,15.993,4.03Zm-.454,5.839a.464.464,0,0,0-.623-.009l-4.593,4.183-2.19-1.486a.445.445,0,0,0-.534.027L4.92,14.88V7.145A2.225,2.225,0,0,1,7.145,4.92h8.847a2.225,2.225,0,0,1,2.225,2.225v5.421ZM10.89,8.726A1.588,1.588,0,1,1,9.3,7.139,1.588,1.588,0,0,1,10.89,8.726Z" fill="#fafafb"/>
    </g>
  </g>
</svg>
