<svg xmlns="http://www.w3.org/2000/svg" width="32" height="32" viewBox="0 0 32 32">
  <g id="Infiltration" transform="translate(-968.498 -554.719)">
    <circle id="Ellipse_164" data-name="Ellipse 164" cx="16" cy="16" r="16" transform="translate(968.498 554.719)" fill="#44444f"/>
    <g id="Group_13362" data-name="Group 13362" transform="translate(-1.231 -1.347)">
      <path id="Path_3185" data-name="Path 3185" d="M45.021,19.408v-3.85a2.578,2.578,0,0,0-2.575-2.573H40.54a2.576,2.576,0,0,0-2.573,2.573v3.85H36.346a.381.381,0,0,0-.381.381v8.2a.381.381,0,0,0,.381.381h.98V26.6a.069.069,0,0,1,0-.009.1.1,0,0,1,.1-.1h2.62V23.876a.021.021,0,0,1,0-.005,0,0,0,0,1,0,0,.064.064,0,0,1,0-.009.037.037,0,0,1,0-.009.117.117,0,0,1,.007-.017.1.1,0,0,1,.039-.039l.016-.007a.107.107,0,0,1,.028,0h2.62V21.172a.033.033,0,0,1,0-.009s0-.005,0-.007a.1.1,0,0,1,.094-.076h2.62V19.408Zm-1.335,0H39.3v-3.85a1.241,1.241,0,0,1,1.239-1.239h1.906a1.241,1.241,0,0,1,1.24,1.239v3.85Z" transform="translate(943.877 551.031)" fill="#fafafb"/>
      <path id="Path_3186" data-name="Path 3186" d="M50.879,30.389v8.2a.381.381,0,0,1-.381.381H41.375V37.282h2.619a.1.1,0,0,0,.1-.1V34.575h2.619a.1.1,0,0,0,.1-.1V31.87h2.62a.1.1,0,0,0,.095-.1V30.007h.98A.382.382,0,0,1,50.879,30.389Z" transform="translate(940.737 541.148)" fill="#fafafb"/>
    </g>
  </g>
</svg>
