<svg xmlns="http://www.w3.org/2000/svg" width="56" height="56" viewBox="0 0 56 56">
  <g id="Instagram_post" data-name="Instagram post" transform="translate(-93 -31)">
    <rect id="Rectangle_369" data-name="Rectangle 369" width="56" height="56" rx="28" transform="translate(93 31)" fill="#1c1c24"/>
    <g id="Group_4834" data-name="Group 4834" transform="translate(110.06 47.715)">
      <path id="Path_855" data-name="Path 855" d="M4793.072,1564.854c3.017,0,3.375.011,4.565.066a6.274,6.274,0,0,1,2.1.389,3.749,3.749,0,0,1,2.144,2.144,6.254,6.254,0,0,1,.388,2.1c.055,1.192.066,1.549.066,4.566s-.012,3.374-.066,4.565a6.252,6.252,0,0,1-.388,2.1,3.75,3.75,0,0,1-2.144,2.144,6.247,6.247,0,0,1-2.1.39c-1.19.054-1.548.066-4.565.066s-3.374-.012-4.565-.066a6.24,6.24,0,0,1-2.1-.39,3.737,3.737,0,0,1-2.145-2.144,6.258,6.258,0,0,1-.389-2.1c-.053-1.191-.065-1.549-.065-4.565s.012-3.374.065-4.566a6.259,6.259,0,0,1,.389-2.1,3.736,3.736,0,0,1,2.145-2.144,6.266,6.266,0,0,1,2.1-.389c1.192-.054,1.549-.066,4.565-.066m0-2.036c-3.068,0-3.452.013-4.659.068a8.31,8.31,0,0,0-2.743.525,5.787,5.787,0,0,0-3.3,3.3,8.278,8.278,0,0,0-.525,2.742c-.055,1.205-.068,1.59-.068,4.659s.013,3.453.068,4.657a8.271,8.271,0,0,0,.525,2.743,5.784,5.784,0,0,0,3.3,3.3,8.294,8.294,0,0,0,2.743.525c1.207.055,1.59.068,4.659.068s3.454-.013,4.658-.068a8.3,8.3,0,0,0,2.743-.525,5.776,5.776,0,0,0,3.3-3.3,8.293,8.293,0,0,0,.526-2.743c.055-1.2.067-1.589.067-4.657s-.013-3.453-.067-4.659a8.3,8.3,0,0,0-.526-2.742,5.78,5.78,0,0,0-3.3-3.3,8.313,8.313,0,0,0-2.743-.525c-1.2-.055-1.59-.068-4.658-.068Z" transform="translate(-4781.774 -1562.818)" fill="#fff"/>
      <path id="Path_856" data-name="Path 856" d="M4801.912,1577.154a5.8,5.8,0,1,0,5.8,5.8A5.8,5.8,0,0,0,4801.912,1577.154Zm0,9.567a3.766,3.766,0,1,1,3.766-3.766A3.764,3.764,0,0,1,4801.912,1586.721Z" transform="translate(-4790.614 -1571.658)" fill="#fff"/>
      <circle id="Ellipse_36" data-name="Ellipse 36" cx="1.356" cy="1.356" r="1.356" transform="translate(15.973 3.911)" fill="#fff"/>
    </g>
  </g>
</svg>
