<svg xmlns="http://www.w3.org/2000/svg" width="48" height="48" viewBox="0 0 48 48">
  <g id="Group_13426" data-name="Group 13426" transform="translate(-440 -401)">
    <circle id="Ellipse_95" data-name="Ellipse 95" cx="24" cy="24" r="24" transform="translate(440 401)" fill="#292932"/>
    <g id="Group_3708" data-name="Group 3708" transform="translate(451.669 403.502)">
      <g id="Group_3707" data-name="Group 3707" transform="translate(1.259 8.335)">
        <path id="Path_1390" data-name="Path 1390" d="M2.962,40.815l-.051.1c-.153.459-.866,2.446-1.58,5.3a2.117,2.117,0,0,0,2.039,2.65H9.537c-.2-3.823-.51-7.645-.866-11.468A9.813,9.813,0,0,1,2.962,40.815Z" transform="translate(-1.259 -24.542)" fill="#fafafb"/>
        <path id="Path_1391" data-name="Path 1391" d="M36.706,46.068c-.714-2.854-1.427-4.791-1.58-5.3l-.051-.1A9.567,9.567,0,0,1,29.366,37.2c-.357,3.823-.663,7.645-.866,11.468h6.167A2.086,2.086,0,0,0,36.706,46.068Z" transform="translate(-14.616 -24.444)" fill="#fafafb"/>
        <path id="Path_1392" data-name="Path 1392" d="M23.06,37.4H19.9l.815,1.376.306.561c0,.153-.051.255-.051.408a11.724,11.724,0,0,0-.1,1.427c-.051.51-.051,1.07-.1,1.682s-.051,1.223-.1,1.886-.051,1.325-.1,1.988-.051,1.376-.1,2.09H22.6c-.051-.714-.051-1.376-.1-2.09-.051-.663-.051-1.376-.1-1.988-.051-.663-.051-1.274-.1-1.886s-.1-1.172-.1-1.682c-.051-.51-.051-1.019-.1-1.427,0-.153-.051-.306-.051-.408l.306-.561Z" transform="translate(-10.399 -24.542)" fill="#fafafb"/>
        <path id="Path_1393" data-name="Path 1393" d="M16.774,23.094a2.44,2.44,0,0,0,3.619,0,11.009,11.009,0,0,0,2.7-5.657,4.8,4.8,0,0,0-3.058-5.046,4.825,4.825,0,0,0-4.536.866,4.951,4.951,0,0,0-1.427,4.128A10.975,10.975,0,0,0,16.774,23.094Z" transform="translate(-7.528 -12.172)" fill="#fafafb"/>
      </g>
    </g>
  </g>
</svg>
