<svg width="28" height="28" viewBox="0 0 28 28" fill="none" xmlns="http://www.w3.org/2000/svg">
<rect width="28" height="28" rx="3" fill="#44444F"/>
<path d="M16.6471 15.622L16.6421 15.615C19.8581 12.286 20.5661 8.367 20.1341 7.929C19.6131 7.401 15.7471 8.168 12.4011 11.318L12.3921 11.309C12.2864 11.185 12.1563 11.0841 12.01 11.0125C11.8637 10.9408 11.7042 10.9 11.5415 10.8925C11.3787 10.885 11.2161 10.911 11.0639 10.9688C10.9116 11.0267 10.7728 11.1153 10.6561 11.229L8.04711 13.85C7.93031 13.9332 7.84121 14.0495 7.79138 14.184C7.74156 14.3184 7.73331 14.4647 7.7677 14.6039C7.8021 14.7431 7.87755 14.8688 7.98426 14.9646C8.09097 15.0603 8.22401 15.1218 8.36611 15.141L8.70111 15.241C9.05724 15.3286 9.42888 15.3321 9.78659 15.2512C10.1443 15.1703 10.4783 15.0073 10.7621 14.775C10.9545 15.3333 11.2827 15.835 11.7171 16.235C12.109 16.6728 12.6029 17.0071 13.1551 17.208C12.9199 17.489 12.7533 17.8209 12.6683 18.1773C12.5832 18.5337 12.5821 18.9051 12.6651 19.262L12.7651 19.597C12.7817 19.7399 12.8409 19.8745 12.9352 19.9832C13.0294 20.0919 13.1543 20.1696 13.2934 20.2062C13.4325 20.2428 13.5794 20.2366 13.715 20.1884C13.8505 20.1402 13.9684 20.0522 14.0531 19.936L16.7071 17.359C16.8222 17.2437 16.9123 17.106 16.972 16.9545C17.0316 16.8029 17.0595 16.6407 17.0538 16.478C17.0482 16.3152 17.0092 16.1553 16.9392 16.0083C16.8693 15.8612 16.7698 15.7301 16.6471 15.623V15.622ZM16.1921 9.894C16.3722 9.71635 16.6009 9.59609 16.8493 9.54842C17.0977 9.50074 17.3547 9.5278 17.5877 9.62616C17.8207 9.72452 18.0194 9.88978 18.1585 10.101C18.2976 10.3123 18.371 10.56 18.3693 10.813C18.3676 11.0659 18.291 11.3127 18.1491 11.5221C18.0072 11.7315 17.8064 11.8941 17.572 11.9893C17.3377 12.0846 17.0804 12.1082 16.8326 12.0573C16.5849 12.0063 16.3578 11.883 16.1801 11.703C15.942 11.4614 15.8095 11.1352 15.8118 10.796C15.814 10.4568 15.9508 10.1324 16.1921 9.894V9.894Z" fill="#FAFAFB"/>
<path d="M11.086 16.857C10.6929 16.4763 10.3601 16.0379 10.099 15.557C10.0371 15.5939 9.97975 15.6379 9.928 15.688C9.69571 15.991 9.59027 16.3725 9.63393 16.7518C9.67759 17.1311 9.86693 17.4786 10.162 17.721C10.4007 18.0189 10.7457 18.2126 11.1243 18.2613C11.5029 18.3099 11.8857 18.2098 12.192 17.982C12.237 17.9347 12.2772 17.8831 12.312 17.828C11.8592 17.5644 11.4463 17.2374 11.086 16.857V16.857Z" fill="#FAFAFB"/>
</svg>
