<svg id="Launch" xmlns="http://www.w3.org/2000/svg" width="28" height="28" viewBox="0 0 28 28">
  <circle id="Ellipse_110" data-name="Ellipse 110" cx="14" cy="14" r="14" fill="#44444f"/>
  <g id="noun_launch_2398155" transform="translate(7.747 7.775)">
    <g id="Group_4065" data-name="Group 4065" transform="translate(0 0)">
      <path id="Path_1459" data-name="Path 1459" d="M8.9,7.847,8.895,7.84C12.111,4.511,12.819.592,12.387.154,11.866-.374,8,.393,4.654,3.543l-.009-.009h0a1.19,1.19,0,0,0-1.736-.08L.3,6.075A.715.715,0,0,0,.619,7.366l.335.1A2.363,2.363,0,0,0,3.015,7,3.562,3.562,0,0,0,3.97,8.46a3.567,3.567,0,0,0,1.438.973,2.366,2.366,0,0,0-.49,2.054l.1.335a.715.715,0,0,0,1.288.339L8.96,9.584A1.189,1.189,0,0,0,8.9,7.848ZM8.445,2.119a1.279,1.279,0,1,1-.012,1.809A1.28,1.28,0,0,1,8.445,2.119Z" transform="translate(0 0)" fill="#fafafb"/>
      <path id="Path_1460" data-name="Path 1460" d="M5.94,19.913a5.389,5.389,0,0,1-.987-1.3.933.933,0,0,0-.171.131,1.472,1.472,0,0,0,.234,2.033,1.474,1.474,0,0,0,2.03.261.992.992,0,0,0,.12-.154A5.5,5.5,0,0,1,5.94,19.913Z" transform="translate(-2.601 -10.831)" fill="#fafafb"/>
    </g>
  </g>
</svg>
