<svg xmlns="http://www.w3.org/2000/svg" width="56" height="56" viewBox="0 0 56 56">
  <g id="Group_13435" data-name="Group 13435" transform="translate(-93 -31)">
    <rect id="Rectangle_369" data-name="Rectangle 369" width="56" height="56" rx="28" transform="translate(93 31)" fill="#1c1c24"/>
    <g id="Layer_12" data-name="Layer 12" transform="translate(92.943 46.385)">
      <path id="Path_1395" data-name="Path 1395" d="M33.053,23.216a1.516,1.516,0,0,1-1.514,1.514H26.574a1.514,1.514,0,0,1,0-3.027H31.54A1.514,1.514,0,0,1,33.053,23.216Zm2.31-15.409c0,4.076-5.343,11.2-6.192,12.307a.142.142,0,0,1-.227,0C28.09,19.017,22.75,12,22.75,7.807a6.307,6.307,0,1,1,12.614,0ZM31.929,7.37a2.872,2.872,0,1,0-2.872,2.872A2.872,2.872,0,0,0,31.929,7.37Z" fill="#fafafb"/>
    </g>
  </g>
</svg>
