<svg xmlns="http://www.w3.org/2000/svg" width="90.301" height="19.025" viewBox="0 0 90.301 19.025">
  <g id="Logo" transform="translate(-615.152 -142.776)">
    <path id="Path_137" data-name="Path 137" d="M0,0H4.806V4.806H0Z" transform="translate(700.646 153.478)" fill="#7735d5"/>
    <path id="Text" d="M-56.8-9.429a7.6,7.6,0,0,1-3.747-.879,6.064,6.064,0,0,1-2.443-2.472,7.714,7.714,0,0,1-.859-3.718,7.616,7.616,0,0,1,.859-3.689,6.08,6.08,0,0,1,2.443-2.463,7.6,7.6,0,0,1,3.747-.879,8.52,8.52,0,0,1,2.617.406,5.524,5.524,0,0,1,2.038,1.1l-1.1,2.569a6.744,6.744,0,0,0-1.738-.927,5.352,5.352,0,0,0-1.738-.29,3.17,3.17,0,0,0-2.54,1.043,4.689,4.689,0,0,0-.9,3.129,4.77,4.77,0,0,0,.9,3.148,3.143,3.143,0,0,0,2.54,1.062,5.352,5.352,0,0,0,1.738-.29,6.744,6.744,0,0,0,1.738-.927l1.1,2.569a5.524,5.524,0,0,1-2.038,1.1A8.52,8.52,0,0,1-56.8-9.429Zm11.106-.019a6.221,6.221,0,0,1-2.868-.618,4.412,4.412,0,0,1-1.864-1.767,5.418,5.418,0,0,1-.657-2.733,5.378,5.378,0,0,1,.657-2.714,4.473,4.473,0,0,1,1.864-1.777,6.141,6.141,0,0,1,2.868-.628,6.052,6.052,0,0,1,2.83.628A4.473,4.473,0,0,1-41-17.281a5.378,5.378,0,0,1,.657,2.714A5.418,5.418,0,0,1-41-11.834a4.412,4.412,0,0,1-1.864,1.767A6.13,6.13,0,0,1-45.693-9.449Zm0-2.607a1.71,1.71,0,0,0,1.4-.6,3,3,0,0,0,.493-1.912,3.005,3.005,0,0,0-.483-1.893,1.7,1.7,0,0,0-1.41-.6,1.756,1.756,0,0,0-1.439.6,2.962,2.962,0,0,0-.493,1.893,3,3,0,0,0,.493,1.912A1.756,1.756,0,0,0-45.693-12.056ZM-38.7-9.6V-23.818h3.5V-9.6Zm14.616-1a5.312,5.312,0,0,1-1.777.859,7.529,7.529,0,0,1-2.086.3,6.434,6.434,0,0,1-2.926-.618,4.387,4.387,0,0,1-1.883-1.767,5.378,5.378,0,0,1-.657-2.714,5.508,5.508,0,0,1,.628-2.665,4.646,4.646,0,0,1,1.729-1.816,4.881,4.881,0,0,1,2.549-.657,4.671,4.671,0,0,1,2.443.618,4.1,4.1,0,0,1,1.593,1.758,6.022,6.022,0,0,1,.56,2.685v.464h-6.412l.039-1.622h4.268l-.85.56a2.525,2.525,0,0,0-.4-1.555,1.365,1.365,0,0,0-1.149-.512,1.457,1.457,0,0,0-1.265.608,3.183,3.183,0,0,0-.435,1.845,3.322,3.322,0,0,0,.56,2.173,2.23,2.23,0,0,0,1.777.647,4.763,4.763,0,0,0,1.478-.241,4.643,4.643,0,0,0,1.323-.666Zm6.663,1.159a6.243,6.243,0,0,1-2.859-.608A4.2,4.2,0,0,1-22.105-11.8a5.479,5.479,0,0,1-.628-2.685,5.3,5.3,0,0,1,.686-2.733,4.725,4.725,0,0,1,1.912-1.816,6.061,6.061,0,0,1,2.868-.647,7.232,7.232,0,0,1,2.125.319,4.481,4.481,0,0,1,1.661.859l-.888,2.414a4.126,4.126,0,0,0-1.217-.676,3.92,3.92,0,0,0-1.333-.251,2.218,2.218,0,0,0-1.642.6,2.528,2.528,0,0,0-.6,1.854,2.62,2.62,0,0,0,.589,1.883,2.218,2.218,0,0,0,1.671.608,4.01,4.01,0,0,0,1.313-.241A3.754,3.754,0,0,0-14.37-13l.888,2.376a4.592,4.592,0,0,1-1.709.869A7.881,7.881,0,0,1-17.421-9.449Zm4.211-7.4v-2.569h7.687v2.569ZM-5.5-12.384v2.646a3.772,3.772,0,0,1-.888.232,7.167,7.167,0,0,1-.927.058,3.862,3.862,0,0,1-3.042-1.14,4.48,4.48,0,0,1-1.014-3.09v-7.957l3.5-1.12v9.078a1.467,1.467,0,0,0,.2.8,1.19,1.19,0,0,0,.531.464,1.751,1.751,0,0,0,.715.145,3.221,3.221,0,0,0,.415-.029Q-5.794-12.326-5.5-12.384ZM-4.191-9.6v-9.812H-.7V-9.6Zm-.1-14.621h3.65v3.148h-3.65ZM.406-16.846v-2.569h7.2v2.569ZM8.054-20.96a4.31,4.31,0,0,0-.927-.135,1.657,1.657,0,0,0-.715.155,1.194,1.194,0,0,0-.521.473,1.565,1.565,0,0,0-.193.821V-9.6H2.2V-19.685a4.48,4.48,0,0,1,1.014-3.09,3.836,3.836,0,0,1,3.023-1.14,7.624,7.624,0,0,1,.946.058,3.733,3.733,0,0,1,.869.212ZM9.87-5.2,9.058-7.865a7.46,7.46,0,0,0,1.5-.425,3.09,3.09,0,0,0,.956-.608,2.931,2.931,0,0,0,.6-.84l.811-1.777.946-1.429,2.607-6.47h3.438l-4.5,10.159a7.246,7.246,0,0,1-1.449,2.24A5.7,5.7,0,0,1,12.11-5.76,8.168,8.168,0,0,1,9.87-5.2Zm3.148-3.573L8.363-19.415h3.631l2.511,6.47Z" transform="translate(679 167)" fill="#fff"/>
  </g>
</svg>
