<svg xmlns="http://www.w3.org/2000/svg" width="32" height="32" viewBox="0 0 32 32">
  <g id="Log_out_" data-name="Log out " transform="translate(-15 -13.002)">
    <circle id="Ellipse_110" data-name="Ellipse 110" cx="16" cy="16" r="16" transform="translate(15 13.002)" fill="#44444f"/>
    <g id="Group_4036" data-name="Group 4036" transform="translate(4.594 2.181)">
      <g id="Group_4036-2" data-name="Group 4036" transform="translate(20.253 20.256)">
        <path id="Path_1445" data-name="Path 1445" d="M5.865,12.344a.544.544,0,0,1-.644.557H5.216a6.515,6.515,0,1,1,2.608,0l-.016,0a.545.545,0,0,1-.644-.557V6.186c0-.24.138-.3.307-.125l1.18,1.185a.651.651,0,0,0,.919-.921L6.958,3.667a.632.632,0,0,0-.91,0L3.459,6.324a.651.651,0,0,0,.919.921L5.558,6.06c.17-.171.307-.114.307.125Z" transform="translate(12.919 0) rotate(90)" fill="#fafafb"/>
      </g>
    </g>
  </g>
</svg>
