<svg xmlns="http://www.w3.org/2000/svg" width="24" height="24" viewBox="0 0 24 24">
  <g id="Group_13385" data-name="Group 13385" transform="translate(-812.5 -807)">
    <rect id="Rectangle_216" data-name="Rectangle 216" width="24" height="24" transform="translate(812.5 807)" fill="#b5b5be" opacity="0"/>
    <g id="noun_Media_1659858" transform="translate(790.58 788.902)">
      <path id="Path_934" data-name="Path 934" d="M40.39,21.117l10.334,1.134L49.519,33.195l-1.127-.124v3.464l1.648.181H50.1a.528.528,0,0,0,.525-.468l1.624-14.726a.528.528,0,0,0-.468-.581L39.649,19.61h-.057a.525.525,0,0,0-.525.471l-.8,7.278h1.439Z" transform="translate(-7.972)" fill="#d5d5dc"/>
      <g id="Group_1822" data-name="Group 1822" transform="translate(0.5)">
        <g id="Rectangle_219" data-name="Rectangle 219" transform="translate(23.92 28.1)" fill="rgba(213,213,220,0)" stroke="#d5d5dc" stroke-width="1.3">
          <rect width="15" height="12" rx="3" stroke="none"/>
          <rect x="0.65" y="0.65" width="13.7" height="10.7" rx="2.35" fill="none"/>
        </g>
        <path id="Path_935" data-name="Path 935" d="M27.3,17.539l-3.294-2.2a.31.31,0,0,0-.311-.015.3.3,0,0,0-.16.266v4.408a.3.3,0,0,0,.16.266.3.3,0,0,0,.142.036.317.317,0,0,0,.169-.051l3.294-2.2a.3.3,0,0,0,.136-.251A.3.3,0,0,0,27.3,17.539Z" transform="translate(6.093 16.31)" fill="#d5d5dc"/>
      </g>
    </g>
  </g>
</svg>
