<svg xmlns="http://www.w3.org/2000/svg" width="44" height="44" viewBox="0 0 44 44">
  <g id="media" transform="translate(-608 -312)">
    <circle id="Ellipse_101" data-name="Ellipse 101" cx="22" cy="22" r="22" transform="translate(608 312)" fill="#08b49a"/>
    <g id="Group_1800" data-name="Group 1800" transform="translate(615.488 327.449)">
      <g id="noun_Media_1659858" transform="translate(5.144 -2.999)">
        <path id="Path_934" data-name="Path 934" d="M40.258,21.023l9.693,1.064L48.821,32.352l-1.057-.116v3.249l1.546.17h.053a.5.5,0,0,0,.492-.439L51.378,21.4a.5.5,0,0,0-.439-.545L39.563,19.61H39.51a.492.492,0,0,0-.492.442l-.748,6.826h1.35Z" transform="translate(-32.757 -19.61)" fill="#fafafb"/>
        <g id="Group_1822" data-name="Group 1822" transform="translate(0 7.963)">
          <g id="Rectangle_219" data-name="Rectangle 219" fill="#fafafb" stroke="#fafafb" stroke-width="1.3">
            <rect width="14.069" height="11.255" rx="3" stroke="none"/>
            <rect x="0.65" y="0.65" width="12.769" height="9.955" rx="2.35" fill="none"/>
          </g>
          <path id="Path_935" data-name="Path 935" d="M27.071,17.4l-3.089-2.067a.291.291,0,0,0-.292-.014.282.282,0,0,0-.15.249V19.7a.279.279,0,0,0,.15.249.282.282,0,0,0,.133.034.3.3,0,0,0,.159-.048l3.089-2.067a.278.278,0,0,0,.127-.235A.285.285,0,0,0,27.071,17.4Z" transform="translate(-18.181 -12.007)" fill="#08b49a"/>
        </g>
      </g>
    </g>
  </g>
</svg>
