<svg id="media" xmlns="http://www.w3.org/2000/svg" width="28" height="28" viewBox="0 0 28 28">
  <circle id="Ellipse_110" data-name="Ellipse 110" cx="14" cy="14" r="14" fill="#44444f"/>
  <g id="noun_gallery_3543352" transform="translate(-9.589 -11.807)">
    <path id="Path_1463" data-name="Path 1463" d="M47.592,18.807a1.5,1.5,0,1,1-1.054,1.737A1.509,1.509,0,0,1,47.592,18.807Z" transform="translate(-26.925 0)" fill="#fafafb"/>
    <path id="Path_1464" data-name="Path 1464" d="M23.482,30.516a.951.951,0,0,1,.346-.042c1.518.008,3.044-.008,4.561,0a2.093,2.093,0,0,1,1.981,2.066c0,2.639.008,5.269,0,7.908A2.111,2.111,0,0,1,28.3,42.429c-3.06,0-6.129.008-9.2,0A2.119,2.119,0,0,1,17.1,40.38V32.539a2.068,2.068,0,0,1,.953-1.728c.236-.152.556-.329.818-.135a.5.5,0,0,1-.093.86,1.114,1.114,0,0,0-.683,1c0,2.563-.008,5.126,0,7.68.641-.8,1.281-1.593,1.922-2.394a.858.858,0,0,1,1.206-.143c.287.261.43.632.708.9a.85.85,0,0,0,1.189-.093c.666-.826,1.324-1.652,1.99-2.479a.841.841,0,0,1,.995-.261c.312.126.455.447.649.7.877,1.231,1.728,2.487,2.622,3.71,0-2.538.008-5.075,0-7.621A1.1,1.1,0,0,0,28.3,31.468c-1.492-.008-2.985,0-4.477,0a.783.783,0,0,1-.371-.059A.535.535,0,0,1,23.482,30.516Z" transform="translate(0 -10.739)" fill="#fafafb"/>
  </g>
</svg>
