<svg xmlns="http://www.w3.org/2000/svg" width="14.138" height="14.138" viewBox="0 0 14.138 14.138">
  <path id="Path_3120" data-name="Path 3120" d="M37.406,36.675A5.613,5.613,0,0,1,31.8,31.069V26.5l1.92,1.92a.731.731,0,1,0,1.034-1.034l-3.169-3.169a.731.731,0,0,0-1.034,0l-3.169,3.169a.731.731,0,1,0,1.034,1.034l1.92-1.92v4.572a5.613,5.613,0,0,1-5.606,5.606.731.731,0,0,0,0,1.463,7.086,7.086,0,0,0,6.338-3.93,7.086,7.086,0,0,0,6.338,3.93.731.731,0,0,0,0-1.463Z" transform="translate(-24 -24)" fill="#fff"/>
</svg>
