<svg xmlns="http://www.w3.org/2000/svg" width="56" height="56" viewBox="0 0 56 56">
  <g id="News_URL" data-name="News URL" transform="translate(-93 -31)">
    <rect id="Rectangle_369" data-name="Rectangle 369" width="56" height="56" rx="28" transform="translate(93 31)" fill="#1c1c24"/>
    <g id="News" transform="translate(100.875 36.661)">
      <path id="Path_3137" data-name="Path 3137" d="M19.1,31.133a.745.745,0,1,1-1.49,0,8.479,8.479,0,0,0-8.468-8.471.745.745,0,1,1,0-1.49A9.971,9.971,0,0,1,19.1,31.133ZM9.145,24.465a.745.745,0,1,0,0,1.49,5.181,5.181,0,0,1,5.174,5.177.745.745,0,1,0,1.49,0A6.673,6.673,0,0,0,9.145,24.465Zm0,3.294a.745.745,0,1,0,0,1.49,1.883,1.883,0,0,1,1.88,1.883.745.745,0,1,0,1.49,0,3.375,3.375,0,0,0-3.371-3.373ZM28.621,12.8H11.629A3.233,3.233,0,0,0,8.4,16.029V18.62a.745.745,0,0,0,1.49,0V16.029a1.741,1.741,0,0,1,1.739-1.739H28.621a1.741,1.741,0,0,1,1.739,1.739V28.649a1.741,1.741,0,0,1-1.739,1.739H21.653a.745.745,0,0,0,0,1.49h6.968a3.233,3.233,0,0,0,3.229-3.229V16.029A3.233,3.233,0,0,0,28.621,12.8Z" fill="#fff"/>
      <path id="Path_3137_-_Outline" data-name="Path 3137 - Outline" d="M28.621,32.128H21.653a1,1,0,0,1,0-1.99h6.968a1.494,1.494,0,0,0,1.489-1.489V16.029A1.494,1.494,0,0,0,28.62,14.54H11.629A1.494,1.494,0,0,0,10.14,16.03V18.62a1,1,0,0,1-1.99,0V16.029a3.489,3.489,0,0,1,3.479-3.479H28.621A3.489,3.489,0,0,1,32.1,16.029v12.62A3.489,3.489,0,0,1,28.621,32.128Zm-6.968-1.49a.5.5,0,0,0,0,.99H28.62a2.988,2.988,0,0,0,2.98-2.98V16.029a2.988,2.988,0,0,0-2.98-2.979H11.629A2.988,2.988,0,0,0,8.65,16.03V18.62a.5.5,0,0,0,.99,0V16.029a2,2,0,0,1,1.989-1.989H28.621a2,2,0,0,1,1.989,1.989v12.62a2,2,0,0,1-1.989,1.989Zm-3.294,1.49a1,1,0,0,1-1-1,8.229,8.229,0,0,0-8.219-8.221,1,1,0,0,1,0-1.99A10.221,10.221,0,0,1,19.354,31.133,1,1,0,0,1,18.359,32.128ZM9.145,21.421a.5.5,0,0,0,0,.99,8.729,8.729,0,0,1,8.718,8.721.5.5,0,1,0,.99,0,9.721,9.721,0,0,0-9.709-9.712Zm5.919,10.707h0a1,1,0,0,1-1-1,4.939,4.939,0,0,0-4.924-4.927,1,1,0,0,1,0-1.99,6.934,6.934,0,0,1,6.914,6.918,1,1,0,0,1-1,1Zm-5.92-7.413a.5.5,0,0,0,0,.99,5.439,5.439,0,0,1,5.424,5.427.5.5,0,0,0,.5.5h0a.5.5,0,0,0,.5-.5A6.433,6.433,0,0,0,9.145,24.715Zm2.626,7.413a1,1,0,0,1-1-1A1.636,1.636,0,0,0,9.145,29.5a1,1,0,0,1,0-1.99,3.631,3.631,0,0,1,3.621,3.623A1,1,0,0,1,11.771,32.128ZM9.145,28.009a.5.5,0,0,0,0,.99,2.137,2.137,0,0,1,2.13,2.133.5.5,0,1,0,.99,0A3.13,3.13,0,0,0,9.145,28.009Z" fill="#fff"/>
    </g>
  </g>
</svg>
