<svg xmlns="http://www.w3.org/2000/svg" width="24" height="24" viewBox="0 0 24 24">
  <g id="Group_13400" data-name="Group 13400" transform="translate(-525.553 -1020.129)">
    <rect id="Rectangle_750" data-name="Rectangle 750" width="24" height="24" transform="translate(525.553 1020.129)" fill="#92929d" opacity="0"/>
    <path id="Path_1458" data-name="Path 1458" d="M2,17.8V7.641A2.257,2.257,0,0,1,4.257,5.385h6.9L8.935,7.641H4.257V17.8H14.411V13.117L16.668,10.9v6.9a2.257,2.257,0,0,1-2.257,2.257H4.257A2.257,2.257,0,0,1,2,17.8ZM18.36,2a1.692,1.692,0,0,0-1.2.5L9.146,10.65a2.309,2.309,0,0,0-.545.889l-.812,2.445a.231.231,0,0,0,.291.291l2.445-.812a2.309,2.309,0,0,0,.878-.557l8.154-8.018A1.692,1.692,0,0,0,18.36,2Z" transform="translate(527.371 1020.102)" fill="#fafafb"/>
  </g>
</svg>
