<svg xmlns="http://www.w3.org/2000/svg" width="56" height="56" viewBox="0 0 56 56">
  <g id="Group_13436" data-name="Group 13436" transform="translate(-93 -31)">
    <rect id="Rectangle_369" data-name="Rectangle 369" width="56" height="56" rx="28" transform="translate(93 31)" fill="#1c1c24"/>
    <g id="Group_3754" data-name="Group 3754" transform="translate(107.989 46.736)">
      <path id="Path_1397" data-name="Path 1397" d="M82.06,127.984v3.129h-.915v-3.129a1.444,1.444,0,0,1-1.28-2.506,1.444,1.444,0,0,1,.584-2.508,1.173,1.173,0,0,1,2.306,0,1.444,1.444,0,0,1,.584,2.509,1.444,1.444,0,0,1-1.279,2.506Zm22.006,0v3.129h-.914v-3.129a1.444,1.444,0,0,1-1.28-2.506,1.444,1.444,0,0,1,.584-2.508,1.173,1.173,0,0,1,2.306,0,1.444,1.444,0,0,1,.584,2.509,1.444,1.444,0,0,1-1.279,2.506Z" transform="translate(-79.35 -107.85)" fill="#fafafb"/>
      <path id="Exclusion_2" data-name="Exclusion 2" d="M-855.847,8877h-9.307a.885.885,0,0,1-.847-.917v-20.166a.886.886,0,0,1,.847-.918h9.307a.886.886,0,0,1,.847.918v20.166A.885.885,0,0,1-855.847,8877Zm-8.46-11v1.832h7.616V8866Zm0-3.667v1.833h7.616v-1.833Zm0-3.666v1.832h7.616v-1.832Z" transform="translate(873.511 -8853.736)" fill="#fafafb"/>
    </g>
  </g>
</svg>
