<svg xmlns="http://www.w3.org/2000/svg" width="44" height="44" viewBox="0 0 44 44">
  <g id="organization" transform="translate(-436 -312)">
    <circle id="Ellipse_101" data-name="Ellipse 101" cx="22" cy="22" r="22" transform="translate(436 312)" fill="#00b49a"/>
    <path id="Path_1397" data-name="Path 1397" d="M81.759,127.321V130.1h-.813v-2.782a1.284,1.284,0,0,1-1.138-2.228,1.284,1.284,0,0,1,.519-2.23,1.043,1.043,0,0,1,2.05,0,1.284,1.284,0,0,1,.519,2.23,1.284,1.284,0,0,1-1.137,2.228Zm19.564,0V130.1h-.813v-2.782a1.284,1.284,0,0,1-1.138-2.228,1.284,1.284,0,0,1,.519-2.23,1.043,1.043,0,0,1,2.05,0,1.284,1.284,0,0,1,.519,2.23,1.284,1.284,0,0,1-1.137,2.228Z" transform="translate(366.865 213.676)" fill="#fff"/>
    <path id="Exclusion_2" data-name="Exclusion 2" d="M9.027,19.56H.753A.787.787,0,0,1,0,18.744V.816A.787.787,0,0,1,.753,0H9.027a.787.787,0,0,1,.753.816V18.744A.787.787,0,0,1,9.027,19.56ZM1.505,9.781V11.41H8.276V9.781Zm0-3.26V8.15H8.276V6.521Zm0-3.259V4.891H8.276V3.262Z" transform="translate(452.892 324.219)" fill="#fff"/>
  </g>
</svg>
