<svg id="noun_PDF_450574" xmlns="http://www.w3.org/2000/svg" width="71.51" height="74.301" viewBox="0 0 71.51 74.301">
  <path id="Path_1596" data-name="Path 1596" d="M161.191,0h-31.4A7.716,7.716,0,0,0,122,7.717V30.952h41.317a9.237,9.237,0,0,1,9.257,9.2V57.469a9.3,9.3,0,0,1-9.257,9.278h-41.3a7.773,7.773,0,0,0,7.772,7.553h45.881a7.855,7.855,0,0,0,7.822-7.85V22.319ZM148.326,22.085H131.835a1.686,1.686,0,0,1-1.166-2.867,1.659,1.659,0,0,1,1.166-.5h16.491a1.683,1.683,0,0,1,0,3.366Zm.075-9.934H131.91a1.662,1.662,0,0,1-1.649-1.664,1.609,1.609,0,0,1,.483-1.152,1.632,1.632,0,0,1,1.166-.468H148.4a1.642,1.642,0,1,1,0,3.284Zm11.284,11.576V5.524l18.25,18.2Z" transform="translate(-111.984)" fill="#292932"/>
  <path id="Path_1597" data-name="Path 1597" d="M183.284,554.023H180V550h3.284A2.013,2.013,0,1,1,183.284,554.023Z" transform="translate(-165.222 -504.845)" fill="#292932"/>
  <path id="Path_1598" data-name="Path 1598" d="M31.8,438.858a3.433,3.433,0,0,0-3.612-3.6H25.78v7.389h2.405A3.427,3.427,0,0,0,31.8,438.858Zm0,0a3.433,3.433,0,0,0-3.612-3.6H25.78v7.389h2.405A3.427,3.427,0,0,0,31.8,438.858Zm24.771-7.919A5.938,5.938,0,0,0,50.629,425H5.938A5.938,5.938,0,0,0,0,430.938v16.038a5.938,5.938,0,0,0,5.938,5.938H50.629a5.938,5.938,0,0,0,5.938-5.938V430.938Zm-38.505,10.4H14.778V444.7H12.643V433.14c1.806,0,3.612-.016,5.419-.016A4.11,4.11,0,1,1,18.062,441.338ZM28.185,444.7h-4.54V433.21h4.54a5.747,5.747,0,1,1,0,11.494Zm15.821-9.442H37.848v3.2h5.829v1.97H37.848V444.7H35.714V433.21h8.292Zm-15.821,0H25.78v7.389h2.405a3.7,3.7,0,0,0,0-7.389Z" transform="translate(0 -390.107)" fill="#292932"/>
</svg>
