<svg id="noun_PDF_450574" xmlns="http://www.w3.org/2000/svg" width="17.334" height="18.01" viewBox="0 0 17.334 18.01">
  <path id="Path_1596" data-name="Path 1596" d="M131.5,0h-7.611A1.87,1.87,0,0,0,122,1.871V7.5h10.015a2.239,2.239,0,0,1,2.244,2.231v4.2a2.255,2.255,0,0,1-2.244,2.249H122a1.884,1.884,0,0,0,1.884,1.831H135.01a1.9,1.9,0,0,0,1.9-1.9V5.41Zm-3.119,5.353h-4a.409.409,0,0,1-.283-.695.4.4,0,0,1,.283-.121h4a.408.408,0,0,1,0,.816Zm.018-2.408h-4a.4.4,0,0,1-.4-.4.39.39,0,0,1,.117-.279.4.4,0,0,1,.283-.113h4a.4.4,0,1,1,0,.8Zm2.735,2.806V1.339l4.424,4.412Z" transform="translate(-119.572)" fill="#fafafb"/>
  <path id="Path_1597" data-name="Path 1597" d="M180.8,550.975H180V550h.8A.488.488,0,1,1,180.8,550.975Z" transform="translate(-176.418 -539.055)" fill="#fafafb"/>
  <path id="Path_1598" data-name="Path 1598" d="M7.707,428.359a.832.832,0,0,0-.875-.871H6.249v1.791h.583A.831.831,0,0,0,7.707,428.359Zm0,0a.832.832,0,0,0-.875-.871H6.249v1.791h.583A.831.831,0,0,0,7.707,428.359Zm6-1.92A1.439,1.439,0,0,0,12.272,425H1.439A1.439,1.439,0,0,0,0,426.439v3.887a1.439,1.439,0,0,0,1.439,1.439H12.272a1.439,1.439,0,0,0,1.439-1.439v-3.887ZM4.378,428.96h-.8v.816H3.065v-2.8c.438,0,.876,0,1.313,0A1,1,0,1,1,4.378,428.96Zm2.454.816h-1.1V426.99h1.1a1.393,1.393,0,1,1,0,2.786Zm3.835-2.289H9.174v.776h1.413v.478H9.174v1.035H8.657V426.99h2.01Zm-3.835,0H6.249v1.791h.583a.9.9,0,0,0,0-1.791Z" transform="translate(0 -416.542)" fill="#fafafb"/>
</svg>
