<svg xmlns="http://www.w3.org/2000/svg" width="32" height="32" viewBox="0 0 32 32">
  <g id="Group_4212" data-name="Group 4212" transform="translate(-230 -299)">
    <g id="Input" transform="translate(230 299)" fill="rgba(0,180,154,0)" stroke="#292932" stroke-width="1">
      <rect width="32" height="32" rx="8" stroke="none"/>
      <rect x="0.5" y="0.5" width="31" height="31" rx="7.5" fill="none"/>
    </g>
    <path id="Path_1594" data-name="Path 1594" d="M16.193,8.9a1.255,1.255,0,0,0-1.181-.83H13.99L13.859,10.6a.538.538,0,0,1-.018.115.573.573,0,0,1-.042.108.613.613,0,0,1-.063.1.638.638,0,0,1-.085.088.664.664,0,0,1-.1.071.707.707,0,0,1-.113.053.724.724,0,0,1-.121.033.711.711,0,0,1-.125.012H5.135a.711.711,0,0,1-.125-.012.724.724,0,0,1-.121-.033.707.707,0,0,1-.113-.053.664.664,0,0,1-.1-.071.638.638,0,0,1-.085-.088.608.608,0,0,1-.065-.1.583.583,0,0,1-.042-.108.543.543,0,0,1-.018-.115L4.335,8.069H3.312a1.255,1.255,0,0,0-1.181.83l-.844,2.325a4.426,4.426,0,0,0-.1,2.677l.465,1.717a2.386,2.386,0,0,0,2.3,1.75h.784L4.587,18.55a1.186,1.186,0,0,0,1.177,1.328h6.8a1.186,1.186,0,0,0,.767-.281h0a1.186,1.186,0,0,0,.41-1.048l-.151-1.189h.782a2.386,2.386,0,0,0,2.3-1.742l.42-1.521a6.985,6.985,0,0,0,.209-1.544h0a3.487,3.487,0,0,0-.209-1.191ZM3.93,14.469a.729.729,0,1,1,.517-.215A.729.729,0,0,1,3.93,14.469Zm2.421,4.057.3-3.795h5.028l.3,3.8ZM5.73,10.006,5.564,5.551a.618.618,0,0,1,0-.128.581.581,0,0,1,.09-.226.621.621,0,0,1,.085-.1.644.644,0,0,1,.1-.073.626.626,0,0,1,.11-.058.641.641,0,0,1,.115-.035A.691.691,0,0,1,6.2,4.92h5.932a.691.691,0,0,1,.133.013.644.644,0,0,1,.121.037.636.636,0,0,1,.11.058.664.664,0,0,1,.1.078.626.626,0,0,1,.076.095.594.594,0,0,1,.056.108.588.588,0,0,1,.033.118.618.618,0,0,1,0,.128l-.166,4.455Z" transform="translate(236.642 302.692)" fill="#fafafb"/>
  </g>
</svg>
