<svg xmlns="http://www.w3.org/2000/svg" width="40" height="40" viewBox="0 0 40 40">
  <g id="Profiler" transform="translate(-2096 18431)">
    <g id="Ellipse_11" data-name="Ellipse 11" transform="translate(2096 -18431)" fill="rgba(119,53,213,0)" stroke="#696974" stroke-width="1" opacity="0.4">
      <circle cx="20" cy="20" r="20" stroke="none"/>
      <circle cx="20" cy="20" r="19.5" fill="none"/>
    </g>
    <path id="Path_3106" data-name="Path 3106" d="M19.221,16.413a2.8,2.8,0,0,0-1.418.4l-1.362-1.369a6.318,6.318,0,0,0-.007-7.884L17.8,6.184a2.846,2.846,0,1,0-.99-.99L15.437,6.563a6.3,6.3,0,0,0-7.877,0L6.184,5.194a2.846,2.846,0,1,0-.99.99L6.563,7.56a6.318,6.318,0,0,0-.007,7.884L5.194,16.813a2.846,2.846,0,1,0,.99.99l1.369-1.369c.014.014.028.021.042.035a6.325,6.325,0,0,0,7.807,0c.014-.014.028-.021.042-.035L16.813,17.8a2.8,2.8,0,1,0,2.408-1.39Zm-3.917-1.8a4.2,4.2,0,0,0-1.727-1.853.147.147,0,0,1-.042-.028,2.808,2.808,0,1,0-4.072,0,.147.147,0,0,1-.042.028,4.2,4.2,0,0,0-1.727,1.853,4.914,4.914,0,1,1,7.61,0Z" transform="translate(2104.501 -18422.5)" fill="#fafafb"/>
  </g>
</svg>
