<svg xmlns="http://www.w3.org/2000/svg" width="32" height="32" viewBox="0 0 32 32">
  <g id="Group_13449" data-name="Group 13449" transform="translate(-710 -1542)">
    <g id="Input" transform="translate(710 1542)" fill="rgba(0,180,154,0)" stroke="#292932" stroke-width="1">
      <rect width="32" height="32" rx="8" stroke="none"/>
      <rect x="0.5" y="0.5" width="31" height="31" rx="7.5" fill="none"/>
    </g>
    <g id="Group_4215" data-name="Group 4215" transform="translate(705.111 1543.519)">
      <path id="Path_1507" data-name="Path 1507" d="M38.935,26.539a.928.928,0,0,0-.15,1.313,4.743,4.743,0,0,1-3.677,7.673.936.936,0,0,0-1.351-1.294L31.6,36.312l2.1,2.307a.911.911,0,0,0,.694.3.94.94,0,0,0,.732-1.538,6.615,6.615,0,0,0,5.121-10.693A.945.945,0,0,0,38.935,26.539Z" transform="translate(-13.811 -16.133)" fill="#fafafb"/>
      <path id="Path_1508" data-name="Path 1508" d="M16.72,19.016a.885.885,0,0,0,.563-.188.93.93,0,0,0,.169-1.313,4.656,4.656,0,0,1-.975-2.87A4.766,4.766,0,0,1,21.11,9.9a.926.926,0,0,0,.038,1.257.952.952,0,0,0,.675.281.971.971,0,0,0,.657-.263l2.139-2.082-2.1-2.307A.943.943,0,0,0,21.11,8.042a6.628,6.628,0,0,0-5.159,10.637A1.039,1.039,0,0,0,16.72,19.016Z" transform="translate(0 0)" fill="#fafafb"/>
    </g>
  </g>
</svg>
