<svg width="28" height="28" viewBox="0 0 28 28" fill="none" xmlns="http://www.w3.org/2000/svg">
<rect width="28" height="28" rx="3" fill="#44444F"/>
<path d="M11.6745 11.356V9.29906L9.27075 11.831H11.1995C11.3253 11.8305 11.4459 11.7803 11.5349 11.6913C11.6239 11.6023 11.6741 11.4818 11.6745 11.356V11.356Z" fill="#FAFAFB"/>
<path d="M10.6641 17.0718V16.5026H14.3517C14.3957 16.1488 14.5092 15.8071 14.6855 15.4971H10.6641V14.9279H15.1158C15.3685 14.6705 15.6698 14.4658 16.0022 14.3257C16.3346 14.1856 16.6916 14.113 17.0523 14.112V9.85158C17.028 9.60571 16.9082 9.37916 16.7188 9.2205C16.5294 9.06185 16.2854 8.98371 16.0391 9.00284H12.2436V11.356C12.2434 11.6329 12.1333 11.8984 11.9376 12.0942C11.7418 12.29 11.4762 12.4 11.1993 12.4002H9V17.8419C9 18.1106 9.10675 18.3684 9.29677 18.5584C9.48679 18.7484 9.74452 18.8552 10.0132 18.8552H15.213C14.709 18.3925 14.3975 17.7572 14.3404 17.0754L10.6641 17.0718ZM10.6641 13.3532H15.3882V13.9224H10.6641V13.3532Z" fill="#FAFAFB"/>
<path d="M17.0606 14.6812C16.6331 14.6813 16.2152 14.8082 15.8598 15.0458C15.5044 15.2833 15.2274 15.621 15.0639 16.016C14.9003 16.411 14.8576 16.8456 14.941 17.2649C15.0244 17.6842 15.2303 18.0693 15.5326 18.3716C15.8349 18.6739 16.22 18.8798 16.6393 18.9632C17.0586 19.0466 17.4932 19.0039 17.8882 18.8403C18.2832 18.6768 18.6208 18.3998 18.8584 18.0444C19.096 17.689 19.2229 17.2711 19.223 16.8436C19.2231 16.5596 19.1672 16.2784 19.0585 16.016C18.9499 15.7536 18.7906 15.5152 18.5898 15.3144C18.389 15.1135 18.1506 14.9543 17.8882 14.8456C17.6258 14.737 17.3446 14.6811 17.0606 14.6812V14.6812ZM18.3182 17.2173L17.2925 18.1155C17.2282 18.1712 17.146 18.2019 17.0609 18.2019C16.9758 18.2019 16.8936 18.1712 16.8294 18.1155L15.803 17.2173C15.7698 17.1896 15.7426 17.1557 15.7227 17.1173C15.7029 17.079 15.691 17.0371 15.6876 16.9941C15.6842 16.951 15.6894 16.9078 15.703 16.8668C15.7166 16.8258 15.7382 16.788 15.7667 16.7555C15.7951 16.7231 15.8297 16.6966 15.8685 16.6777C15.9073 16.6588 15.9495 16.6479 15.9926 16.6455C16.0357 16.6432 16.0788 16.6495 16.1194 16.664C16.1601 16.6786 16.1974 16.7011 16.2292 16.7303L16.7376 17.175V15.7987C16.7376 15.7129 16.7717 15.6306 16.8324 15.5699C16.893 15.5092 16.9754 15.4751 17.0612 15.4751C17.147 15.4751 17.2294 15.5092 17.2901 15.5699C17.3507 15.6306 17.3848 15.7129 17.3848 15.7987V17.175L17.8927 16.7303C17.9242 16.7001 17.9616 16.6766 18.0025 16.6612C18.0434 16.6458 18.087 16.6388 18.1307 16.6407C18.1743 16.6426 18.2172 16.6534 18.2566 16.6723C18.296 16.6912 18.3311 16.7179 18.3599 16.7508C18.3887 16.7836 18.4106 16.822 18.4242 16.8636C18.4377 16.9051 18.4428 16.949 18.4389 16.9925C18.4351 17.036 18.4224 17.0784 18.4018 17.1169C18.3812 17.1554 18.3529 17.1894 18.3188 17.2167L18.3182 17.2173Z" fill="#FAFAFB"/>
</svg>
