<svg xmlns="http://www.w3.org/2000/svg" width="12.259" height="13.91" viewBox="0 0 12.259 13.91">
  <path id="Path_3119" data-name="Path 3119" d="M20.791,11.334a6.439,6.439,0,0,0-1.313-1.957,5.988,5.988,0,0,0-1.957-1.313,6.509,6.509,0,0,0-1.983-.482V6L11.357,8.412,15.512,10.8V9.243a4.513,4.513,0,1,1-4.878,5.2.817.817,0,0,0-.831-.7h0a.84.84,0,0,0-.831.965,6.055,6.055,0,0,0,1.715,3.4,5.988,5.988,0,0,0,1.957,1.313,6.153,6.153,0,0,0,2.412.482,6.25,6.25,0,0,0,2.412-.482,6.439,6.439,0,0,0,1.957-1.313,5.988,5.988,0,0,0,1.313-1.957,6.153,6.153,0,0,0,.482-2.412A5.743,5.743,0,0,0,20.791,11.334Z" transform="translate(-8.962 -6)" fill="#fff"/>
</svg>
