<svg xmlns="http://www.w3.org/2000/svg" width="32" height="32" viewBox="0 0 32 32">
  <g id="Group_13465" data-name="Group 13465" transform="translate(-326 -690)">
    <circle id="_7549fc90584c11e58b6851f3649a1b0c_content_medium" data-name="7549fc90584c11e58b6851f3649a1b0c_content_medium" cx="16" cy="16" r="16" transform="translate(326 690)" fill="#00b49a"/>
    <path id="Success_Icon" data-name="Success Icon" d="M145.458,3555.917a2.206,2.206,0,0,0,1.575-.658l5.422-5.7a1.513,1.513,0,0,0,0-2.123,1.475,1.475,0,0,0-2.1,0l-4.9,5.167-1.922-2.193a1.471,1.471,0,0,0-2.1,0,1.512,1.512,0,0,0,0,2.122l2.446,2.724a2.2,2.2,0,0,0,1.575.658Z" transform="translate(195.055 -2845.458)" fill="#fff"/>
  </g>
</svg>
