<svg xmlns="http://www.w3.org/2000/svg" width="32" height="32" viewBox="0 0 32 32">
  <g id="Group_13466" data-name="Group 13466" transform="translate(-326 -691)">
    <g id="_7549fc90584c11e58b6851f3649a1b0c_content_medium" data-name="7549fc90584c11e58b6851f3649a1b0c_content_medium" transform="translate(326 691)" fill="rgba(0,180,154,0)" stroke="#44444f" stroke-width="1">
      <circle cx="16" cy="16" r="16" stroke="none"/>
      <circle cx="16" cy="16" r="15.5" fill="none"/>
    </g>
    <path id="Success_Icon" data-name="Success Icon" d="M145.667,3556.335a2.308,2.308,0,0,0,1.649-.689l5.676-5.963a1.584,1.584,0,0,0,0-2.222,1.544,1.544,0,0,0-2.2,0l-5.125,5.408-2.012-2.3a1.54,1.54,0,0,0-2.2,0,1.583,1.583,0,0,0,0,2.221l2.561,2.852a2.306,2.306,0,0,0,1.649.689Z" transform="translate(194.777 -2844.667)" fill="#44444f"/>
  </g>
</svg>
