<svg xmlns="http://www.w3.org/2000/svg" width="32" height="32" viewBox="0 0 32 32">
  <g id="settings" transform="translate(-15 -13.002)">
    <circle id="Ellipse_110" data-name="Ellipse 110" cx="16" cy="16" r="16" transform="translate(15 13.002)" fill="#44444f"/>
    <g id="Group_4038" data-name="Group 4038" transform="translate(18.165 16.092)">
      <path id="Path_1446" data-name="Path 1446" d="M17.856,15.919a.6.6,0,0,0,.061.57,3.494,3.494,0,0,1,.319.594,1,1,0,0,1-.214,1.116l-.445.445a1,1,0,0,1-1.116.214,3.494,3.494,0,0,1-.594-.319.6.6,0,0,0-.57-.061l-.55.231a.588.588,0,0,0-.36.441,3.8,3.8,0,0,1-.2.651,1,1,0,0,1-.938.639h-.631a1,1,0,0,1-.938-.639,3.8,3.8,0,0,1-.2-.651.588.588,0,0,0-.36-.441l-.55-.231a.6.6,0,0,0-.57.061,3.494,3.494,0,0,1-.594.319,1,1,0,0,1-1.116-.214L7.847,18.2a1,1,0,0,1-.214-1.116,3.494,3.494,0,0,1,.319-.594.6.6,0,0,0,.061-.57l-.226-.55a.6.6,0,0,0-.445-.36,3.8,3.8,0,0,1-.651-.2,1,1,0,0,1-.639-.938v-.631A1,1,0,0,1,6.69,12.3a3.484,3.484,0,0,1,.651-.194.607.607,0,0,0,.445-.364l.226-.55a.589.589,0,0,0-.061-.566,3.675,3.675,0,0,1-.319-.6,1.007,1.007,0,0,1,.214-1.116l.445-.445a1,1,0,0,1,1.116-.214A3.542,3.542,0,0,1,10,8.579a.607.607,0,0,0,.57.057l.55-.226a.6.6,0,0,0,.36-.445,3.8,3.8,0,0,1,.2-.651,1,1,0,0,1,.938-.635h.631a1,1,0,0,1,.938.635,3.8,3.8,0,0,1,.2.651.6.6,0,0,0,.36.445l.55.226a.607.607,0,0,0,.57-.057,3.542,3.542,0,0,1,.594-.324,1,1,0,0,1,1.116.214l.445.445a1.007,1.007,0,0,1,.214,1.116,3.675,3.675,0,0,1-.319.6.589.589,0,0,0-.061.566l.226.55a.607.607,0,0,0,.445.364,3.484,3.484,0,0,1,.651.194,1,1,0,0,1,.639.938v.631a1,1,0,0,1-.639.938,3.8,3.8,0,0,1-.651.2.6.6,0,0,0-.445.36Zm-1.881-2.362A3.041,3.041,0,1,0,12.934,16.6a3.041,3.041,0,0,0,3.041-3.041Z" transform="translate(0)" fill="#fafafb"/>
    </g>
  </g>
</svg>
