<svg xmlns="http://www.w3.org/2000/svg" width="24" height="24" viewBox="0 0 24 24">
  <g id="Group_13396" data-name="Group 13396" transform="translate(-819 -783)">
    <rect id="bg" width="24" height="24" transform="translate(819 783)" fill="rgba(19,19,26,0)" opacity="0.99"/>
    <path id="share" d="M0,12.54a.505.505,0,0,0,.4.447.505.505,0,0,0,.574-.35A8.438,8.438,0,0,1,3.247,9.721a8.6,8.6,0,0,1,5.4-1.944h2.051V9.556a.428.428,0,0,0,.136.3.418.418,0,0,0,.272.107.4.4,0,0,0,.272-.107l4.588-4.588a.408.408,0,0,0,0-.574L11.383.127a.408.408,0,0,0-.69.282V2.188H9.867A9.993,9.993,0,0,0,2.09,6.076,10.479,10.479,0,0,0,0,12.54Z" transform="translate(823.002 788.988)" fill="#44444f"/>
  </g>
</svg>
