<svg xmlns="http://www.w3.org/2000/svg" width="40" height="40" viewBox="0 0 40 40">
  <g id="social_engineering_" data-name="social engineering " transform="translate(-2096 18431)">
    <g id="Ellipse_11" data-name="Ellipse 11" transform="translate(2096 -18431)" fill="rgba(119,53,213,0)" stroke="#696974" stroke-width="1" opacity="0.4">
      <circle cx="20" cy="20" r="20" stroke="none"/>
      <circle cx="20" cy="20" r="19.5" fill="none"/>
    </g>
    <g id="noun_Data_1731722" transform="translate(2088.915 -18529.871)" opacity="0">
      <path id="Path_1480" data-name="Path 1480" d="M181.422,112.645l-.006-.032c0,.027,0,.055,0,.082s-.006.084-.006.1a1.154,1.154,0,0,1-.034.122l-.006.019,0,.008s0,.008,0,.011,0,0,0,0,0,0,0,0l-.006.013-.025.051a1.566,1.566,0,0,1-.093.148s.006-.006.006-.008a.154.154,0,0,1-.011.013.03.03,0,0,1-.006.008h0a.184.184,0,0,0-.017.021l-.034.04a2.056,2.056,0,0,1-.15.154l-.051.044c-.008.006-.015.015-.023.021l-.027.025-.053.044h0a.007.007,0,0,1,0,0s0,0,0,0h0l-.006.006h0l-.019.013-.027.019c-.011.006-.019.015-.03.021a.218.218,0,0,0-.023.017,4.978,4.978,0,0,1-.539.32c-.082.042-.164.082-.249.12l-.112.051a.007.007,0,0,0,0,0s-.006,0-.011,0h0a.346.346,0,0,1-.04.017.063.063,0,0,1,.021-.008h0l-.034.015c-.173.07-.35.135-.527.194-.2.067-.4.126-.6.181-.061.017-.124.034-.185.048-.036.008-.072.017-.105.027s-.063.017-.1.023l-.105.025a.4.4,0,0,1-.048.011l-.078.017-.084.019-.084.019-.114.023-.122.025-.1.019-.086.017-.093.017c-.107.019-.215.036-.325.053l-.036.006-.137.021-.074.011-.019,0h-.011v0s0-.006-.006-.006h0a.007.007,0,0,1,0,0v0h0s0,0,0,0l0,0h0l-.015,0h-.006a.094.094,0,0,1-.023,0l-.131.017c-.086.011-.175.021-.263.029s-.158.017-.236.023c-.042,0-.086.008-.129.011l-.141.013-.16.013-.135.008c-.023,0-.044,0-.067,0l-.067,0-.133.006-.137.006c-.034,0-.07,0-.1,0-.07,0-.137.006-.207.006l-.1,0-.137,0h0l-.126,0h-.426c-.04,0-.08,0-.12,0h-.038l-.126,0c-.095,0-.19,0-.284-.008l-.061,0-.061,0a.159.159,0,0,1-.032,0l-.105,0-.095,0c-.023,0-.046-.006-.07-.006-.055,0-.112-.013-.166-.013h0c-.023,0-.046,0-.07,0s-.046,0-.07,0l-.046,0h-.013c-.027,0-.055,0-.082,0-.091-.006-.183-.015-.274-.023s-.183-.017-.274-.027l-.027,0-.044,0h-.008l-.027,0-.04,0h0l-.164-.019-.131-.017a.05.05,0,0,1-.017,0l-.006,0v0h0v0h0l0,0h0v0l0,0h0v.006s0,0,0-.006l0,0,0,0h-.008a0,0,0,0,0,0,0v0a.016.016,0,0,1-.011,0h0a.455.455,0,0,1-.053-.008c-.061-.008-.12-.017-.181-.027l-.084-.013-.084-.013-.084-.013q-.139-.022-.278-.051l-.011,0c-.042-.008-.082-.017-.124-.023-.114-.021-.228-.044-.339-.07l-.03-.006-.139-.03s-.776-.207-.807-.219l-.209-.065s0,0,0,0c-.032-.008-.061-.019-.091-.03-.166-.057-.333-.118-.5-.183l-.021-.008-.021-.008h0s0,0,0,0h0l-.006,0s0,0,0,0-.006,0-.011,0h0l-.006,0s0,0,0,0h0c-.032-.015-.063-.027-.1-.042-.086-.038-.171-.08-.255-.122a4.605,4.605,0,0,1-.443-.253c-.065-.042-.129-.089-.192-.133l-.017-.013.025.019a.25.25,0,0,1-.034-.027h0a.106.106,0,0,1-.017-.015l-.07-.059c-.055-.048-.11-.1-.16-.152,0,0-.019-.021-.036-.042h0c-.025-.027-.048-.055-.072-.082h0v0c0,.006.006.008.006.011a.369.369,0,0,0-.023-.032v0h0l-.006-.006,0,0c-.019-.027-.038-.057-.057-.086s-.036-.063-.053-.1v0c0-.011-.021-.053-.021-.055a.145.145,0,0,1,.015.032c-.008-.025-.019-.051-.025-.076-.013-.042-.017-.084-.027-.126s0-.059,0-.089v-.019h0s0,0,0,0v0l0-.008v0a.288.288,0,0,1,0-.042c0,.015,0,.025,0,.034,0-.017.006-.038.011-.057s.017-.061.025-.091a.146.146,0,0,1,.011-.027,1.92,1.92,0,0,1,.093-.171c.017-.027.036-.053.053-.078.008-.008.015-.019.023-.027a1.977,1.977,0,0,1,.173-.179c.029-.027.059-.055.091-.082a.515.515,0,0,1,.053-.042.156.156,0,0,1,.025-.019l-.013.008s0,0,.006,0l.023-.019s0,0,0,0l0,0,.051-.036.131-.089c.084-.055.169-.105.255-.154.183-.1.375-.194.567-.278.013,0,.027-.013.04-.017l.074-.03c.063-.025.124-.048.188-.072.118-.044.236-.084.356-.124a13.282,13.282,0,0,1,1.661-.415c.156-.029.312-.055.47-.08l.223-.034c.008,0,.027,0,.044-.006a.023.023,0,0,0,.011,0l.015,0h0l.095-.013c.333-.042.666-.074,1-.1a20.882,20.882,0,0,1,4.168.11.027.027,0,0,1,.013,0,.013.013,0,0,1-.008,0l.032,0a.065.065,0,0,1-.019,0l.027,0,.1.015c.086.013.171.025.257.04.15.025.3.051.449.08.289.055.577.118.862.192.263.067.525.143.782.23.122.042.244.084.365.131l.16.063.065.027a.2.2,0,0,0-.023-.006l.048.017a6.417,6.417,0,0,1,.59.3c.089.051.175.105.259.162.038.025.074.051.11.078l.036.025c-.059-.051.057.042.013.011a.056.056,0,0,1-.013-.011s0,0,.006,0a2.856,2.856,0,0,1,.352.343l.013.017c.023.032.044.065.065.1s.034.059.048.089a.114.114,0,0,1,.011.023,1.626,1.626,0,0,1,.051.173s0,.006,0,.011a.046.046,0,0,0,0-.017C181.41,112.518,181.427,112.662,181.422,112.645Z" transform="translate(-146.93 0)" fill="#fafafb"/>
      <path id="Path_1481" data-name="Path 1481" d="M179.708,294.993a.091.091,0,0,0,0,.011s-.015.044-.038.118c0,0,0,0,0,.006s0,.006,0,.011v0s0,0,0,0h0s0,.006,0,.011h0s-.006,0-.006.006a.007.007,0,0,1,0,0l0,0a.122.122,0,0,1-.008.017v0a.132.132,0,0,0-.008.019.539.539,0,0,1-.034.059h0c-.013.023-.027.044-.04.067l-.025.038c.008-.006-.034.053-.032.042a2.653,2.653,0,0,1-.183.194c-.038.036-.076.07-.116.1-.013.011-.025.021-.04.032h0c-.03.027-.059.053-.021.017,0,0,0,0,0,0l0,0a.338.338,0,0,1-.063.044h0a4.8,4.8,0,0,1-.617.365c-.082.04-.164.08-.249.118a.624.624,0,0,1-.124.055l.051-.021-.051.021-.078.032a12.41,12.41,0,0,1-2.685.689c-.067.011-.133.021-.2.03-.021,0-.04.008-.061.008h-.034l-.019,0c-.145.019-.291.036-.434.051q-.411.044-.822.07c-.438.027-.879.038-1.317.038h-.011c-.065,0-.131,0-.2,0q-.174,0-.348-.006l-.105,0-.065,0h-.038l-.078,0-.139-.006-.137-.006h0a.1.1,0,0,1-.025,0l-.143-.008h0l-.169-.011h0c-.107-.006-.215-.017-.32-.025h0a.232.232,0,0,1-.038,0l-.095-.008a.058.058,0,0,1-.019,0l-.055-.006h0l-.025,0-.021,0-.038,0-.065-.006-.171-.019-.078-.008-.059-.006-.032,0-.046-.006-.032,0a.041.041,0,0,1-.015,0h0a.013.013,0,0,1-.008,0,.016.016,0,0,1-.011,0h-.021v0h-.006v0h-.008v0l0,0v0H169.8l0,0a.007.007,0,0,1,0,0,.016.016,0,0,1-.008,0l-.04-.006h-.006a.008.008,0,0,1-.006,0l-.169-.025-.015,0-.12-.019-.017,0-.017,0-.025,0-.1-.017-.053-.008-.015,0-.112-.019-.1-.017-.053-.01c-.046-.008-.091-.017-.137-.027l-.015,0c-.042-.008-.084-.017-.126-.027l-.011,0c-.042-.008-.084-.019-.129-.027h0l-.129-.03c-.03-.006-.059-.015-.091-.021a.075.075,0,0,0-.021,0l-.036-.008a.008.008,0,0,1-.006,0l-.095-.023h0l-.152-.038c-.059-.015-.116-.032-.175-.048l-.07-.019c-.023-.006-.046-.013-.07-.021l-.078-.023-.107-.032c-.219-.067-.436-.143-.649-.228-.029-.011-.059-.023-.086-.036l-.038-.015h0a0,0,0,0,1,0,0h0c.034.015-.038-.015-.044-.017l.025.011s-.006,0-.008,0h0a.11.11,0,0,1-.023-.011.244.244,0,0,1-.023-.011h0s0,0,0,0l-.006,0a0,0,0,0,1,0,0l-.011,0h0l-.055-.025c-.053-.023-.105-.053-.158-.076-.006,0-.011-.006-.017-.008h0l-.053-.027-.053-.027-.053-.027c-.017-.011-.036-.019-.053-.03s-.032-.017-.048-.027-.048-.027-.072-.042l-.07-.042-.044-.027-.011-.006a.458.458,0,0,1-.04-.027c-.015-.008-.03-.019-.044-.03l-.006,0-.011-.006-.053-.036-.053-.038-.008-.006-.015-.011a.047.047,0,0,1-.011-.008,0,0,0,0,1,0,0c.046.04-.08-.057,0,0a.007.007,0,0,0,0,0h0a.007.007,0,0,0,0,0h0a.079.079,0,0,1-.013-.011c-.044-.036-.089-.074-.131-.112l-.025-.023a.128.128,0,0,1-.017-.017.2.2,0,0,1-.021-.021l-.017-.017-.006-.006-.006-.006c-.011-.011-.021-.021-.032-.034l-.038-.04,0,0s0,0,0,0l-.042-.048,0,0h0s0,0-.006-.008,0,0,0-.008-.008-.008-.008-.013h0l0,0h0l0,0v0h0l0,0h0c-.006-.011-.015-.021-.021-.032a.189.189,0,0,1-.017-.027l-.013-.021-.029-.048s0,0,0-.006l-.025-.048c-.006-.013-.013-.034-.021-.048,0,0,0,0,0,.006h0c.006.015.013.036.015.04v0h0s0-.006,0-.008v0a.2.2,0,0,0-.013-.03s0,0,0,0v0a0,0,0,0,1,0,0c0-.008-.006-.017-.008-.025-.011-.034-.021-.067-.029-.1,0,0,0-.006,0-.011l0,0a.061.061,0,0,1,0-.019v0h0a.036.036,0,0,0,0-.015v-.006c0-.021-.006-.042,0-.017a.107.107,0,0,1,0-.019.13.13,0,0,1,.006.034s0,.006,0,.011v0s0-.008,0-.013c0-.036,0-.072,0-.107V292.3c.063.053.131.1.2.152l.027.019a5.214,5.214,0,0,0,.752.426,9.108,9.108,0,0,0,1.229.47c.1.032.282.084.4.114h0l.1.025.133.034.093.025.086.021a.013.013,0,0,1,.008,0h0a16.669,16.669,0,0,0,1.709.3l.1.013a21.071,21.071,0,0,0,2.548.143c.188,0,.375,0,.563-.008a.252.252,0,0,0,.04,0c.179-.006.356-.013.535-.023a18.851,18.851,0,0,0,2.748-.35l.089-.019.078-.017.038-.008c.131-.029.259-.059.388-.093a9.751,9.751,0,0,0,1.823-.643c.164-.078.329-.164.489-.259l.053-.032.067-.044.072-.046.036-.025c.072-.048.141-.1.209-.156v2.5a1.2,1.2,0,0,0-.006.154l.006-.019h0l.006-.019a.325.325,0,0,0-.008.044C179.71,294.987,179.708,294.989,179.708,294.993Z" transform="translate(-145.222 -178.144)" fill="#fafafb"/>
      <path id="Path_1482" data-name="Path 1482" d="M179.531,484.754c.059-.042.116-.084.171-.131v2.624c0,.013,0,.025,0,.038l-.006.032s0,.006,0,.008,0,.006,0,.011l-.006.023v0c-.006.021-.013.042-.019.065a.238.238,0,0,1-.013.032.007.007,0,0,1,0,0h0s0,0,0,.006l-.008.017s0,0,0,.006a.342.342,0,0,1-.021.038c0,.006-.006.013-.011.019s0,.006,0,.008a.049.049,0,0,1-.006.011l-.011.017c-.021.034-.042.067-.065.1l0,0s0,0,0,.006,0,0,0,.006h0l-.006.008-.059.07a2.743,2.743,0,0,1-.278.263l-.013.01-.008.006,0,0-.008.006h0l0,0-.013.008a0,0,0,0,0,0,0l-.061.044c-.065.046-.133.091-.2.131-.105.065-.213.124-.322.181l-.013.006c-.065.034-.131.065-.2.1l-.114.053a.127.127,0,0,1-.025.011l-.044.019-.006,0h0l-.015.006s0,0,0,0-.006,0-.008,0h0a0,0,0,0,0,0,0c-.027.011-.055.021-.082.034l-.179.069c-.12.044-.242.086-.365.126-.257.084-.516.158-.78.223q-.433.107-.872.19c-.154.029-.308.055-.464.08-.076.013-.152.023-.23.034l-.017,0h-.006l-.055.006c0,.006,0,0,0,0s0,.011,0,.011h0s0,0-.006,0l0,0-.082.011c-.344.044-.691.076-1.037.1-.038,0-.076,0-.116.008l-.07,0-.07,0c-.027,0-.055,0-.084,0a20.993,20.993,0,0,1-2.959-.044c-.156-.013-.312-.029-.466-.046l-.219-.025-.11-.013-.036,0h-.021v0l0,0h-.006c0-.008,0-.011,0-.011s0,0,0,0c-.291-.04-.577-.091-.866-.145a13.16,13.16,0,0,1-1.3-.316l-.2-.063-.061-.019a.228.228,0,0,1-.04-.015c-.059-.019-.116-.04-.175-.061l-.086-.032h0l-.034-.013-.051-.019-.105-.04h0c-.021-.008-.04-.017-.061-.023l-.051-.021h0s0,0-.008,0l-.015-.006-.006,0a.065.065,0,0,1-.017-.008h0l-.044-.019-.038-.017-.015-.006c-.021-.008-.04-.019-.061-.027a.8.8,0,0,1-.074-.036c-.034-.017-.067-.032-.1-.049-.095-.046-.188-.1-.278-.15l-.021-.013c-.042-.025-.086-.051-.129-.078-.061-.04-.122-.08-.181-.122-.006,0-.034-.023-.048-.036h0l0,0h0s0,0,0,0a0,0,0,0,1,0,0h0l0,0v0s0,0,0,0,0,0,0,0a.122.122,0,0,1-.017-.015l-.025-.021a.045.045,0,0,1-.011-.008l-.017-.013a.09.09,0,0,0-.015-.013c-.015-.013-.029-.025-.042-.038a.35.35,0,0,1-.03-.027c-.013-.01-.023-.023-.036-.034l-.011-.01-.011-.011a.1.1,0,0,0-.015-.015h0c-.034-.034-.067-.072-.1-.107,0,0-.025-.032-.04-.048h0l0,0,0,0-.006-.008-.006-.01h0a0,0,0,0,0,0,0l-.019-.029a.677.677,0,0,1-.04-.065c-.006-.011-.013-.021-.019-.034l-.006-.011c0-.006-.006-.011-.008-.017a0,0,0,0,0,0,0,.486.486,0,0,1-.023-.046s0,0,0-.006v0h0a.039.039,0,0,1,0-.015h0c-.008-.021-.015-.04-.021-.061a.008.008,0,0,0,0-.006l-.013-.04s0-.006,0-.008v-.008s0,0,0,0a.5.5,0,0,1-.011-.055v-.01c0-.013,0-.025,0-.036V484.6c.1.078.2.152.3.221s.209.133.316.194a1.956,1.956,0,0,0,.331.171l.006,0,.11.051.048.021.082.036.057.025a11.359,11.359,0,0,0,2.162.651q.746.152,1.5.24l.169.019h0l.053.006c.152.015.3.03.451.042s.287.023.43.032h0l.055,0c.207.013.415.021.622.027a20.812,20.812,0,0,0,3.435-.179.019.019,0,0,0,.011,0c.356-.051.708-.112,1.06-.183a11.412,11.412,0,0,0,2.181-.66c.192-.082.39-.173.582-.278l.011-.006c.013-.008.027-.015.04-.023h0A4.234,4.234,0,0,0,179.531,484.754Z" transform="translate(-145.212 -366.392)" fill="#fafafb"/>
      <path id="Path_1483" data-name="Path 1483" d="M179.6,677.713v2.537c0,.017,0,.032,0,.049s0,.051,0,.076a1.3,1.3,0,0,1-.038.15c-.008.023-.019.046-.025.069,0-.008,0-.015.006-.021s0,.006,0,.008a1.409,1.409,0,0,1-.091.154l-.032.046a.056.056,0,0,0,.011-.013l-.021.025s-.006.01-.011.015-.017.021-.023.023c-.038.042-.076.084-.116.124s-.095.088-.143.131a.964.964,0,0,0-.086.07c-.011.008-.021.015-.029.023a5.017,5.017,0,0,1-.894.5c-.038.017-.08.032-.116.051.032-.017.046-.025.048-.025s-.07.034-.091.042c-.1.04-.2.078-.3.116-.2.072-.4.135-.6.194a13.583,13.583,0,0,1-1.391.323l-.369.063-.171.025-.1.015-.027,0h-.021c-.268.038-.535.065-.805.089a20.972,20.972,0,0,1-3.414.021c-.28-.021-.561-.048-.839-.082l-.177-.021-.051-.006h.011l-.059-.008q-.205-.028-.411-.063c-.48-.08-.957-.179-1.427-.306a10.513,10.513,0,0,1-1.182-.4.007.007,0,0,1,0,0c.063.027-.015,0-.027-.01l.013,0-.055-.025c-.038-.017-.076-.034-.114-.053-.089-.04-.175-.084-.261-.129a4.766,4.766,0,0,1-.426-.249c-.061-.04-.118-.082-.177-.124a.039.039,0,0,0,.015.01c.059.051-.086-.063-.023-.017,0,0,0,0,.006,0l-.015-.013-.095-.08a2.79,2.79,0,0,1-.232-.242l.011.013a.467.467,0,0,1-.036-.04h0a.046.046,0,0,1-.008-.013c-.019-.025-.036-.053-.053-.08s-.046-.084-.067-.129l-.006-.017c-.008-.023-.015-.046-.021-.07s-.013-.046-.017-.069c0-.006,0-.013,0-.019a.44.44,0,0,1,0-.053c0-.034-.011-.059-.011-.091h0V680.2h0v0h0c0-.046,0-.095,0-.141V677.7a5.752,5.752,0,0,0,1.528.832l.091.036h0c.032.013.063.023.095.034l.046.017.086.032.057.019h0c.034.013.067.023.1.034.061.021.124.04.185.059.188.059.375.112.565.158s.409.1.613.141h.006c.527.107,1.06.188,1.593.249.388.044.778.078,1.167.1l.116.006c.169.008.337.015.5.019.3.009.607.011.91,0l.112,0h.017c.046,0,.093,0,.139,0l.07,0q.547-.019,1.094-.065c.333-.03.668-.063,1-.11.3-.04.592-.089.887-.143.312-.059.624-.126.931-.206l.017,0c.253-.068.5-.141.748-.223a7.355,7.355,0,0,0,1.5-.672A3.6,3.6,0,0,0,179.6,677.713Z" transform="translate(-145.114 -555.423)" fill="#fafafb"/>
    </g>
    <path id="Path_3105" data-name="Path 3105" d="M6.955,8.5a3.477,3.477,0,1,0-3.477,3.478A3.477,3.477,0,0,0,6.955,8.5Zm5.063-6.348A2.834,2.834,0,0,1,12.79.43,5.035,5.035,0,0,0,7.341,3.478,5.337,5.337,0,0,1,12.018,2.153ZM5.643,13.027a4.956,4.956,0,0,1-3.263.373c1.684,3.481,5.727,5.207,8.439,4.5A7.191,7.191,0,0,1,5.643,13.027ZM17,11.592a4.25,4.25,0,1,0,4.25,4.25A4.25,4.25,0,0,0,17,11.592Zm0-1.545a5.824,5.824,0,0,1,1.134.113c.015-.165.026-.331.026-.5A5.378,5.378,0,0,0,17.339,6.8a4.227,4.227,0,0,1-5.058-2.53A5.4,5.4,0,0,0,8.186,6.766a4.989,4.989,0,0,1-.573,4.582,5.418,5.418,0,0,0,3.68,3.519A5.792,5.792,0,0,1,17,10.046Zm3.249-4.31s1.793,3.046.351,5.618a4.1,4.1,0,0,1,1.757,2.588A6.419,6.419,0,0,0,20.25,5.737ZM16.229,5.41a2.7,2.7,0,1,0-2.7-2.7A2.7,2.7,0,0,0,16.229,5.41Z" transform="translate(2104.02 -18420.543)" fill="#fafafb"/>
  </g>
</svg>
