<svg xmlns="http://www.w3.org/2000/svg" width="32" height="32" viewBox="0 0 32 32">
  <g id="Sync_account_extractions" data-name="Sync account extractions" transform="translate(-15 -13.002)">
    <circle id="Ellipse_110" data-name="Ellipse 110" cx="16" cy="16" r="16" transform="translate(15 13.002)" fill="#44444f"/>
    <g id="Group_4035" data-name="Group 4035" transform="translate(17.435 15.334)">
      <path id="Path_1443" data-name="Path 1443" d="M11.661,12.8c-.176-.213-.535-.31-1.054-.042a4.07,4.07,0,0,1,3.008-3.079,6.239,6.239,0,0,1,3.468.146.4.4,0,0,0,.485-.192.394.394,0,0,0-.1-.5A6.349,6.349,0,0,0,7.357,12.8c-.565-.326-.958-.23-1.146,0-.393.464-.109,1.715,2,3.7a1.067,1.067,0,0,0,1.46,0C11.77,14.514,12.059,13.263,11.661,12.8Zm7.262-1.008a1.059,1.059,0,0,0-1.46,0c-2.1,1.987-2.393,3.233-2,3.7.176.213.535.31,1.054.042a4.076,4.076,0,0,1-3.008,3.079,6.279,6.279,0,0,1-3.468-.151.4.4,0,0,0-.381.7,6.354,6.354,0,0,0,10.106-3.677c.565.326.958.234,1.146.008C21.312,15.024,21.027,13.777,18.923,11.791Z" transform="translate(0)" fill="#fafafb"/>
    </g>
  </g>
</svg>
