<svg xmlns="http://www.w3.org/2000/svg" width="11.303" height="11.303" viewBox="0 0 11.303 11.303">
  <path id="Path_1371" data-name="Path 1371" d="M22.5,19.266H20.881V16.037H22.5a.807.807,0,0,0,0-1.615H20.881V12.807a.807.807,0,1,0-1.615,0v1.615H16.037V12.807a.807.807,0,1,0-1.615,0v1.615H12.807a.807.807,0,1,0,0,1.615h1.615v3.229H12.807a.807.807,0,1,0,0,1.615h1.615V22.5a.807.807,0,0,0,1.615,0V20.881h3.229V22.5a.807.807,0,1,0,1.615,0V20.881H22.5a.807.807,0,1,0,0-1.615Zm-3.229,0H16.037V16.037h3.229Z" transform="translate(-12 -12)" fill="#fafafb"/>
</svg>
