<svg xmlns="http://www.w3.org/2000/svg" width="56" height="56" viewBox="0 0 56 56">
  <g id="Group_2710" data-name="Group 2710" transform="translate(-93 -31)">
    <rect id="Rectangle_369" data-name="Rectangle 369" width="56" height="56" rx="28" transform="translate(93 31)" fill="#1c1c24"/>
    <g id="noun_Target_3611439" transform="translate(106.661 43.736)">
      <path id="Path_1346" data-name="Path 1346" d="M6.289,14.424a8.135,8.135,0,0,1,16.181-1.2h4.5A12.608,12.608,0,1,0,13.226,26.972v-4.5a8.138,8.138,0,0,1-6.937-8.048Z" transform="translate(0 0)" fill="#fafafb"/>
      <path id="Path_1347" data-name="Path 1347" d="M42.686,37.864a4.81,4.81,0,0,0-1.2,9.469V41.48h5.857a4.824,4.824,0,0,0-4.658-3.615Z" transform="translate(-28.261 -28.252)" fill="#fafafb"/>
      <path id="Path_1348" data-name="Path 1348" d="M74.287,73.467l-7.185-9.5h5.654V60.114H60.118V72.753h3.853V67.1l9.5,7.185a.583.583,0,0,0,.816-.816Z" transform="translate(-45.695 -45.69)" fill="#fafafb"/>
    </g>
  </g>
</svg>
