<svg xmlns="http://www.w3.org/2000/svg" width="48" height="48" viewBox="0 0 48 48">
  <g id="Group_2710" data-name="Group 2710" transform="translate(-4 -4)">
    <rect id="Rectangle_369" data-name="Rectangle 369" width="48" height="48" rx="24" transform="translate(4 4)" fill="#fafafb"/>
    <g id="noun_Target_3611439" transform="translate(19.061 18.138)">
      <path id="Path_1346" data-name="Path 1346" d="M5.1,11.064a5.967,5.967,0,0,1,11.868-.877h3.3A9.248,9.248,0,1,0,10.184,20.267v-3.3a5.969,5.969,0,0,1-5.088-5.9Z" transform="translate(-1.815 -1.817)" fill="#f57e3a"/>
      <path id="Path_1347" data-name="Path 1347" d="M41.4,37.864a3.528,3.528,0,0,0-.88,6.945V40.516h4.3A3.538,3.538,0,0,0,41.4,37.864Z" transform="translate(-32.155 -32.147)" fill="#f57e3a"/>
      <path id="Path_1348" data-name="Path 1348" d="M70.51,69.908l-5.27-6.968h4.147V60.114h-9.27v9.27h2.826V65.237l6.968,5.27a.427.427,0,0,0,.6-.6Z" transform="translate(-50.871 -50.868)" fill="#f57e3a"/>
    </g>
  </g>
</svg>
