<svg id="timeline" xmlns="http://www.w3.org/2000/svg" width="28" height="28" viewBox="0 0 28 28">
  <circle id="Ellipse_110" data-name="Ellipse 110" cx="14" cy="14" r="14" fill="#44444f"/>
  <g id="Group_4072" data-name="Group 4072" transform="translate(4.51 -1.066)">
    <path id="Path_1469" data-name="Path 1469" d="M15.131,69.8a1.582,1.582,0,0,0-1.513,1.124H11.131a1.581,1.581,0,0,0-3.027,0H5.617A1.6,1.6,0,1,0,4.1,73.007a1.582,1.582,0,0,0,1.513-1.124H8.1a1.581,1.581,0,0,0,3.027,0h2.487A1.6,1.6,0,1,0,15.131,69.8Z" transform="translate(0 -51.775)" fill="#fafafb"/>
    <path id="Path_1470" data-name="Path 1470" d="M16.279,15.178h2.952l1.3,1.708a.458.458,0,0,0,.749,0l1.3-1.708h2.952a.473.473,0,0,0,.479-.479V9.379a.473.473,0,0,0-.479-.479h-9.26a.473.473,0,0,0-.479.479v5.334A.47.47,0,0,0,16.279,15.178Zm7.027-3.971a.824.824,0,1,1-.824.824A.812.812,0,0,1,23.307,11.207Zm-2.4,0a.824.824,0,1,1-.824.824A.831.831,0,0,1,20.909,11.207Zm-2.382,0a.824.824,0,1,1-.824.824A.822.822,0,0,1,18.527,11.207Z" transform="translate(-11.307)" fill="#fafafb"/>
  </g>
</svg>
