<svg xmlns="http://www.w3.org/2000/svg" width="24" height="24" viewBox="0 0 24 24">
  <g id="Group_13398" data-name="Group 13398" transform="translate(-438.042 -1020.129)">
    <rect id="Rectangle_748" data-name="Rectangle 748" width="24" height="24" transform="translate(438.042 1020.129)" fill="#92929d" opacity="0"/>
    <path id="Path_1500" data-name="Path 1500" d="M42,90h9.4v5.908h8.115v9.4h-9.4V99.4H42Zm5.356,14.666H43.333A1.334,1.334,0,0,1,42,103.333V101.08h.736v2.253a.6.6,0,0,0,.6.621h4.023v-.644l1.747,1.011-1.747.988Zm6.8-14h4.046a1.31,1.31,0,0,1,1.31,1.31v2.276H58.8V91.977a.609.609,0,0,0-.6-.6H54.16V92l-1.724-.988L54.16,90Zm-2.276,13.057,2.345-6.23h1.2l2.345,6.23h-.942l-.575-1.494H53.379l-.552,1.494Zm4.046-2.391-1.1-2.9-1.1,2.9ZM49.54,97.816a4.678,4.678,0,0,1-2.827-1.287,4.678,4.678,0,0,1-2.827,1.287v-.874a4.046,4.046,0,0,0,2.23-1.057,5.427,5.427,0,0,1-1.057-2.506H43.885v-.874h2.391v-.92h.874v.92h2.368v.874H48.368a5.958,5.958,0,0,1-1.057,2.506,3.974,3.974,0,0,0,2.23,1.057Zm-3.586-4.437a4.56,4.56,0,0,0,.759,1.816,4.916,4.916,0,0,0,.759-1.816Z" transform="translate(399.283 934.844)" fill="#fafafb"/>
  </g>
</svg>
