<svg xmlns="http://www.w3.org/2000/svg" width="24" height="24" viewBox="0 0 24 24">
  <g id="Group_13404" data-name="Group 13404" transform="translate(-701.142 -1020.129)">
    <rect id="Rectangle_754" data-name="Rectangle 754" width="24" height="24" transform="translate(701.142 1020.129)" fill="#92929d" opacity="0"/>
    <path id="Path_1494" data-name="Path 1494" d="M13.1,2.942V12.955A2.08,2.08,0,0,1,11.016,15H3.928A2.049,2.049,0,0,1,1.84,12.955V2.942H.723a.475.475,0,0,1,0-.949h3.4V1.471A1.5,1.5,0,0,1,5.627,0h3.69a1.5,1.5,0,0,1,1.505,1.471v.522h3.4a.475.475,0,0,1,0,.949ZM5.093,1.993H9.851V1.471A.533.533,0,0,0,9.317.949H5.627a.533.533,0,0,0-.534.522Z" transform="translate(705.67 1025.158)" fill="#eb4343"/>
  </g>
</svg>
