<svg id="unlock" xmlns="http://www.w3.org/2000/svg" width="28" height="28" viewBox="0 0 28 28">
  <circle id="Ellipse_110" data-name="Ellipse 110" cx="14" cy="14" r="14" fill="#44444f"/>
  <g id="noun_Unlock_588454" transform="translate(6.228 6.4)">
    <path id="Path_1457" data-name="Path 1457" d="M5.608,2A3.613,3.613,0,0,1,9.217,5.608V7.9h5.248a.657.657,0,0,1,.656.656v5.9a.657.657,0,0,1-.656.656H7.248a.657.657,0,0,1-.656-.656v-5.9A.657.657,0,0,1,7.248,7.9H7.9v-2.3a2.3,2.3,0,1,0-4.592,0V7.9A.656.656,0,1,1,2,7.9v-2.3A3.613,3.613,0,0,1,5.608,2Z" transform="translate(-2 -2)" fill="#fafafb"/>
  </g>
</svg>
