<svg xmlns="http://www.w3.org/2000/svg" width="32" height="32" viewBox="0 0 32 32">
  <g id="Upload_Relationship_VIN" data-name="Upload Relationship &amp; VIN" transform="translate(-13.876 -11.707)">
    <circle id="Ellipse_110" data-name="Ellipse 110" cx="16" cy="16" r="16" transform="translate(13.876 11.707)" fill="#44444f"/>
    <path id="Path_1452" data-name="Path 1452" d="M231.122,115.506a2.339,2.339,0,0,0-2.326,2.159h-2.489a2.806,2.806,0,0,0-1.151-2.095l1.276-2.211a2.338,2.338,0,1,0-.308-.172l-1.265,2.2a2.813,2.813,0,1,0,0,4.93l1.265,2.2a2.337,2.337,0,1,0,.308-.172l-1.276-2.211a2.818,2.818,0,0,0,1.151-2.095H228.8a2.334,2.334,0,1,0,2.324-2.525Z" transform="translate(147.724 -199.372) rotate(90)" fill="#fafafb"/>
  </g>
</svg>
