<svg xmlns="http://www.w3.org/2000/svg" width="24" height="24" viewBox="0 0 24 24">
  <g id="Group_13409" data-name="Group 13409" transform="translate(-915 -822)">
    <path id="Shape" d="M17.3,17.085a.948.948,0,0,1-.567-1.81c2.435-.769,3.67-2.744,3.67-5.869A6.482,6.482,0,0,0,7.547,8.184L7.355,9.2,6.36,8.92A3.509,3.509,0,1,0,5.4,15.807l.193-.013a.949.949,0,0,1,.1,1.895l-.063.005c-.076.006-.152.011-.23.011a5.41,5.41,0,0,1,0-10.82c.172,0,.344.009.516.026a8.371,8.371,0,0,1,16.372,2.5c0,3.992-1.726,6.648-4.993,7.679Zm-6.751-6.854s0-.008.008-.011a.946.946,0,0,1,1.34,0s0,.006.005.008l2.609,2.619a.948.948,0,0,1-.669,1.619.94.94,0,0,1-.668-.277l-1-1.005v5.973a.946.946,0,1,1-1.891,0V13.181l-1,1.008a.944.944,0,0,1-1.336,0,.95.95,0,0,1,0-1.342l2.606-2.616Z" transform="translate(915.849 823.447)" fill="#fff"/>
    <rect id="Rectangle_756" data-name="Rectangle 756" width="24" height="24" transform="translate(915 822)" fill="#fff" opacity="0"/>
  </g>
</svg>
