<svg xmlns="http://www.w3.org/2000/svg" width="112" height="112" viewBox="0 0 112 112">
  <g id="Group_3782" data-name="Group 3782" transform="translate(-644 -360)">
    <rect id="low" width="112" height="112" rx="56" transform="translate(644 360)" fill="#13131a"/>
    <g id="Group_3780" data-name="Group 3780" transform="translate(676.963 -566.296)">
      <path id="Path_1409" data-name="Path 1409" d="M8.492,970.362A1.489,1.489,0,0,0,7,971.854v17.8l9.522-10.1a.742.742,0,0,1,1.107.012l7.7,8.671,5.361-5.7a.742.742,0,0,1,1.107.012l7.273,8.112v-18.8a1.489,1.489,0,0,0-1.492-1.492Zm17.156,5.222a2.238,2.238,0,1,1-2.238,2.238A2.238,2.238,0,0,1,25.648,975.583Zm-8.59,5.571L7,991.818v.921a1.488,1.488,0,0,0,1.492,1.492H28.678Zm14.172,2.984-4.907,5.21,4.347,4.883h6.911a1.484,1.484,0,0,0,1.48-1.352Z" transform="translate(0 0)" fill="#d5d5dc"/>
    </g>
  </g>
</svg>
