<svg xmlns="http://www.w3.org/2000/svg" width="24" height="24" viewBox="0 0 24 24">
  <g id="Group_13412" data-name="Group 13412" transform="translate(-1057.336 -787.402)">
    <rect id="Rectangle_757" data-name="Rectangle 757" width="24" height="24" transform="translate(1057.336 787.402)" fill="#fff" opacity="0"/>
    <path id="Path_1407" data-name="Path 1407" d="M10.752,0a6.142,6.142,0,0,1,6.133,6.165c6.1.032,6.069,9.264-.032,9.264H4.683c-6.037,0-6.1-9.168-.1-9.264h0A6.169,6.169,0,0,1,10.752,0Zm-.543,5.654L8.548,7.379c-.479.511-1.214-.224-.735-.735L10.4,3.961a.541.541,0,0,1,.735,0l2.587,2.683c.479.511-.256,1.246-.735.735L11.327,5.654v7a.559.559,0,0,1-1.118,0Z" transform="translate(1058.554 791.688)" fill="#00b49a"/>
  </g>
</svg>
