<svg id="Group_3622" data-name="Group 3622" xmlns="http://www.w3.org/2000/svg" width="11.812" height="11.813" viewBox="0 0 11.812 11.813">
  <path id="Path_1372" data-name="Path 1372" d="M177.707.93a3.15,3.15,0,0,0-4.455,0l-1.758,1.757a3.894,3.894,0,0,1,.421-.022,4.068,4.068,0,0,1,1.287.207l1-1a1.811,1.811,0,0,1,2.562,2.561l-1.949,1.949a1.813,1.813,0,0,1-2.948-.57.9.9,0,0,0-.588.263l-.519.52a3.151,3.151,0,0,0,5,.734l1.949-1.95A3.15,3.15,0,0,0,177.707.93Z" transform="translate(-166.817 -0.008)" fill="#fff"/>
  <path id="Path_1373" data-name="Path 1373" d="M6.742,160.034a4.04,4.04,0,0,1-1.3-.214l-1,1a1.811,1.811,0,0,1-2.561-2.562l1.949-1.949a1.813,1.813,0,0,1,2.948.57.9.9,0,0,0,.589-.263l.518-.519a3.152,3.152,0,0,0-5-.735L.93,157.315a3.15,3.15,0,0,0,4.454,4.455l1.755-1.755c-.131.012-.263.019-.4.019Z" transform="translate(-0.007 -150.88)" fill="#fff"/>
</svg>
