<svg xmlns="http://www.w3.org/2000/svg" width="32" height="32" viewBox="0 0 32 32">
  <g id="Group_13438" data-name="Group 13438" transform="translate(-861 -1544)">
    <path id="Path_1519" data-name="Path 1519" d="M17.981,6.225a2.612,2.612,0,1,0-2.613-2.612,2.578,2.578,0,0,0,.37,1.319L14.462,6.209a5.851,5.851,0,0,0-7.329,0L5.855,4.931a2.578,2.578,0,0,0,.37-1.319A2.612,2.612,0,1,0,3.612,6.225a2.578,2.578,0,0,0,1.319-.37L6.209,7.132a5.851,5.851,0,0,0,0,7.329L4.931,15.739a2.578,2.578,0,0,0-1.319-.37,2.612,2.612,0,1,0,2.612,2.612,2.578,2.578,0,0,0-.37-1.319l1.278-1.278a5.906,5.906,0,0,0,3.665,1.29,6.02,6.02,0,0,0,3.665-1.29l1.278,1.278a2.578,2.578,0,0,0-.37,1.319,2.612,2.612,0,1,0,2.613-2.612,2.578,2.578,0,0,0-1.319.37l-1.278-1.278a5.851,5.851,0,0,0,0-7.329l1.278-1.278a2.578,2.578,0,0,0,1.319.37Zm0-3.919a1.306,1.306,0,0,1,0,2.612,1.325,1.325,0,0,1-1.306-1.306A1.306,1.306,0,0,1,17.981,2.306ZM15.369,10.8a4.55,4.55,0,0,1-1.037,2.895c-.342-.748-1.881-1.352-2.6-1.744a2.279,2.279,0,0,0,.761-3.094,2.269,2.269,0,0,0-3.474,0,2.123,2.123,0,0,0,.734,3.094c-.72.4-2.128,1.013-2.48,1.756a4.572,4.572,0,1,1,8.1-2.907ZM2.306,3.612a1.306,1.306,0,0,1,2.612,0A1.324,1.324,0,0,1,3.612,4.919,1.306,1.306,0,0,1,2.306,3.612ZM3.612,19.287a1.306,1.306,0,1,1,0-2.612,1.325,1.325,0,0,1,1.306,1.306A1.306,1.306,0,0,1,3.612,19.287Zm15.675-1.306a1.306,1.306,0,1,1-2.612,0,1.325,1.325,0,0,1,1.306-1.306,1.306,1.306,0,0,1,1.306,1.306Z" transform="translate(866.203 1549.373)" fill="#fafafb"/>
    <g id="Input" transform="translate(861 1544)" fill="rgba(0,180,154,0)" stroke="#292932" stroke-width="1" opacity="0">
      <rect width="32" height="32" rx="8" stroke="none"/>
      <rect x="0.5" y="0.5" width="31" height="31" rx="7.5" fill="none"/>
    </g>
  </g>
</svg>
