<svg xmlns="http://www.w3.org/2000/svg" width="24" height="24" viewBox="0 0 24 24">
  <g id="Group_13415" data-name="Group 13415" transform="translate(-815 -734)">
    <rect id="Rectangle_755" data-name="Rectangle 755" width="24" height="24" transform="translate(815 734)" fill="#92929d" opacity="0"/>
    <g id="Group_13407" data-name="Group 13407">
      <circle id="Ellipse_75" data-name="Ellipse 75" cx="7.5" cy="7.5" r="7.5" transform="translate(820 739)" fill="#29a3f2"/>
      <path id="Check" d="M8.439.224a.752.752,0,0,0-1.071,0L3.059,4.619,1.3,2.8a.765.765,0,0,0-1.083.011.8.8,0,0,0,.006,1.1L2.49,6.221l.033.039a.739.739,0,0,0,1.077,0L8.439,1.319A.792.792,0,0,0,8.439.224Z" transform="translate(823.171 743.342)" fill="#fafafb"/>
    </g>
  </g>
</svg>
