<svg width="44" height="44" viewBox="0 0 44 44" fill="none" xmlns="http://www.w3.org/2000/svg">
<path d="M22 44C34.1503 44 44 34.1503 44 22C44 9.84974 34.1503 0 22 0C9.84974 0 0 9.84974 0 22C0 34.1503 9.84974 44 22 44Z" fill="#00B49A"/>
<path d="M29.844 18.484C29.8398 18.0852 29.6784 17.7042 29.395 17.4238C29.1115 17.1433 28.7288 16.9859 28.3301 16.9859C27.9313 16.9859 27.5486 17.1433 27.2652 17.4237C26.9817 17.7042 26.8204 18.0852 26.8162 18.484L26.8169 23.4896C26.8211 23.8883 26.9824 24.2693 27.2659 24.5498C27.5493 24.8303 27.932 24.9876 28.3308 24.9876C28.7296 24.9876 29.1122 24.8303 29.3957 24.5498C29.6791 24.2693 29.8405 23.8883 29.8447 23.4896L29.844 18.484Z" fill="#FAFAFB"/>
<path d="M17.6041 20.3175H15.4211V21.6565H17.6041V20.3175Z" fill="#FAFAFB"/>
<path d="M7.25682 15.6845V28.288H36.7432V15.6845H7.25682ZM10.7789 26.8038C10.2385 26.8037 9.72013 26.589 9.33796 26.2069C8.95579 25.8247 8.74107 25.3064 8.74104 24.7659L8.74033 24.5191L9.93393 24.5191L9.93464 24.7659C9.94062 24.9879 10.0315 25.1992 10.1886 25.3563C10.3456 25.5133 10.5569 25.6042 10.7789 25.6102L12.1182 25.6102V23.4266C12.112 23.2047 12.021 22.9935 11.864 22.8365C11.707 22.6795 11.4958 22.5886 11.2739 22.5823L10.7789 22.5823C10.2423 22.5701 9.73103 22.3515 9.35147 21.9719C8.97192 21.5924 8.75328 21.0811 8.74104 20.5445L8.74104 17.1687H11.2739C11.8105 17.1812 12.3216 17.3999 12.7011 17.7794C13.0806 18.1589 13.2993 18.6701 13.3118 19.2066L13.3118 19.4541H12.1182L12.1196 19.208C12.1134 18.9861 12.0224 18.7749 11.8654 18.6179C11.7084 18.4609 11.4973 18.37 11.2753 18.3637L9.93605 18.3637L9.93393 20.5452C9.93895 20.7675 10.0295 20.9794 10.1868 21.1366C10.344 21.2939 10.5559 21.3844 10.7782 21.3895H11.2732C11.8097 21.4019 12.3209 21.6207 12.7004 22.0002C13.0799 22.3797 13.2986 22.8908 13.3111 23.4273L13.3125 26.8031L10.7789 26.8038ZM14.2282 23.8495L14.2282 20.123L18.7968 20.1252L18.7954 23.8459L14.2282 23.8495ZM19.7153 26.8038L19.7182 25.1859L22.9115 20.396C23.0311 20.2163 23.0946 20.0051 23.0939 19.7893L23.0939 19.3113C23.0881 19.0256 22.9705 18.7535 22.7664 18.5535C22.5623 18.3536 22.2879 18.2415 22.0021 18.2415C21.7164 18.2415 21.442 18.3536 21.2379 18.5535C21.0338 18.7535 20.9162 19.0256 20.9103 19.3113V20.3012H19.7168V19.3113C19.7168 19.0112 19.7759 18.714 19.8907 18.4367C20.0056 18.1594 20.1739 17.9075 20.3861 17.6953C20.5983 17.4831 20.8503 17.3147 21.1275 17.1999C21.4048 17.085 21.702 17.0259 22.0021 17.0259C22.3022 17.0259 22.5994 17.085 22.8767 17.1999C23.154 17.3147 23.4059 17.4831 23.6181 17.6953C23.8303 17.9075 23.9987 18.1594 24.1135 18.4367C24.2284 18.714 24.2875 19.0112 24.2875 19.3113L24.2882 19.7886C24.2884 20.2399 24.1548 20.6811 23.9042 21.0564L20.9118 25.5451L20.9125 25.6123L24.5293 25.6074V26.8009L19.7153 26.8038ZM26.4187 26.405C26.1666 26.1541 25.9668 25.8558 25.8307 25.5273C25.6946 25.1987 25.6251 24.8464 25.626 24.4908L25.6253 19.4852C25.6254 19.1297 25.6955 18.7777 25.8315 18.4493C25.9676 18.1208 26.1671 17.8224 26.4185 17.5711C26.9263 17.0634 27.6149 16.7783 28.3328 16.7784C29.0508 16.7785 29.7394 17.0638 30.247 17.5716C30.7546 18.0793 31.0397 18.7679 31.0397 19.4859L31.0404 24.4915C31.0403 25.027 30.8815 25.5504 30.584 25.9955C30.2864 26.4407 29.8636 26.7876 29.3689 26.9925C28.8741 27.1973 28.3298 27.2508 27.8047 27.1462C27.2795 27.0416 26.7972 26.7837 26.4187 26.405V26.405ZM33.6439 26.6284L33.6439 18.9351L32.642 20.6046L31.6188 19.9915L33.0584 17.5916L34.8368 17.5909L34.8368 26.6291L33.6439 26.6284Z" fill="#FAFAFB"/>
</svg>
