<svg xmlns="http://www.w3.org/2000/svg" width="44" height="44" viewBox="0 0 44 44">
  <g id="VIN" transform="translate(-690 -312)">
    <circle id="Ellipse_101" data-name="Ellipse 101" cx="22" cy="22" r="22" transform="translate(690 312)" fill="#292932"/>
    <g id="Group_13306" data-name="Group 13306" transform="translate(712 301.943) rotate(45)">
      <path id="Path_3237" data-name="Path 3237" d="M36.583,19.444a1.514,1.514,0,0,0-2.141,2.141l3.54,3.539a1.514,1.514,0,0,0,2.141-2.141Z" transform="translate(-10.855 -4.809)" fill="#fafafb"/>
      <rect id="Rectangle_744" data-name="Rectangle 744" width="2.183" height="1.339" transform="translate(16.826 26.13) rotate(-45)" fill="#fafafb"/>
      <path id="Path_3238" data-name="Path 3238" d="M7.07,27.92l8.912,8.912,20.85-20.85L27.92,7.07Zm10.353,5.372a2.038,2.038,0,0,1-2.882,0l-.175-.174.844-.844.175.174a.868.868,0,0,0,1.194,0l.947-.947-1.544-1.544a.869.869,0,0,0-1.194,0l-.35.35a2.086,2.086,0,0,1-2.882,0L9.169,27.92l1.791-1.791a2.087,2.087,0,0,1,2.882,0l.175.175-.844.844L13,26.973a.869.869,0,0,0-1.194,0l-.947.947L12.4,29.464a.864.864,0,0,0,1.194,0l.35-.35a2.087,2.087,0,0,1,2.882,0L19.214,31.5Zm.35-4.528-2.635-2.635L18.37,22.9,21,25.532Zm5.969-1.791L22.6,25.827l-1.129-5.645a1.088,1.088,0,0,0-.3-.558l-.338-.338a1.092,1.092,0,0,0-1.544,1.544l.7.7-.844.844-.7-.7a2.285,2.285,0,1,1,3.232-3.232l.338.337a2.282,2.282,0,0,1,.625,1.168l1.058,5.29.048.047L26.3,22.723l.844.844ZM28.2,21.951a2.69,2.69,0,0,1-1.914-.793l-3.54-3.539a2.707,2.707,0,1,1,3.829-3.828l3.54,3.539A2.707,2.707,0,0,1,28.2,21.951ZM33.467,17l-5.44-5.44.472,1.889-1.157.29-.679-2.715L27.92,9.766l6.391,6.391Z" transform="translate(0.707 0.707)" fill="#fafafb"/>
    </g>
  </g>
</svg>
