<svg id="Group_4604" data-name="Group 4604" xmlns="http://www.w3.org/2000/svg" width="24.096" height="16.746" viewBox="0 0 24.096 16.746">
  <path id="rect4" d="M674.1,100H650v16.746h24.1Z" transform="translate(-650 -100)" fill="#e41e20"/>
  <path id="Path_3112" data-name="Path 3112" d="M799.228,163.349c-.089-.159-.413-.158-.46.021l-.654.018.388-.276a.276.276,0,0,0,.389-.165.215.215,0,0,1,.269-.054c-.072-.128-.174-.166-.358-.079-.168-.127-.389.027-.355.155l-.516.351c-.375-.112-1.053-.286-1.053-.286.081-.085.163-.164.243-.25.029-.05-.015-.109-.077-.121a1.344,1.344,0,0,1-1.162-.989c-.088-.26.1-.337.167-.178a1.287,1.287,0,0,0,.462.649c.094.066.373.012.208-.145a.772.772,0,0,1-.329-.544c0-.173.177-.251.275-.085a1.58,1.58,0,0,0,.307.708.747.747,0,0,0,.427.275c.169,0,.338-.184.113-.317a.74.74,0,0,1-.5-.486c-.053-.3,0-.446.186-.3.257.292.749.837,1.006,1.091a.667.667,0,0,0,.883,0c.151-.174.1-.36-.139-.32-.533.045-.936-.22-1.379-.934-.087-.161-.11-.393.081-.221a1.969,1.969,0,0,0,.841.661.656.656,0,0,0,.644-.046c.116-.116.085-.408-.115-.337a.936.936,0,0,1-.64-.021,1.886,1.886,0,0,1-.761-.644c-.091-.2-.062-.36.123-.26.438.371,1,.672,1.291.492.212-.132.216-.472-.053-.45-.542.074-.748-.046-1.269-.506-.119-.089-.11-.313.078-.17a1.49,1.49,0,0,0,1.271.245c.211-.132.18-.537-.176-.393-.285.174-.6.169-1.229-.281-.159-.132-.04-.3.09-.231.507.289,1.245.413,1.437-.175.075-.224-.06-.356-.259-.2a.908.908,0,0,1-1.206,0c-.079-.047-.224-.283.031-.239.66.151,1.313.019,1.431-.448.069-.152-.067-.42-.307-.2A1.325,1.325,0,0,1,797.8,158c-.215-.045-.217-.282-.037-.317a1.883,1.883,0,0,0,.926-.286,1.041,1.041,0,0,0,.539-.643c.042-.257-.206-.53-.356-.257a1.755,1.755,0,0,1-1.253.843c-.028-.047-.1-.169-.187-.135-.16.062-.35.145-.546.238-.422.2-.6.3-.547.643.053.361-.226.59-.456.527-.2-.054-.311-.235-.275-.55a1.115,1.115,0,0,1,.564-.712,3.242,3.242,0,0,1,.794-.233c.2-.04.306-.119.318-.2a.58.58,0,0,1-.361.086.247.247,0,0,1-.2-.1,2.524,2.524,0,0,1,.343,0c.167,0,.556-.039.659-.274.032-.155-.07-.183-.165-.084s-.144.2-.349.24a.918.918,0,0,1-.409.008.457.457,0,0,1,.356-.2.231.231,0,0,1,.137.111c.026-.17-.02-.362-.475-.282.007-.129-.263-.184-.426-.182a1.307,1.307,0,0,0-.418.122,2.949,2.949,0,0,1-.681.134,3.424,3.424,0,0,0,.319.238,1.062,1.062,0,0,0-.469.364,1.387,1.387,0,0,1,.323.022,1.028,1.028,0,0,0-.533.272,1.15,1.15,0,0,1,.157.035c.033.012.025.034,0,.055-.058.044-.3.323-.368.39-.07-.067-.31-.345-.368-.39-.027-.021-.036-.042,0-.055a1.147,1.147,0,0,1,.157-.035,1.028,1.028,0,0,0-.533-.272,1.387,1.387,0,0,1,.323-.022,1.063,1.063,0,0,0-.469-.364,3.424,3.424,0,0,0,.319-.238,2.949,2.949,0,0,1-.681-.134,1.306,1.306,0,0,0-.418-.122c-.162,0-.433.053-.426.182-.454-.08-.5.112-.475.282a.231.231,0,0,1,.137-.111.457.457,0,0,1,.356.2.918.918,0,0,1-.409-.008c-.2-.036-.247-.133-.349-.24s-.2-.072-.165.084c.1.236.491.273.659.274a2.523,2.523,0,0,1,.343,0,.247.247,0,0,1-.2.1.581.581,0,0,1-.361-.086c.012.083.115.162.318.2a3.242,3.242,0,0,1,.794.233,1.115,1.115,0,0,1,.564.712c.036.314-.075.5-.275.55-.23.063-.509-.165-.456-.527.051-.346-.125-.443-.547-.643-.2-.093-.386-.176-.546-.238-.088-.034-.159.087-.187.135a1.754,1.754,0,0,1-1.253-.843c-.15-.273-.4,0-.356.257a1.042,1.042,0,0,0,.539.643,1.883,1.883,0,0,0,.926.286c.18.035.178.272-.037.317a1.325,1.325,0,0,1-1.075-.322c-.241-.225-.376.044-.307.2.119.467.771.6,1.431.448.255-.044.11.192.031.239a.908.908,0,0,1-1.206,0c-.2-.155-.333-.024-.259.2.192.587.93.464,1.437.175.13-.074.249.1.09.231-.63.45-.945.455-1.229.281-.356-.143-.387.261-.176.393a1.49,1.49,0,0,0,1.271-.245c.189-.143.2.081.078.17-.521.46-.726.58-1.269.506-.269-.022-.266.318-.053.45.288.181.853-.12,1.291-.492.185-.1.215.064.123.26a1.886,1.886,0,0,1-.761.644.936.936,0,0,1-.64.021c-.2-.07-.231.221-.115.337a.656.656,0,0,0,.644.046,1.968,1.968,0,0,0,.841-.661c.191-.172.167.059.081.221-.443.715-.846.979-1.379.934-.236-.04-.29.147-.139.32a.667.667,0,0,0,.883,0c.257-.254.749-.8,1.006-1.091.182-.148.24,0,.186.3a.739.739,0,0,1-.5.486c-.225.132-.056.314.113.317a.748.748,0,0,0,.427-.275,1.581,1.581,0,0,0,.307-.708c.1-.166.275-.088.275.085a.772.772,0,0,1-.329.544c-.165.157.114.21.208.145a1.287,1.287,0,0,0,.462-.649c.065-.159.255-.081.167.178a1.344,1.344,0,0,1-1.162.989c-.062.012-.106.071-.077.121.081.086.163.165.243.25,0,0-.678.174-1.053.286l-.516-.351c.034-.128-.187-.282-.355-.155-.184-.087-.285-.049-.358.079a.215.215,0,0,1,.269.054.276.276,0,0,0,.389.165l.388.276-.654-.018c-.047-.178-.37-.179-.46-.021-.118,0-.2.066-.237.22.128-.1.183-.084.249-.066a.264.264,0,0,0,.413,0l.628.018-.367.211c-.211-.125-.484.063-.433.257-.089.074-.1.18-.044.331a.444.444,0,0,1,.18-.258c.192.053.377-.009.377-.2l.51-.289.5.2c0,.135.2.237.374.165.121.014.138.123.158.206a.237.237,0,0,0-.075-.35.231.231,0,0,0-.357-.162l-.428-.152a10.915,10.915,0,0,1,1.089-.252c.1.092.173.16.269.242.051.032.123.03.2-.073.24-.356.466-1,.813-1.092.127-.033.281.054.248.338a1.578,1.578,0,0,1-.766,1.063c-.222.148-.316.083-.488.074-.222.025-.281.136-.1.289a.667.667,0,0,0,.446.078c.107-.019.231-.16.32-.237.1-.118.266.022.153.16a.883.883,0,0,1-.665.41c-.267.038-.217.19-.04.265a.69.69,0,0,0,.751-.283c.113-.125.193-.13.173.064-.112.353-.265.49-.514.507-.2-.018-.2.141-.057.249.337.238.581-.168.7-.413.081-.222.205-.116.218.066a.913.913,0,0,1-.317.622c-.144.125.622.92.622.92s.766-.795.621-.92a.913.913,0,0,1-.317-.622c.013-.182.138-.288.218-.066.114.245.358.65.7.413.147-.108.145-.267-.057-.249-.249-.017-.4-.154-.514-.507-.02-.194.061-.189.173-.064a.69.69,0,0,0,.751.283c.177-.074.227-.227-.04-.265a.884.884,0,0,1-.665-.41c-.113-.138.054-.278.153-.16.089.076.214.217.32.237a.667.667,0,0,0,.446-.078c.183-.153.123-.263-.1-.289-.172.008-.266.074-.488-.074a1.577,1.577,0,0,1-.765-1.063c-.033-.285.121-.371.248-.338.347.089.573.737.813,1.092.078.1.151.1.2.073.1-.082.173-.15.269-.242a10.907,10.907,0,0,1,1.089.252l-.428.152a.231.231,0,0,0-.357.162.237.237,0,0,0-.075.35c.02-.083.037-.192.158-.206.173.071.374-.031.374-.165l.5-.2.51.289c0,.2.185.257.377.2a.444.444,0,0,1,.18.258c.057-.151.045-.257-.044-.331.051-.195-.222-.382-.433-.257l-.367-.211.628-.018a.264.264,0,0,0,.413,0c.066-.018.121-.029.249.066C799.424,163.415,799.345,163.349,799.228,163.349Zm-2.862-6.8c.118,0,.194.038.194.089s-.075.1-.194.1-.193-.042-.193-.093S796.246,156.552,796.366,156.552Zm-3.295.186c-.118,0-.194-.046-.194-.1s.075-.089.194-.089.193.042.193.092S793.19,156.737,793.071,156.737Z" transform="translate(-782.159 -153.103)"/>
</svg>
